<?xml version="1.0" standalone="no"?>
<!DOCTYPE svg PUBLIC "-//W3C//DTD SVG 20010904//EN"
 "http://www.w3.org/TR/2001/REC-SVG-20010904/DTD/svg10.dtd">
<svg version="1.0" xmlns="http://www.w3.org/2000/svg"
 width="524.000000pt" height="1000.000000pt" viewBox="0 0 524.000000 1000.000000"
 preserveAspectRatio="xMidYMid meet">

<g transform="translate(0.000000,1000.000000) scale(0.100000,-0.100000)"
fill="#000000" stroke="none">
<path d="M2420 9709 c-55 -8 -146 -49 -198 -89 -78 -60 -148 -131 -179 -180
-20 -30 -43 -64 -53 -75 -11 -11 -19 -23 -19 -28 0 -4 -7 -17 -14 -30 -59 -99
-75 -126 -87 -157 -8 -19 -24 -44 -35 -55 -11 -11 -16 -17 -11 -12 25 18 27 4
3 -21 -15 -15 -27 -33 -27 -40 0 -7 -5 -12 -11 -12 -6 0 -9 -7 -6 -14 4 -11 1
-13 -10 -9 -11 4 -14 2 -9 -5 4 -7 2 -12 -3 -12 -6 0 -23 -19 -38 -42 -15 -24
-32 -46 -38 -50 -5 -4 -6 -10 -3 -14 4 -3 17 10 29 30 15 25 25 34 32 27 7 -7
5 -17 -5 -33 -18 -28 -57 -143 -62 -184 -11 -82 -29 -161 -42 -181 -8 -12 -14
-28 -14 -36 0 -7 -6 -22 -14 -32 -12 -17 -12 -14 -2 25 7 25 15 52 19 60 10
24 29 103 33 135 2 16 6 39 9 50 3 11 -6 -5 -20 -35 -14 -30 -30 -57 -35 -60
-5 -3 -12 -21 -15 -40 -3 -19 -11 -57 -19 -85 -9 -33 -10 -52 -3 -56 5 -4 7
-16 4 -28 -3 -12 0 -21 6 -21 8 0 8 -3 -1 -9 -7 -4 -12 -12 -11 -17 4 -15 -23
-134 -32 -139 -4 -3 -3 11 3 31 19 70 2 42 -21 -34 -13 -42 -34 -108 -46 -147
-55 -164 -122 -431 -112 -442 4 -3 7 5 7 18 0 17 3 20 9 10 6 -9 9 -7 9 10 1
39 32 172 43 186 7 7 8 13 3 13 -5 0 -4 4 2 8 7 4 14 31 17 60 5 47 17 86 17
53 0 -7 5 -9 10 -6 6 4 10 -6 10 -24 0 -16 -4 -32 -9 -35 -16 -10 -43 -114
-39 -150 2 -19 0 -32 -4 -30 -4 3 -8 -4 -8 -16 0 -12 5 -18 10 -15 6 3 10 -4
9 -17 0 -13 -3 -17 -6 -10 -10 26 -19 10 -21 -40 -1 -29 -4 -92 -8 -139 -4
-69 -2 -89 10 -101 8 -9 12 -18 9 -22 -10 -9 31 -49 74 -71 21 -11 55 -36 75
-56 20 -21 39 -34 43 -31 4 4 5 -11 2 -34 -2 -22 0 -49 4 -60 7 -17 8 -17 8 4
1 12 5 22 9 22 5 0 7 -13 4 -30 -2 -16 -8 -28 -12 -25 -12 8 -19 -7 -22 -48
-1 -20 -5 -34 -9 -31 -10 6 -19 -23 -19 -64 0 -20 -5 -44 -11 -52 -8 -11 -9
-8 -5 15 8 48 15 132 10 114 -3 -10 -13 -15 -27 -12 -12 2 -58 -1 -102 -6 -44
-5 -105 -12 -136 -15 -30 -2 -72 -11 -93 -20 -21 -9 -42 -13 -47 -11 -16 10
-69 -25 -75 -50 -7 -27 -24 -34 -24 -11 0 21 -20 30 -33 17 -9 -9 -8 -15 5
-22 20 -11 20 -23 -14 -294 -31 -256 -34 -320 -21 -425 7 -52 12 -130 13 -172
0 -42 7 -107 16 -145 9 -37 15 -100 15 -140 0 -46 7 -95 19 -135 13 -42 20
-92 20 -147 0 -46 5 -113 12 -148 9 -52 9 -66 -1 -73 -10 -5 -10 -9 -2 -11 9
-3 9 -12 2 -32 -7 -18 -7 -27 0 -27 6 0 7 -5 3 -11 -3 -6 5 -23 19 -37 27 -29
44 -112 24 -112 -7 -1 0 -8 16 -16 29 -16 47 -12 47 11 0 7 5 15 12 17 8 3 5
12 -10 28 -12 13 -22 27 -22 32 0 4 -7 8 -15 8 -17 0 -19 14 -5 39 16 31 79
50 151 45 50 -3 59 -2 40 6 -16 7 -20 14 -14 23 6 6 9 31 8 55 -2 23 1 42 5
42 4 0 6 -13 5 -29 -2 -20 2 -28 13 -27 8 0 17 -5 19 -11 3 -7 0 -13 -6 -13
-6 0 -11 5 -11 11 0 5 -5 7 -11 3 -17 -10 12 -25 35 -18 12 4 16 2 12 -5 -5
-7 -1 -8 10 -4 13 5 15 3 9 -7 -6 -9 -4 -11 5 -5 9 5 4 14 -19 32 -17 14 -29
29 -26 34 4 5 0 6 -7 4 -10 -4 -14 3 -14 20 0 16 6 25 16 25 21 0 64 -47 50
-55 -5 -3 -10 -12 -10 -18 0 -7 4 -6 10 3 9 14 11 13 14 -10 1 -14 13 -17 23
-6 5 6 2 6 -7 1 -8 -5 -12 -5 -8 0 4 4 3 14 -3 22 -6 7 -8 14 -3 14 50 8 55 6
41 -10 -8 -9 -13 -24 -12 -34 2 -9 0 -15 -5 -12 -4 3 -13 -2 -20 -10 -10 -12
-9 -15 6 -15 16 -1 15 -3 -5 -14 -22 -12 -22 -14 -5 -20 38 -15 141 -19 160
-7 17 11 16 12 -8 8 -15 -2 -26 -1 -25 4 1 4 -7 15 -18 23 -11 9 -14 16 -7 16
6 0 12 6 12 13 0 26 46 40 106 33 l57 -6 -7 32 c-3 18 0 86 8 153 9 66 22 224
31 350 41 611 35 576 96 589 48 9 157 7 140 -3 -17 -11 -4 -17 33 -16 16 0 31
6 33 12 3 7 -4 9 -17 6 -24 -6 -70 33 -63 54 2 6 -1 15 -8 19 -8 5 -9 3 -4 -6
5 -8 4 -11 -2 -7 -5 3 -18 25 -27 49 -10 24 -22 51 -27 60 -12 24 -12 98 1 78
5 -8 12 -11 15 -8 4 4 4 12 -1 19 -9 14 -12 69 -4 69 3 0 11 -21 18 -46 7 -26
15 -44 18 -42 2 3 0 17 -5 31 -5 14 -13 52 -17 85 -6 55 -5 60 15 67 16 5 21
14 21 41 0 40 42 93 48 61 4 -18 62 -54 62 -38 0 5 -9 12 -19 16 -24 7 -36 36
-19 47 9 6 6 7 -9 3 -15 -4 -25 0 -32 13 -12 22 4 39 79 87 25 15 49 34 53 42
5 8 16 11 27 8 10 -3 21 -1 25 5 3 6 11 8 16 5 5 -4 9 -1 9 5 0 6 4 9 9 5 5
-3 12 -1 16 5 3 5 17 7 31 4 15 -4 24 -2 24 6 0 7 9 2 19 -11 19 -23 20 -23
40 -5 14 12 19 28 17 47 -2 16 1 32 6 35 5 3 8 15 6 27 -3 20 2 22 43 23 25 0
61 8 79 17 18 9 37 14 43 10 5 -3 7 -2 4 4 -3 5 5 22 19 38 13 15 24 35 24 45
0 17 20 46 58 87 12 13 22 27 22 31 0 4 20 20 45 35 25 16 43 33 39 38 -3 5 1
9 9 9 7 0 39 24 70 53 31 28 68 61 81 72 25 19 46 52 26 40 -23 -14 -8 5 19
24 27 19 30 20 42 4 12 -15 12 -16 -5 -10 -15 6 -17 5 -8 -6 6 -7 13 -67 16
-133 3 -65 7 -134 10 -153 7 -44 36 -133 47 -145 5 -6 9 -20 9 -31 0 -12 9
-31 20 -42 13 -15 16 -23 7 -26 -7 -2 -9 -8 -5 -12 4 -4 18 -1 31 7 21 14 26
14 62 -8 22 -13 63 -34 90 -47 28 -13 57 -32 65 -42 15 -18 14 -18 -15 -1
l-30 18 24 -20 c14 -11 31 -18 38 -15 9 3 16 -3 20 -16 3 -11 9 -18 14 -16 10
7 31 -30 22 -39 -3 -3 1 -6 10 -6 26 0 31 -56 42 -455 4 -132 9 -243 12 -247
2 -5 -27 -8 -66 -8 -46 0 -71 -4 -74 -12 -3 -8 -6 -6 -6 5 -1 24 -21 22 -21
-3 0 -11 -5 -20 -11 -20 -5 0 -8 4 -5 8 2 4 1 14 -4 22 -6 9 -10 2 -15 -26
-10 -60 -13 -63 -14 -14 -2 62 -20 33 -23 -35 l-1 -50 -4 45 c-4 46 -20 90
-34 90 -5 0 -6 -7 -3 -15 8 -21 -4 -67 -16 -60 -6 3 -10 11 -10 16 0 6 5 7 10
4 6 -3 10 1 10 9 0 9 -4 16 -10 16 -5 0 -9 6 -7 13 3 17 -64 22 -74 5 -7 -10
-9 -10 -9 0 0 6 -4 12 -10 12 -5 0 -7 -8 -3 -17 5 -17 5 -17 -8 -1 -19 23 -53
27 -304 33 -121 3 -257 8 -303 9 -65 3 -85 1 -89 -10 -3 -8 -9 -14 -14 -14 -4
0 -6 6 -4 13 7 16 -172 21 -227 7 -45 -13 -53 -23 -32 -44 8 -9 12 -16 7 -16
-5 0 -14 5 -21 12 -7 7 -13 9 -13 5 -2 -10 -5 -20 -11 -37 -3 -8 -11 -31 -16
-50 l-11 -35 4 35 c3 19 7 54 9 78 3 24 2 40 -3 37 -11 -6 -29 -83 -36 -155
-11 -125 -46 -471 -55 -557 -6 -50 -10 -111 -10 -135 0 -32 -3 -39 -10 -28 -7
11 -8 5 -4 -19 9 -43 -17 -242 -27 -215 -6 16 -8 16 -8 2 -1 -9 4 -20 9 -23
17 -10 11 -28 -7 -21 -14 6 -14 3 3 -15 47 -54 110 -109 125 -109 21 0 41 80
54 225 3 33 12 92 20 131 25 119 63 436 60 499 -2 40 -1 50 4 30 5 -23 9 -9
15 60 4 50 9 108 11 130 3 27 0 21 -9 -20 l-14 -60 5 90 c3 50 12 110 19 135
12 40 12 46 -3 58 -15 11 -15 12 3 12 11 0 25 -5 31 -11 6 -6 31 -12 54 -13
24 -1 100 -12 169 -24 249 -42 325 -49 316 -31 -4 8 -2 7 6 -2 10 -12 81 -25
278 -53 496 -69 459 -65 463 -42 4 19 4 19 6 -1 1 -25 35 -33 44 -10 4 8 6 6
6 -4 1 -12 21 -18 94 -26 155 -18 236 -37 260 -61 28 -29 28 -74 -2 -227 -16
-81 -24 -158 -25 -235 -1 -98 -4 -121 -23 -157 -13 -24 -32 -91 -43 -150 -11
-60 -23 -118 -26 -131 -5 -25 0 -27 64 -36 35 -5 43 -3 48 11 16 53 45 103 56
97 7 -5 9 0 6 14 -4 12 -3 20 0 18 4 -2 13 2 20 10 11 12 10 14 -3 14 -8 0
-15 4 -15 10 0 5 6 9 13 7 7 -1 13 11 14 33 2 42 20 93 30 87 5 -3 9 14 9 37
1 39 37 116 54 116 4 0 11 11 14 25 4 14 11 23 16 20 6 -4 7 6 4 23 -4 19 4
64 20 118 66 226 86 359 92 614 4 138 1 255 -6 328 -7 62 -11 115 -8 117 2 2
22 -5 45 -15 42 -18 102 -73 183 -165 24 -27 37 -39 29 -25 -24 38 -43 74 -45
85 -1 6 -9 29 -18 53 -8 23 -12 42 -8 42 4 0 24 -13 43 -30 20 -16 39 -27 42
-24 7 8 -51 67 -79 82 -20 10 -94 145 -94 170 0 6 7 9 17 5 11 -4 14 -3 9 5
-4 7 -17 12 -29 12 -23 0 -62 42 -91 98 -9 17 -21 32 -27 32 -6 0 -9 6 -6 14
3 8 -4 22 -16 33 l-22 18 19 -22 c11 -13 15 -23 10 -23 -8 0 -40 35 -93 103
-7 9 -15 40 -16 67 -1 28 -8 57 -15 65 -11 13 -10 14 4 9 9 -3 16 -11 16 -17
0 -6 3 -8 6 -5 3 3 1 14 -5 25 -11 18 -26 58 -31 78 -1 6 -7 19 -13 30 -7 11
-12 25 -12 30 -1 19 -27 75 -36 75 -5 0 -6 -8 -3 -17 5 -15 4 -16 -5 -3 -6 8
-6 19 -1 24 8 8 -5 60 -20 81 -4 6 -11 21 -15 34 -5 18 -4 22 5 16 9 -5 11 -4
6 4 -4 6 -12 9 -17 5 -6 -3 -9 2 -7 12 2 13 -4 20 -19 22 -13 2 -25 14 -32 33
-5 16 -15 29 -21 29 -6 0 -2 10 9 21 20 22 20 22 0 47 -10 14 -17 32 -15 41 5
16 -40 78 -50 69 -2 -3 7 -16 21 -29 24 -24 35 -46 15 -34 -6 3 -5 -6 2 -22 7
-15 18 -32 25 -36 8 -5 11 -13 7 -18 -3 -6 -12 -5 -22 3 -16 12 -16 11 -2 -7
14 -19 14 -19 -3 -6 -9 8 -15 16 -13 18 2 3 -7 26 -20 53 -13 26 -24 55 -24
63 0 9 -4 19 -10 22 -5 3 -10 14 -10 23 1 15 2 15 15 -2 20 -27 20 2 0 30 -8
12 -12 23 -10 26 3 2 -11 58 -31 124 -54 179 -65 222 -65 258 0 11 -5 29 -12
40 -6 12 -12 24 -13 29 -1 4 -3 10 -4 15 -1 4 -2 11 -1 16 5 27 -35 182 -52
204 -6 8 -12 22 -14 32 -1 10 -14 43 -28 74 -14 30 -25 61 -25 68 -1 7 -8 24
-16 38 -11 18 -14 20 -10 5 6 -20 6 -20 -9 -1 -8 11 -15 29 -15 40 0 12 -13
35 -30 52 -16 18 -26 35 -23 38 4 3 1 6 -6 6 -7 0 -10 4 -6 9 3 5 1 12 -5 16
-5 3 -10 11 -10 17 0 6 7 5 18 -3 16 -13 16 -12 3 6 -8 11 -28 35 -45 53 -16
17 -26 32 -22 32 9 0 -71 98 -115 143 -16 15 -34 26 -41 25 -6 -2 -12 4 -13
13 0 24 -53 81 -67 73 -7 -4 -10 -4 -6 1 5 5 -8 19 -27 32 -19 13 -35 28 -35
33 0 6 -8 10 -19 10 -10 0 -24 6 -30 14 -7 8 -23 17 -37 20 -14 4 -22 11 -19
16 3 6 -3 10 -14 10 -11 0 -22 4 -25 9 -12 19 -161 40 -220 31 -42 -6 -57 -4
-97 16 -50 25 -90 28 -189 13z m665 -207 c-3 -3 -11 0 -18 7 -9 10 -8 11 6 5
10 -3 15 -9 12 -12z m75 -77 c7 -9 8 -15 2 -15 -5 0 -12 7 -16 15 -3 8 -4 15
-2 15 2 0 9 -7 16 -15z m113 -109 c4 -9 1 -18 -5 -22 -6 -4 -8 -3 -5 3 4 6 -4
15 -17 21 -13 6 -34 25 -47 43 l-23 33 46 -32 c25 -17 48 -38 51 -46z m2 54
c3 -6 -1 -7 -9 -4 -18 7 -21 14 -7 14 6 0 13 -4 16 -10z m-664 -88 c-9 -8 -10
-11 -3 -7 8 4 12 -2 13 -17 0 -13 3 -17 6 -10 8 20 30 14 52 -14 11 -14 26
-27 33 -28 40 -6 164 -111 208 -176 14 -21 46 -68 72 -106 61 -91 64 -108 18
-112 -19 -1 -53 -7 -75 -12 -22 -5 -62 -12 -89 -14 -52 -5 -96 -36 -96 -67 0
-18 12 -19 55 -4 11 4 -1 -6 -26 -23 -26 -16 -55 -44 -65 -61 -16 -28 -19 -29
-35 -15 -12 11 -40 16 -92 17 -42 1 -74 4 -72 8 3 3 -5 15 -15 27 -11 12 -20
28 -20 37 0 8 -4 15 -10 15 -5 0 -7 7 -4 15 5 11 2 13 -12 8 -9 -3 -15 -2 -12
3 3 5 -3 17 -14 27 -10 9 -18 12 -18 6 0 -6 -6 -4 -14 3 -8 8 -47 20 -87 28
-41 7 -78 17 -84 22 -5 4 -23 8 -41 8 -31 0 -31 1 -29 40 2 23 13 65 25 96 13
30 20 58 16 61 -3 4 6 15 21 25 16 10 24 18 19 18 -5 0 -1 9 9 20 10 11 26 20
37 20 10 0 18 5 18 10 0 6 6 9 13 8 6 -2 11 3 9 10 -1 8 2 11 7 7 13 -7 201
84 201 98 0 6 3 8 6 5 3 -4 0 -17 -6 -30 l-12 -23 21 23 c12 12 19 27 16 32
-3 6 1 7 9 4 10 -4 16 -1 16 9 0 8 7 20 15 27 8 6 14 15 13 18 -2 22 5 23 11
2 5 -17 2 -29 -8 -38z m700 31 c13 -16 12 -17 -3 -4 -10 7 -18 15 -18 17 0 8
8 3 21 -13z m-15 -22 c-7 -11 22 -23 35 -16 5 4 6 -1 3 -9 -5 -14 -9 -13 -30
0 -20 14 -25 34 -8 34 3 0 3 -4 0 -9z m68 -44 c-2 -7 9 -26 25 -41 27 -26 34
-55 10 -40 -5 3 -7 9 -4 14 3 4 -9 20 -27 35 -25 21 -29 28 -17 36 18 12 19
11 13 -4z m-1612 -309 c-7 -7 -12 -8 -12 -2 0 14 12 26 19 19 2 -3 -1 -11 -7
-17z m1816 -113 c-3 -3 -9 2 -12 12 -6 14 -5 15 5 6 7 -7 10 -15 7 -18z m-502
-84 c21 -11 55 -36 74 -57 l35 -37 -36 26 c-49 36 -101 57 -146 57 -40 0 -36
15 7 23 14 2 25 5 26 6 0 0 18 -8 40 -18z m-881 -8 c-11 -2 -33 -8 -50 -13
-28 -9 -29 -9 -11 5 11 8 34 14 50 14 20 -1 24 -3 11 -6z m843 -23 c58 -14
117 -55 136 -95 19 -39 21 -122 4 -176 -14 -50 -69 -114 -119 -139 -42 -22
-130 -27 -190 -10 -70 20 -151 116 -141 168 2 6 -2 12 -9 12 -8 0 -10 18 -7
59 7 99 73 160 197 181 65 11 80 11 129 0z m-703 -16 c17 -8 21 -12 11 -9 -19
6 -19 5 -3 -12 16 -18 13 -18 -66 -12 -45 4 -85 6 -88 3 -4 -2 -19 2 -34 10
l-26 14 28 10 c42 15 144 13 178 -4z m33 -83 c2 -6 8 -9 13 -5 5 3 9 0 9 -6 0
-7 -13 -9 -37 -5 -59 10 -73 15 -73 27 0 14 83 3 88 -11z m-731 -23 c-3 -7 -5
-2 -5 12 0 14 2 19 5 13 2 -7 2 -19 0 -25z m633 22 c0 -5 -4 -10 -10 -10 -5 0
-10 5 -10 10 0 6 5 10 10 10 6 0 10 -4 10 -10z m393 -4 l33 -13 -2 -79 c-2
-66 2 -89 23 -136 25 -56 88 -126 108 -120 5 2 7 0 3 -4 -4 -4 8 -26 27 -50
19 -23 35 -46 35 -51 0 -4 16 -19 35 -32 20 -13 49 -38 66 -55 l30 -30 -3 30
c-2 34 -25 57 -100 104 -36 22 -48 36 -48 53 0 21 4 24 28 19 15 -2 25 -2 22
1 -3 3 -19 7 -36 10 -49 8 -124 60 -146 102 -6 11 11 0 37 -23 134 -118 327
-84 407 71 11 22 22 70 25 108 5 62 8 69 27 68 12 0 15 -3 8 -6 -10 -4 -9 -10
7 -27 38 -40 44 -141 16 -286 -6 -33 -6 -34 9 -16 9 11 16 27 16 36 0 26 21
80 31 80 14 0 11 -38 -6 -70 l-15 -29 34 6 33 5 -4 -53 c-6 -68 -31 -93 -84
-86 l-37 5 -11 -57 c-11 -54 -74 -201 -86 -201 -3 0 -3 6 1 13 4 6 -26 -22
-67 -64 -71 -72 -230 -185 -310 -221 -25 -11 -59 -15 -116 -13 -138 4 -234 54
-308 160 -11 16 -30 39 -42 52 -13 13 -23 26 -23 29 0 3 -18 23 -40 44 -57 56
-80 122 -60 175 7 18 6 25 -3 25 -7 0 -19 15 -26 33 -8 17 -18 39 -22 48 -14
30 23 56 91 63 73 8 73 14 3 20 -28 2 -57 7 -63 11 -9 6 -11 4 -5 -4 6 -10 3
-10 -16 0 -31 16 -49 35 -42 43 4 3 -7 21 -23 38 l-29 32 38 -32 c88 -75 193
-94 286 -52 32 15 40 16 31 5 -7 -8 -14 -36 -16 -62 -9 -106 -3 -118 53 -129
47 -9 172 15 194 37 10 10 36 23 58 29 53 14 58 26 22 45 -22 11 -37 12 -55 5
-28 -10 -34 -25 -13 -34 6 -3 3 -4 -8 -3 -11 2 -19 8 -18 15 2 6 -6 16 -17 22
-11 6 -20 9 -20 7 0 -2 -18 13 -40 34 l-41 39 21 41 c21 40 27 75 33 202 3 44
0 67 -7 68 -6 0 -2 4 9 9 30 13 72 12 108 -4z m-259 -72 c4 -10 -2 -14 -18
-14 -19 0 -23 4 -19 19 5 21 28 18 37 -5z m7 -37 c-4 -4 -19 -9 -32 -11 -13
-2 -31 -6 -39 -9 -30 -11 -71 -14 -76 -6 -3 5 0 9 6 9 6 0 9 4 5 9 -3 6 14 11
37 13 75 6 108 4 99 -5z m30 -57 c5 0 9 -8 9 -17 1 -16 2 -16 15 1 18 24 19
16 4 -18 -7 -14 -16 -23 -22 -19 -6 4 -7 1 -2 -6 18 -30 -106 -111 -170 -111
-97 0 -197 68 -219 150 -5 17 -4 21 2 12 8 -11 10 -11 15 1 4 10 16 14 34 12
15 -1 57 -5 93 -9 49 -6 82 -3 135 11 58 16 72 17 83 6 7 -7 18 -13 23 -13z
m-905 -279 c-3 -22 -3 -41 2 -44 4 -2 1 -2 -5 -1 -18 5 -16 -15 2 -22 8 -4 15
-16 14 -28 0 -11 -3 -15 -6 -8 -2 6 -9 10 -14 7 -5 -4 -6 1 -3 9 10 26 -4 18
-20 -11 -22 -40 -19 -12 4 49 11 29 20 61 20 71 0 9 3 17 6 17 4 0 4 -18 0
-39z m36 21 c3 -9 1 -26 -3 -37 -6 -15 -8 -11 -8 18 -1 40 4 48 11 19z m2101
-12 c3 -11 1 -18 -4 -14 -5 3 -9 12 -9 20 0 20 7 17 13 -6z m-2121 -159 c6 10
7 6 2 -11 -4 -14 -7 -43 -7 -65 1 -36 0 -37 -8 -15 -8 20 -12 22 -19 10 -15
-23 -12 -5 4 26 8 15 13 39 12 53 -2 14 -1 17 1 7 4 -16 7 -17 15 -5z m-31
-38 c-9 -16 -10 -14 -11 12 0 21 3 26 11 18 8 -8 8 -16 0 -30z m1 -81 c-8 -2
-9 -8 -4 -15 5 -7 5 -23 1 -37 -4 -14 -8 -18 -8 -10 -1 13 -3 13 -12 0 -9 -12
-10 -12 -5 3 3 10 6 32 6 48 0 23 3 27 17 22 11 -4 13 -8 5 -11z m2322 -8 c3
-8 2 -12 -4 -9 -6 3 -10 10 -10 16 0 14 7 11 14 -7z m-2314 -84 c0 -5 -5 -10
-11 -10 -5 0 -7 5 -4 10 3 6 8 10 11 10 2 0 4 -4 4 -10z m-41 -112 c-15 -28
-17 -20 -11 47 l6 60 8 -44 c4 -27 3 -51 -3 -63z m41 83 c0 -6 -4 -13 -10 -16
-5 -3 -10 1 -10 9 0 9 5 16 10 16 6 0 10 -4 10 -9z m2420 -42 c0 -6 -4 -7 -10
-4 -5 3 -10 11 -10 16 0 6 5 7 10 4 6 -3 10 -11 10 -16z m-2455 -83 c-18 -27
-35 -26 -35 2 0 14 2 15 10 2 7 -11 11 -8 21 15 6 17 13 25 16 18 2 -6 -3 -23
-12 -37z m35 -6 c0 -5 -7 -10 -16 -10 -8 0 -12 5 -9 10 3 6 10 10 16 10 5 0 9
-4 9 -10z m-30 -55 c-12 -24 -16 -48 -13 -78 4 -35 2 -44 -10 -44 -9 0 -13 5
-9 11 4 6 8 36 9 66 1 30 7 56 12 58 6 2 9 8 5 13 -3 5 1 9 9 9 12 0 12 -6 -3
-35z m-49 -21 c-9 -28 -9 -29 -10 -3 -1 14 2 29 6 32 11 12 13 2 4 -29z m79
-4 c0 -5 -5 -10 -11 -10 -5 0 -7 5 -4 10 3 6 8 10 11 10 2 0 4 -4 4 -10z m-80
-87 c0 -19 -3 -24 -10 -17 -6 6 -8 18 -4 27 9 24 14 21 14 -10z m77 -5 c-3 -8
-6 -5 -6 6 -1 11 2 17 5 13 3 -3 4 -12 1 -19z m-47 -72 c0 -3 -4 -8 -10 -11
-5 -3 -10 -1 -10 4 0 6 5 11 10 11 6 0 10 -2 10 -4z m207 -218 c-3 -8 -6 -5
-6 6 -1 11 2 17 5 13 3 -3 4 -12 1 -19z m2483 -28 c0 -5 -2 -10 -4 -10 -3 0
-8 5 -11 10 -3 6 -1 10 4 10 6 0 11 -4 11 -10z m-2505 -79 c-19 -39 -25 -39
-22 -2 1 16 5 27 9 25 4 -2 10 1 13 7 15 24 15 -1 0 -30z m2572 -423 c-3 -7
-5 -2 -5 12 0 14 2 19 5 13 2 -7 2 -19 0 -25z m-1747 -372 c0 -3 -4 -8 -10
-11 -5 -3 -10 -1 -10 4 0 6 5 11 10 11 6 0 10 -2 10 -4z m685 -26 c-3 -5 -10
-10 -16 -10 -5 0 -9 5 -9 10 0 6 7 10 16 10 8 0 12 -4 9 -10z m-358 -22 c-3
-8 -6 -5 -6 6 -1 11 2 17 5 13 3 -3 4 -12 1 -19z m585 -18 c-2 -22 -6 -40 -8
-40 -2 0 -4 18 -4 40 0 22 3 40 8 40 4 0 6 -18 4 -40z m45 8 c-3 -8 -6 -5 -6
6 -1 11 2 17 5 13 3 -3 4 -12 1 -19z m-120 -35 c-3 -10 -5 -4 -5 12 0 17 2 24
5 18 2 -7 2 -21 0 -30z m90 -5 c-3 -7 -5 -2 -5 12 0 14 2 19 5 13 2 -7 2 -19
0 -25z m49 -5 c-10 -10 -19 5 -10 18 6 11 8 11 12 0 2 -7 1 -15 -2 -18z
m-1279 -5 c-3 -8 -6 -5 -6 6 -1 11 2 17 5 13 3 -3 4 -12 1 -19z m-10 -120 c-2
-13 -4 -5 -4 17 -1 22 1 32 4 23 2 -10 2 -28 0 -40z m-12 -155 c-4 -41 -9 -73
-11 -70 -2 2 -1 44 3 93 4 49 9 80 11 70 2 -11 1 -52 -3 -93z m-18 -115 c-3
-8 -6 -5 -6 6 -1 11 2 17 5 13 3 -3 4 -12 1 -19z m-10 -70 c-3 -7 -5 -2 -5 12
0 14 2 19 5 13 2 -7 2 -19 0 -25z m-20 -150 c-3 -8 -6 -5 -6 6 -1 11 2 17 5
13 3 -3 4 -12 1 -19z m-617 -2 c0 -3 -4 -8 -10 -11 -5 -3 -10 -1 -10 4 0 6 5
11 10 11 6 0 10 -2 10 -4z m-113 -38 c-3 -8 -6 -5 -6 6 -1 11 2 17 5 13 3 -3
4 -12 1 -19z m61 6 c-2 -10 3 -19 11 -22 8 -3 11 0 7 6 -3 6 -2 13 4 17 5 3
10 1 10 -4 0 -6 8 -11 18 -11 14 0 15 -2 2 -10 -32 -20 -75 -5 -64 23 8 22 16
22 12 1z m658 -76 c-4 -40 -13 -104 -21 -143 -16 -78 -14 -41 6 113 15 117 25
137 15 30z m-596 32 c-23 -7 -23 -8 10 -10 26 -1 30 -4 15 -8 -31 -10 -29 -32
3 -33 26 -1 25 -1 -6 -9 -37 -9 -53 -20 -31 -21 8 0 6 -4 -6 -10 -15 -7 -12
-8 13 -3 24 4 32 2 32 -9 0 -9 -6 -17 -12 -20 -9 -3 -8 -10 6 -26 23 -26 14
-28 -11 -2 -13 14 -23 16 -38 10 -18 -9 -18 -9 3 -5 12 2 22 0 22 -5 0 -5 -4
-9 -9 -9 -5 0 -23 -3 -41 -7 -23 -4 -31 -3 -26 5 3 6 1 14 -5 18 -8 4 -9 3 -5
-4 4 -7 1 -12 -8 -12 -8 0 -23 -3 -33 -6 -15 -5 -15 -4 -3 5 8 6 15 16 15 23
0 9 14 13 45 12 32 -2 39 0 25 6 -12 5 -14 9 -6 9 8 1 12 4 9 7 -4 3 -16 0
-28 -6 -16 -9 -25 -9 -33 -1 -8 8 -4 11 14 11 23 1 23 1 5 15 -17 13 -17 15
-3 15 11 0 15 7 12 20 -2 11 0 18 6 15 5 -4 9 -1 9 4 0 6 6 11 14 11 8 0 16 7
20 15 3 8 16 15 28 14 22 -1 22 -1 -2 -9z m-50 -10 c-8 -5 -22 -9 -30 -9 -10
0 -8 3 5 9 27 12 43 12 25 0z m545 -27 c-4 -16 -8 -38 -10 -51 -1 -12 -6 -26
-10 -30 -4 -4 -5 11 -2 33 4 22 7 48 7 58 0 9 5 17 11 17 7 0 9 -10 4 -27z
m-462 -40 c-7 -2 -19 -2 -25 0 -7 3 -2 5 12 5 14 0 19 -2 13 -5z m24 -59 c-3
-3 -12 -4 -19 -1 -8 3 -5 6 6 6 11 1 17 -2 13 -5z m433 2 c0 -3 -4 -8 -10 -11
-5 -3 -10 -1 -10 4 0 6 5 11 10 11 6 0 10 -2 10 -4z m-470 -43 c0 -1 -11 -10
-25 -19 -21 -13 -28 -14 -41 -4 -11 10 -12 15 -3 20 10 7 69 9 69 3z m454 -18
c3 -8 1 -15 -4 -15 -6 0 -10 7 -10 15 0 8 2 15 4 15 2 0 6 -7 10 -15z m-17
-77 c-3 -8 -6 -5 -6 6 -1 11 2 17 5 13 3 -3 4 -12 1 -19z m-432 -18 c-3 -5
-12 -10 -18 -10 -7 0 -6 4 3 10 19 12 23 12 15 0z"/>
<path d="M2793 8660 c-25 -10 -61 -82 -43 -88 5 -2 8 -8 4 -13 -3 -5 0 -9 7
-9 9 0 9 -3 0 -14 -9 -11 -7 -15 11 -20 13 -3 34 -6 48 -6 19 0 22 2 10 9 -8
6 -18 7 -22 5 -4 -3 -8 0 -8 6 0 7 7 10 15 6 8 -3 15 -1 15 4 0 6 5 10 10 10
6 0 10 -7 10 -15 0 -21 32 -35 74 -31 41 4 52 11 58 41 5 20 5 20 13 1 6 -13
4 -21 -3 -24 -7 -2 -12 -8 -12 -13 0 -14 59 -10 94 6 26 12 33 22 34 45 1 26
-6 32 -52 55 -47 23 -191 50 -181 34 3 -4 -4 -9 -15 -12 -11 -3 -18 -1 -14 4
9 15 -28 10 -47 -7 -13 -12 -19 -12 -25 -3 -5 8 -3 10 7 4 8 -5 11 -4 6 0 -4
5 5 14 20 21 32 14 19 17 -14 4z m195 -41 c19 -6 29 -15 25 -22 -4 -6 0 -8 10
-4 10 3 17 2 17 -3 0 -13 -16 -13 -41 1 -23 12 -84 14 -143 5 -44 -7 -44 -4
-1 18 35 19 89 20 133 5z m-54 -60 c-6 -11 -24 -2 -24 11 0 5 7 7 15 4 8 -4
12 -10 9 -15z m156 11 c0 -5 -4 -10 -9 -10 -6 0 -13 5 -16 10 -3 6 1 10 9 10
9 0 16 -4 16 -10z"/>
<path d="M2731 8603 c-10 -26 -10 -27 4 -9 8 11 15 23 15 28 0 15 -7 8 -19
-19z"/>
<path d="M2832 8493 c-7 -10 -10 -13 -8 -7 4 7 -4 9 -22 6 -27 -5 -27 -6 13
-23 53 -24 132 -33 175 -21 34 10 33 10 -22 11 -67 1 -88 8 -88 28 0 13 -3 13
-15 3 -13 -11 -14 -10 -9 4 8 21 -8 21 -24 -1z"/>
<path d="M2898 8483 c6 -2 18 -2 25 0 6 3 1 5 -13 5 -14 0 -19 -2 -12 -5z"/>
<path d="M2660 8509 c0 -13 5 -31 10 -39 7 -11 8 -5 4 20 -8 43 -14 51 -14 19z"/>
<path d="M2252 8103 c-16 -6 -42 -57 -42 -80 1 -11 9 -3 21 20 11 21 27 41 34
44 8 3 15 9 15 14 0 10 -8 10 -28 2z"/>
<path d="M2273 8059 c-37 -11 -43 -33 -13 -51 32 -20 93 -116 86 -134 -4 -12
-2 -15 9 -10 10 4 15 -1 15 -14 0 -16 7 -19 38 -19 20 1 57 0 82 -1 94 -5 117
-1 123 20 3 14 14 20 31 20 42 0 30 17 -16 23 -24 4 -69 19 -100 34 -45 23
-55 32 -48 44 8 13 20 14 74 8 64 -8 96 -6 117 6 6 4 56 11 112 16 56 5 113
11 127 13 14 3 29 5 33 5 5 1 5 6 2 11 -3 6 -1 10 6 10 10 0 10 3 1 12 -9 9
-17 9 -34 0 -27 -14 -282 -26 -273 -13 3 5 -37 11 -87 14 -124 6 -178 5 -172
-5 3 -4 1 -8 -5 -8 -5 0 -11 4 -13 10 -5 15 -59 20 -95 9z"/>
<path d="M1448 5423 c7 -3 16 -2 19 1 4 3 -2 6 -13 5 -11 0 -14 -3 -6 -6z"/>
<path d="M1465 5290 c3 -5 8 -10 11 -10 2 0 4 5 4 10 0 6 -5 10 -11 10 -5 0
-7 -4 -4 -10z"/>
<path d="M1617 8711 c-4 -17 -3 -21 5 -13 5 5 8 16 6 23 -3 8 -7 3 -11 -10z"/>
<path d="M1382 7630 c0 -14 2 -19 5 -12 2 6 2 18 0 25 -3 6 -5 1 -5 -13z"/>
<path d="M1372 7555 c0 -16 2 -22 5 -12 2 9 2 23 0 30 -3 6 -5 -1 -5 -18z"/>
<path d="M1380 7510 c0 -5 5 -10 11 -10 5 0 7 5 4 10 -3 6 -8 10 -11 10 -2 0
-4 -4 -4 -10z"/>
<path d="M1460 7226 c0 -2 8 -10 18 -17 15 -13 16 -12 3 4 -13 16 -21 21 -21
13z"/>
<path d="M3220 7113 c0 -5 14 -17 30 -26 17 -10 30 -16 30 -13 0 2 -13 14 -30
26 -16 12 -30 18 -30 13z"/>
<path d="M2118 6823 c7 -3 16 -2 19 1 4 3 -2 6 -13 5 -11 0 -14 -3 -6 -6z"/>
<path d="M2138 6803 c7 -3 16 -2 19 1 4 3 -2 6 -13 5 -11 0 -14 -3 -6 -6z"/>
<path d="M2011 6774 c0 -11 3 -14 6 -6 3 7 2 16 -1 19 -3 4 -6 -2 -5 -13z"/>
<path d="M1972 6750 c0 -14 2 -19 5 -12 2 6 2 18 0 25 -3 6 -5 1 -5 -13z"/>
<path d="M1982 6700 c0 -14 2 -19 5 -12 2 6 2 18 0 25 -3 6 -5 1 -5 -13z"/>
<path d="M4516 6667 c3 -10 9 -15 12 -12 3 3 0 11 -7 18 -10 9 -11 8 -5 -6z"/>
<path d="M1981 6654 c0 -11 3 -14 6 -6 3 7 2 16 -1 19 -3 4 -6 -2 -5 -13z"/>
<path d="M1998 6535 c26 -50 62 -103 62 -92 0 5 -8 21 -19 35 -10 15 -21 37
-25 49 -4 11 -14 27 -23 35 -12 10 -11 3 5 -27z"/>
<path d="M2101 6351 c-7 -5 -9 -10 -5 -13 18 -8 124 -10 124 -1 0 4 -15 9 -32
9 -18 0 -42 4 -53 7 -11 4 -26 3 -34 -2z"/>
<path d="M2398 6353 c23 -2 59 -2 80 0 20 2 1 4 -43 4 -44 0 -61 -2 -37 -4z"/>
<path d="M2710 6351 c0 -8 -63 -11 -197 -11 -108 0 -194 -2 -192 -4 2 -2 112
-6 243 -9 200 -5 237 -4 225 8 -19 18 -79 30 -79 16z"/>
<path d="M1956 6342 c-2 -4 4 -8 15 -8 10 0 19 4 19 8 0 4 -6 8 -14 8 -8 0
-17 -4 -20 -8z"/>
<path d="M2236 6339 c6 -11 44 -12 44 -1 0 4 -11 8 -25 8 -14 1 -22 -2 -19 -7z"/>
<path d="M1903 6322 c-3 -12 -9 -22 -13 -22 -15 0 -40 -94 -45 -165 -2 -39 -7
-131 -10 -205 -7 -188 -12 -255 -37 -490 l-21 -204 24 -16 c13 -8 36 -28 51
-44 26 -27 28 -28 28 -7 0 11 -4 21 -10 21 -6 0 -9 23 -8 53 l1 52 6 -50 c6
-49 6 -48 14 33 4 46 4 88 0 95 -6 10 -6 28 1 104 4 37 16 39 16 3 0 -18 2
-31 4 -29 7 8 21 193 20 269 -1 51 1 65 6 45 7 -27 8 -25 11 20 2 28 4 82 4
120 1 39 6 113 12 165 20 165 23 209 13 215 -5 3 -11 -12 -13 -32 -3 -32 -4
-30 -5 14 -2 58 -17 79 -20 30 -2 -18 -7 -48 -12 -67 -5 -19 -10 -52 -12 -72
-1 -21 -6 -38 -10 -38 -4 0 -5 12 -3 28 14 78 25 186 20 191 -3 3 -8 -5 -12
-17z m44 -224 c-2 -13 -4 -5 -4 17 -1 22 1 32 4 23 2 -10 2 -28 0 -40z m-40
-50 c2 -17 0 -19 -7 -8 -5 8 -6 18 -4 22 8 12 10 10 11 -14z m-12 -28 c3 -5 1
-10 -4 -10 -6 0 -11 5 -11 10 0 6 2 10 4 10 3 0 8 -4 11 -10z m5 -46 c0 -8 -5
-12 -10 -9 -6 4 -8 11 -5 16 9 14 15 11 15 -7z m37 -121 c-3 -10 -5 -4 -5 12
0 17 2 24 5 18 2 -7 2 -21 0 -30z m-53 -28 c3 -8 1 -15 -4 -15 -6 0 -10 7 -10
15 0 8 2 15 4 15 2 0 6 -7 10 -15z m3 -53 c0 -10 -7 -19 -13 -19 -9 0 -10 5
-3 19 5 10 12 18 14 18 2 0 3 -8 2 -18z m-14 -57 c4 -8 2 -17 -3 -20 -6 -4
-10 3 -10 14 0 25 6 27 13 6z m14 -172 c-3 -10 -5 -4 -5 12 0 17 2 24 5 18 2
-7 2 -21 0 -30z m-10 -220 c-3 -10 -5 -4 -5 12 0 17 2 24 5 18 2 -7 2 -21 0
-30z m-47 -83 c0 -5 -4 -10 -10 -10 -5 0 -10 5 -10 10 0 6 5 10 10 10 6 0 10
-4 10 -10z"/>
<path d="M4650 6231 c0 -6 4 -13 10 -16 6 -3 7 1 4 9 -7 18 -14 21 -14 7z"/>
<path d="M2230 6220 c0 -5 5 -10 11 -10 5 0 7 5 4 10 -3 6 -8 10 -11 10 -2 0
-4 -4 -4 -10z"/>
<path d="M1982 6200 c0 -14 2 -19 5 -12 2 6 2 18 0 25 -3 6 -5 1 -5 -13z"/>
<path d="M2227 6183 c-11 -10 -8 -53 3 -53 6 0 11 60 4 60 0 0 -4 -3 -7 -7z"/>
<path d="M598 6153 c6 -2 18 -2 25 0 6 3 1 5 -13 5 -14 0 -19 -2 -12 -5z"/>
<path d="M4665 6119 c4 -24 14 -57 22 -73 11 -21 15 -59 14 -132 0 -65 7 -137
19 -200 25 -123 27 -135 46 -209 8 -33 16 -66 16 -72 1 -7 5 -13 9 -13 5 0 6
-7 3 -15 -4 -8 -2 -15 3 -15 5 0 7 -16 5 -35 -5 -43 0 -44 28 -5 15 21 19 35
12 43 -5 7 -12 21 -16 32 -6 17 -4 16 19 -5 16 -15 23 -30 19 -40 -13 -33 -10
-71 8 -90 23 -25 25 -25 38 0 8 15 7 33 -4 70 -8 28 -13 57 -10 65 3 8 -2 37
-11 64 -9 28 -15 65 -13 83 l3 33 37 -38 c21 -21 43 -56 49 -77 7 -22 14 -38
17 -36 2 3 0 19 -6 35 -14 38 -7 40 12 4 8 -16 15 -22 16 -15 0 25 -39 87 -79
126 -22 22 -46 56 -52 75 -16 51 -71 172 -76 167 -3 -2 2 -17 10 -33 27 -52
30 -81 4 -38 -28 48 -45 111 -41 150 2 16 -1 36 -7 44 -8 13 -9 12 -4 -5 4
-14 0 -24 -9 -27 -10 -4 -13 -1 -10 8 3 8 -1 39 -10 69 -9 30 -14 60 -11 68 3
7 -2 22 -10 33 -15 19 -16 19 -5 -3 7 -13 9 -26 6 -29 -7 -7 -18 22 -20 50 -1
11 -7 22 -15 25 -10 3 -12 -5 -6 -39z m128 -349 c3 -11 3 -20 1 -20 -2 0 -8 9
-14 20 -6 11 -7 20 -2 20 6 0 12 -9 15 -20z m54 -92 c-3 -8 -6 -5 -6 6 -1 11
2 17 5 13 3 -3 4 -12 1 -19z m13 -97 c0 -17 -18 -21 -24 -6 -3 9 0 15 9 15 8
0 15 -4 15 -9z m20 -247 c0 -19 -4 -33 -8 -30 -8 5 -4 66 4 66 2 0 4 -16 4
-36z"/>
<path d="M4720 6121 c5 -11 15 -23 21 -27 6 -3 3 5 -6 20 -20 30 -30 35 -15 7z"/>
<path d="M2227 6043 c-3 -5 -1 -17 4 -28 4 -11 8 -14 8 -7 1 6 13 12 29 12
l27 1 -25 14 c-29 16 -37 18 -43 8z"/>
<path d="M2310 6020 c8 -5 26 -9 40 -9 23 0 23 1 5 9 -11 5 -29 9 -40 9 -17 1
-17 -1 -5 -9z"/>
<path d="M1952 5940 c0 -14 2 -19 5 -12 2 6 2 18 0 25 -3 6 -5 1 -5 -13z"/>
<path d="M2200 5806 c0 -2 7 -6 15 -10 8 -3 15 -1 15 4 0 6 -7 10 -15 10 -8 0
-15 -2 -15 -4z"/>
<path d="M2240 5800 c0 -5 5 -10 10 -10 6 0 10 5 10 10 0 6 -4 10 -10 10 -5 0
-10 -4 -10 -10z"/>
<path d="M2280 5800 c0 -5 12 -10 26 -10 14 0 23 4 19 10 -3 6 -15 10 -26 10
-10 0 -19 -4 -19 -10z"/>
<path d="M452 5640 c0 -14 2 -19 5 -12 2 6 2 18 0 25 -3 6 -5 1 -5 -13z"/>
<path d="M4897 5535 c3 -22 7 -42 9 -44 8 -9 2 45 -6 64 -7 14 -8 8 -3 -20z"/>
<path d="M420 5519 c0 -5 5 -7 10 -4 6 3 10 8 10 11 0 2 -4 4 -10 4 -5 0 -10
-5 -10 -11z"/>
<path d="M443 5496 c0 -8 6 -12 14 -9 7 3 10 9 7 14 -8 14 -21 11 -21 -5z"/>
<path d="M447 5466 c-14 -11 -15 -15 -4 -19 7 -3 19 4 25 14 14 22 5 24 -21 5z"/>
<path d="M483 5463 c-15 -5 -17 -23 -4 -23 5 0 11 7 15 15 3 8 4 15 3 14 -1 0
-8 -3 -14 -6z"/>
<path d="M1942 5440 c0 -14 2 -19 5 -12 2 6 2 18 0 25 -3 6 -5 1 -5 -13z"/>
<path d="M497 5437 c-3 -9 1 -21 9 -27 11 -10 14 -10 14 1 0 8 -4 20 -9 27 -7
11 -9 11 -14 -1z"/>
<path d="M4996 5437 c3 -10 9 -15 12 -12 3 3 0 11 -7 18 -10 9 -11 8 -5 -6z"/>
<path d="M1892 5410 c0 -19 2 -27 5 -17 2 9 2 25 0 35 -3 9 -5 1 -5 -18z"/>
<path d="M5002 5380 c0 -19 2 -27 5 -17 2 9 2 25 0 35 -3 9 -5 1 -5 -18z"/>
<path d="M2137 5374 c-4 -4 -7 -12 -7 -18 0 -6 4 -5 9 3 7 11 18 11 67 -2 33
-8 63 -12 69 -9 11 7 -21 16 -86 26 -25 4 -48 3 -52 0z"/>
<path d="M3807 5300 c-20 -27 -37 -53 -37 -57 0 -3 18 18 40 47 22 29 40 55
40 57 0 8 -9 -1 -43 -47z"/>
<path d="M4981 5324 c0 -11 3 -14 6 -6 3 7 2 16 -1 19 -3 4 -6 -2 -5 -13z"/>
<path d="M1400 5289 c0 -5 5 -7 10 -4 6 3 10 8 10 11 0 2 -4 4 -10 4 -5 0 -10
-5 -10 -11z"/>
<path d="M4967 5269 c-4 -15 -23 -51 -43 -80 -20 -30 -27 -46 -16 -36 26 23
75 114 69 130 -2 6 -7 0 -10 -14z"/>
<path d="M405 5250 c3 -5 8 -10 11 -10 2 0 4 5 4 10 0 6 -5 10 -11 10 -5 0 -7
-4 -4 -10z"/>
<path d="M1480 5249 c0 -5 5 -7 10 -4 6 3 10 8 10 11 0 2 -4 4 -10 4 -5 0 -10
-5 -10 -11z"/>
<path d="M2110 5208 c0 -4 10 -9 23 -9 41 -3 52 -5 70 -13 17 -8 54 0 45 9 -9
10 -138 22 -138 13z"/>
<path d="M1185 5119 c-4 -6 -5 -12 -2 -15 2 -3 7 2 10 11 7 17 1 20 -8 4z"/>
<path d="M753 5087 c6 -15 3 -17 -12 -12 -11 3 -22 1 -26 -4 -4 -7 1 -8 11 -4
12 5 15 3 9 -6 -6 -10 -3 -11 16 -1 19 11 24 10 34 -4 14 -19 29 -22 19 -3 -6
10 -4 10 7 0 7 -7 21 -13 30 -13 10 0 29 -15 43 -32 15 -18 31 -38 36 -45 6
-7 10 -17 10 -23 0 -5 5 -10 10 -10 6 0 10 -5 10 -12 0 -7 16 -29 36 -49 31
-32 34 -40 25 -58 -8 -15 -8 -21 -1 -21 7 0 7 -6 0 -21 -7 -11 -9 -27 -6 -35
4 -9 2 -12 -5 -8 -8 4 -9 -3 -4 -26 5 -23 3 -35 -6 -41 -12 -8 -11 -11 1 -19
8 -5 11 -10 5 -10 -5 0 11 -10 35 -23 28 -14 44 -28 42 -37 -2 -8 -1 -12 3 -8
10 9 66 -12 59 -23 -3 -5 7 -14 23 -20 19 -7 24 -12 14 -18 -8 -6 -2 -11 21
-15 29 -7 30 -9 13 -16 -18 -7 -19 -8 -2 -15 9 -4 17 -14 17 -22 0 -8 4 -11
10 -8 5 3 10 2 10 -2 0 -5 17 -7 38 -5 29 3 34 1 26 -8 -7 -7 -24 -13 -38 -13
-14 -1 -26 -6 -26 -11 0 -4 -9 -6 -19 -3 -14 3 -18 1 -14 -9 6 -17 3 -18 63 6
57 23 74 25 64 9 -4 -8 3 -10 22 -7 16 3 24 3 17 1 -7 -2 -9 -11 -6 -19 4 -11
9 -12 18 -4 7 6 26 12 41 14 16 2 41 7 56 11 24 6 28 4 38 -32 6 -21 15 -58
19 -83 6 -29 9 -36 11 -20 1 23 2 23 10 5 8 -18 9 -17 9 7 1 24 21 53 21 30 0
-16 60 0 74 19 12 17 15 18 26 4 12 -14 15 -14 32 2 19 17 21 17 32 1 12 -16
14 -15 27 10 l13 27 4 -28 c3 -28 4 -28 23 -11 18 16 19 16 19 0 0 -16 1 -16
16 -2 20 20 22 20 20 -1 0 -10 6 -18 14 -18 10 0 14 8 12 25 -1 19 0 22 8 10
5 -8 7 -23 4 -32 -4 -13 -1 -16 11 -12 13 5 15 2 9 -20 -4 -18 -2 -26 7 -26 7
0 10 -3 6 -6 -3 -3 -19 1 -36 9 -31 16 -41 11 -53 -23 -4 -11 -21 -17 -49 -19
-24 -1 -51 -9 -60 -17 -15 -14 -18 -14 -28 3 -8 15 -13 16 -30 6 -24 -15 -57
-17 -66 -4 -9 15 -46 9 -40 -7 3 -7 5 -16 5 -18 0 -3 5 -2 12 2 7 4 8 3 4 -5
-4 -6 -11 -9 -16 -6 -12 8 -21 -24 -14 -53 7 -27 34 -68 74 -110 22 -24 49
-26 92 -7 16 6 16 5 2 -24 -19 -39 -23 -41 -76 -41 -85 0 -81 -1 -56 21 13 11
17 18 10 14 -7 -3 -45 -8 -85 -10 -49 -2 -62 -1 -42 5 17 4 50 9 75 10 37 2
41 3 20 10 -31 9 -192 2 -245 -12 -56 -14 -92 -38 -74 -49 8 -5 28 -9 44 -10
31 -1 28 -3 -17 -13 -20 -5 -28 -13 -28 -27 0 -11 -4 -17 -10 -14 -5 3 -10 1
-10 -5 0 -6 10 -10 22 -8 11 2 23 -3 26 -11 3 -8 0 -11 -7 -7 -6 4 -14 1 -17
-7 -14 -38 -92 -17 -113 30 -10 23 -31 32 -31 14 0 -5 -9 -7 -21 -4 -15 4 -17
8 -8 14 7 4 17 5 22 2 5 -3 7 0 5 8 -3 9 -18 13 -37 12 -30 -1 -31 0 -14 13
17 14 16 15 -7 9 -24 -6 -25 -6 -5 10 14 12 16 16 5 15 -8 -1 -28 -2 -45 0
-26 1 -27 3 -10 10 11 5 14 9 8 9 -7 1 -13 7 -13 15 0 9 -7 12 -21 9 -16 -5
-18 -8 -7 -15 11 -8 10 -9 -1 -6 -8 2 -15 11 -17 20 -1 11 3 15 14 11 14 -4
14 -3 3 5 -8 6 -22 9 -32 7 -10 -2 -22 1 -25 7 -5 7 -2 8 7 3 12 -8 12 -6 0 8
-7 9 -19 17 -25 17 -7 0 -6 -4 2 -9 10 -6 9 -10 -7 -14 -12 -3 -19 -2 -17 1
10 17 -20 27 -44 15 -16 -8 -19 -13 -10 -14 8 -1 -5 -5 -30 -9 -61 -10 -84 7
-39 29 24 11 34 12 37 3 3 -9 11 -8 33 4 17 8 38 13 47 10 9 -3 24 -1 32 4 16
10 -62 6 -95 -5 -20 -7 -20 -6 -1 9 25 20 18 20 -23 0 -24 -12 -36 -13 -44 -5
-7 7 -6 12 6 16 9 4 13 13 11 20 -3 8 -11 12 -18 9 -27 -10 -92 -10 -110 0
-14 8 -20 8 -23 -2 -4 -10 -8 -9 -18 5 -11 14 -15 15 -28 4 -26 -21 -207 12
-207 39 0 5 -9 19 -20 30 -11 11 -20 16 -20 11 0 -5 7 -14 15 -21 8 -7 15 -18
15 -25 0 -8 6 -16 13 -19 6 -4 1 -4 -13 -2 l-25 5 25 -19 c40 -30 15 -35 -27
-5 l-38 28 35 -31 c64 -58 65 -58 57 -39 -3 9 -2 19 3 22 4 3 11 -1 13 -7 4
-10 6 -9 6 1 1 8 -7 20 -17 28 -16 14 -16 14 1 9 26 -8 255 -45 301 -48 42 -3
65 -29 24 -27 -22 0 -22 1 -3 9 14 6 5 9 -35 9 -41 0 -50 -3 -35 -10 14 -6 5
-7 -29 -3 -27 3 -52 7 -55 8 -3 2 -37 6 -76 9 -74 6 -54 -4 39 -20 51 -8 77
-34 34 -32 -22 0 -22 1 -3 9 18 8 17 9 -8 9 -19 1 -26 -3 -21 -10 5 -8 0 -10
-17 -6 -13 3 -42 8 -64 11 -38 6 -38 5 -10 -5 17 -6 37 -13 45 -16 8 -4 18 -5
23 -5 4 1 7 -4 7 -11 0 -8 -17 -11 -57 -10 l-58 2 45 -12 c25 -7 46 -18 47
-24 3 -12 -16 -14 -27 -3 -3 3 -21 3 -40 0 l-35 -6 48 -8 c26 -5 47 -12 47
-17 0 -4 12 -10 28 -12 15 -2 -4 -3 -43 -1 l-70 3 40 -13 c22 -7 48 -12 58
-10 10 2 15 -1 11 -8 -4 -6 -30 -9 -66 -6 -91 7 -42 -15 55 -25 9 -1 17 -7 17
-13 0 -7 -8 -11 -17 -9 -10 2 -18 4 -18 5 0 1 -16 3 -35 4 -19 2 -44 6 -55 10
-13 5 -11 2 5 -8 14 -8 36 -16 50 -16 14 -1 34 -5 45 -10 15 -7 9 -8 -20 -5
l-40 5 35 -14 c19 -8 51 -15 70 -16 19 -1 44 -5 55 -10 12 -5 -5 -6 -46 -5
-62 3 -66 2 -62 -16 3 -10 12 -20 19 -20 80 -7 110 -13 145 -27 15 -6 36 -8
47 -5 24 6 40 -16 21 -28 -8 -5 -22 -6 -31 -3 -10 3 -18 1 -18 -3 0 -5 -38 -5
-84 -1 -86 7 -149 30 -193 70 l-22 20 -31 -58 c-17 -33 -48 -89 -70 -127 -37
-64 -38 -68 -19 -78 22 -11 41 -4 37 14 -3 15 20 57 31 57 20 0 41 -378 22
-389 -6 -4 -9 -15 -5 -25 5 -14 9 -15 16 -4 6 9 7 6 3 -9 -3 -13 0 -35 8 -50
9 -16 25 -57 37 -93 12 -36 26 -69 30 -75 4 -5 13 -31 20 -57 7 -27 17 -48 23
-48 6 0 8 -2 5 -5 -11 -11 112 -142 159 -170 18 -10 29 -23 26 -28 -3 -6 -1
-7 4 -4 6 4 32 -5 57 -19 44 -25 62 -42 31 -30 -22 8 -18 -2 6 -15 17 -9 20
-8 14 2 -6 9 -2 11 14 6 17 -4 21 -2 17 11 -19 62 -25 122 -25 227 0 118 11
186 38 235 8 14 13 25 12 25 -1 0 3 14 9 30 40 105 84 302 108 485 7 53 8 41
6 -70 -2 -120 -1 -132 11 -110 17 29 19 22 5 -15 -7 -17 -7 -24 0 -20 6 3 11
0 11 -7 1 -7 5 3 10 22 6 28 7 23 5 -25 l-4 -60 14 50 c12 47 13 48 11 13 -1
-20 2 -40 6 -44 4 -4 7 8 8 27 1 32 2 32 9 9 8 -25 8 -25 10 5 l3 30 7 -35 c4
-19 8 -27 9 -18 0 9 7 20 14 24 6 4 9 4 5 -1 -4 -4 -2 -15 5 -23 6 -9 8 -13 2
-10 -5 3 -17 -1 -25 -10 -13 -14 -12 -15 4 -9 10 4 26 7 35 7 10 0 24 11 31
25 12 23 14 23 26 7 13 -16 13 -16 14 2 0 11 3 16 7 13 10 -11 33 14 33 36 0
11 9 28 21 38 11 10 18 23 14 29 -3 6 -3 10 2 9 27 -5 43 5 57 36 9 19 22 35
28 35 5 0 7 7 4 16 -3 8 -2 12 4 9 5 -3 31 13 57 37 25 24 43 37 39 31 -4 -7
-2 -13 3 -13 6 0 11 -4 11 -10 0 -5 -7 -7 -15 -4 -22 9 -18 -9 5 -26 15 -11
17 -17 7 -29 -10 -12 -9 -13 1 -7 7 4 17 18 21 30 8 19 9 18 15 -11 7 -30 11
-33 47 -33 30 0 39 -4 40 -17 0 -15 2 -15 9 2 7 17 9 17 9 3 1 -10 8 -18 17
-18 9 0 14 -6 11 -13 -3 -9 6 -14 29 -15 19 -2 44 -7 56 -13 l23 -10 -23 5
c-12 2 -20 1 -17 -4 3 -4 16 -10 30 -12 18 -4 25 -1 26 11 1 9 5 5 9 -9 5 -15
8 -18 9 -8 1 11 7 15 20 11 13 -3 18 -11 14 -21 -4 -10 -3 -14 2 -10 4 4 15 2
23 -5 10 -7 13 -8 9 -1 -4 7 2 14 13 17 11 3 18 1 14 -4 -3 -5 0 -9 5 -9 6 0
11 -8 12 -17 0 -15 2 -15 9 2 8 18 9 18 10 -5 l2 -25 7 25 8 25 5 -25 c5 -23
5 -23 7 -2 0 12 6 22 12 22 5 0 7 -4 4 -10 -3 -5 -1 -10 4 -10 6 0 11 6 12 13
1 6 5 1 9 -13 6 -19 8 -20 9 -6 1 16 3 17 18 5 15 -12 16 -12 10 4 -4 11 -3
16 3 12 6 -3 10 -14 11 -23 0 -14 2 -13 9 3 5 11 9 14 9 6 1 -8 8 -11 21 -8
11 3 20 2 20 -3 0 -4 9 -10 20 -13 11 -3 18 -1 14 4 -3 5 0 9 5 9 6 0 11 -8
12 -17 0 -15 2 -15 9 2 7 17 9 14 10 -15 1 -27 3 -31 9 -16 5 14 10 16 15 8 4
-7 22 -12 39 -13 18 0 26 -3 20 -6 -7 -2 -13 -12 -12 -21 0 -11 2 -12 6 -4 5
13 24 17 22 5 -3 -21 3 -32 22 -38 16 -6 19 -12 14 -32 -5 -22 -3 -25 14 -20
12 3 24 1 27 -4 3 -5 0 -9 -5 -9 -6 0 -3 -9 7 -20 9 -11 18 -16 20 -10 2 5 8
10 14 10 5 0 7 -8 3 -19 -4 -15 -1 -18 20 -16 14 2 25 -1 25 -6 0 -5 7 -9 15
-9 8 0 15 5 15 10 0 14 27 12 33 -2 4 -10 8 -10 16 2 5 8 7 18 5 22 -3 4 3 8
13 9 10 0 13 3 6 6 -7 2 -13 9 -13 14 0 6 4 8 9 4 5 -3 12 5 14 17 l4 23 2
-23 c1 -19 3 -21 15 -10 10 9 11 15 2 20 -7 5 -5 8 7 8 9 0 17 7 17 15 0 8 8
15 18 15 11 0 29 9 41 20 18 15 32 18 62 14 31 -5 39 -3 39 10 0 9 5 16 10 16
6 0 15 10 20 23 5 12 9 16 9 10 1 -16 31 -17 31 -2 0 5 5 7 10 4 6 -3 10 0 11
7 0 7 4 4 9 -7 7 -18 8 -18 15 -3 5 14 11 15 26 7 15 -7 19 -6 19 6 0 8 4 15
10 15 5 0 7 -7 3 -16 -5 -14 -3 -15 15 -5 15 8 22 8 22 1 0 -8 6 -8 20 0 11 6
20 7 20 3 0 -4 5 -1 10 7 6 10 10 11 10 3 0 -7 9 -13 20 -13 11 0 20 -3 20 -7
0 -5 19 -8 42 -9 l42 0 -29 12 -30 13 36 -2 c30 -2 36 -6 33 -20 -2 -14 1 -17
16 -12 10 3 21 1 25 -5 10 -17 23 -11 28 13 l4 22 2 -23 c0 -14 5 -21 12 -16
6 3 16 0 21 -7 7 -10 8 -8 4 7 -4 14 -2 21 7 21 9 0 13 -8 10 -21 -4 -17 -3
-18 6 -6 10 14 12 13 15 -9 3 -25 16 -21 17 5 2 28 2 28 9 -6 4 -19 8 -27 9
-17 1 20 27 23 34 5 3 -7 6 -4 6 7 1 17 3 18 11 5 9 -13 12 -12 25 4 8 11 15
15 15 9 0 -17 64 -10 72 7 5 11 7 8 8 -10 l2 -25 8 25 c8 25 8 25 10 -5 l2
-30 8 30 c4 17 8 22 9 13 1 -12 6 -15 17 -11 13 5 13 7 2 14 -10 7 -11 9 0 9
7 0 11 4 7 10 -3 5 -13 7 -23 4 -14 -5 -14 -4 -3 4 10 7 21 7 33 1 12 -6 18
-6 18 1 0 5 5 10 11 10 5 0 8 -4 4 -9 -3 -5 -1 -13 5 -16 6 -4 10 -3 9 2 -3
18 2 28 9 17 10 -16 52 -28 52 -15 0 6 7 11 15 11 9 0 18 7 22 16 5 13 7 13
14 2 7 -10 9 -10 9 0 0 6 9 12 20 12 11 0 20 -3 20 -7 0 -5 19 -9 43 -10 33
-1 37 0 17 6 -25 8 98 5 195 -5 l51 -5 12 -62 c9 -49 52 -192 88 -297 7 -19
29 17 44 74 15 51 21 42 9 -12 -17 -76 -13 -183 8 -257 23 -79 69 -329 77
-420 3 -33 12 -157 21 -275 13 -188 30 -365 53 -575 l7 -59 40 -9 c44 -9 180
-6 191 5 3 4 -5 56 -19 115 -23 97 -47 228 -61 338 -3 22 -9 135 -12 251 l-7
211 24 32 c22 29 24 42 23 124 -2 94 -12 175 -39 327 -12 65 -14 117 -9 220 4
91 2 149 -5 178 -7 24 -14 56 -16 72 -2 16 -7 35 -11 41 -4 7 -3 9 4 6 5 -4
17 -4 26 -1 13 5 15 16 10 53 -3 25 -1 59 5 75 7 16 10 30 9 32 -2 1 -25 -2
-53 -7 -27 -5 -57 -6 -65 -2 -8 4 -44 8 -80 9 -224 5 -430 32 -430 56 0 4 -7
8 -16 8 -8 0 -13 4 -10 8 2 4 1 14 -5 22 -7 13 -9 13 -9 1 0 -12 -3 -12 -17 1
-10 8 -33 21 -51 28 -34 13 -56 34 -25 24 13 -5 12 -2 -5 10 -12 10 -26 15
-30 12 -5 -3 -14 3 -22 14 -7 10 -20 16 -29 14 -9 -2 -2 2 14 10 l30 15 -26 1
c-19 0 -26 5 -25 16 0 10 -8 18 -19 20 -11 2 -40 6 -65 9 -74 10 -60 17 22 11
42 -4 79 -3 81 1 5 8 -1 9 -85 13 -34 2 -48 7 -48 17 0 8 -5 11 -11 7 -13 -8
-189 17 -189 27 0 4 -18 10 -40 14 -22 4 -42 10 -45 15 -6 9 56 -5 90 -20 28
-12 225 -22 204 -10 -16 9 -59 16 -160 25 -25 2 -83 18 -129 35 -90 33 -115
34 -53 1 50 -26 29 -27 -30 -1 -42 19 -79 48 -43 34 10 -4 31 9 55 33 52 50
88 150 117 323 10 57 14 272 6 285 -4 6 -7 17 -7 25 0 24 -92 80 -129 79 -30
-1 -30 -1 10 -12 54 -16 69 -32 93 -107 25 -74 27 -163 6 -213 -8 -19 -11 -37
-8 -41 4 -3 1 -6 -6 -6 -7 0 -10 -4 -6 -9 3 -5 -2 -16 -10 -24 -8 -9 -15 -22
-15 -29 -1 -21 -49 -70 -62 -62 -7 4 -8 3 -4 -4 4 -7 1 -12 -8 -12 -9 0 -16 7
-16 15 0 8 -4 15 -10 15 -5 0 -10 -4 -10 -10 0 -12 -62 -1 -71 13 -4 5 -16 6
-28 2 -13 -4 -21 -2 -21 5 0 6 -8 9 -18 6 -13 -4 -22 1 -32 18 -7 14 -18 22
-26 19 -14 -5 -60 12 -117 44 -16 8 -31 12 -34 9 -3 -3 -11 1 -17 8 -6 8 -27
16 -46 18 -19 1 -41 10 -48 18 -12 13 -13 13 -7 0 4 -10 2 -9 -8 2 -8 10 -17
15 -20 11 -4 -3 -10 2 -13 11 -5 14 -9 15 -16 4 -7 -10 -11 -9 -19 6 -9 15
-13 16 -20 5 -8 -12 -11 -12 -19 1 -5 8 -10 11 -10 7 0 -5 -7 -1 -16 7 -8 9
-20 14 -25 10 -5 -3 -12 1 -15 9 -2 7 -18 14 -34 14 -16 0 -36 6 -45 13 -9 8
-24 15 -33 16 -10 1 -30 7 -47 13 -78 28 -157 51 -175 51 -11 0 -20 4 -20 8 0
15 -116 42 -179 42 -35 0 -100 -7 -145 -15 -45 -9 -103 -20 -131 -25 -125 -23
-450 -19 -377 5 24 8 31 45 8 45 -8 0 -23 15 -35 33 -11 17 -36 48 -55 66 -40
39 -46 65 -17 80 21 12 34 48 20 57 -6 3 -9 15 -7 27 2 17 -6 27 -38 42 -22
11 -54 35 -70 53 -20 23 -34 31 -46 27 -10 -4 -15 -12 -11 -18 3 -5 1 -7 -5
-3 -6 3 -14 1 -18 -5 -5 -9 -11 -7 -21 6 -15 22 -17 12 -3 -15 7 -13 7 -21 -2
-26 -6 -4 -8 -3 -5 3 4 6 0 13 -8 17 -8 3 -17 0 -21 -6 -4 -6 -3 -8 3 -5 5 3
10 0 10 -7 0 -8 -7 -12 -14 -9 -8 3 -12 14 -10 24 3 10 -1 20 -9 23 -8 3 -14
10 -14 16 0 22 -72 83 -123 105 -32 13 -36 13 -31 0 8 -20 -11 -19 -32 3 -17
16 -18 16 -11 -1z m347 -311 c0 -3 -4 -8 -10 -11 -5 -3 -10 -1 -10 4 0 6 5 11
10 11 6 0 10 -2 10 -4z m1326 -632 c104 -42 332 -155 442 -218 80 -46 106 -71
169 -159 36 -51 66 -67 265 -141 54 -20 105 -36 113 -36 10 0 13 -5 9 -12 -5
-8 -2 -9 9 -5 9 3 19 2 22 -3 4 -6 25 -10 48 -11 68 -1 13 -17 -61 -18 -108
-2 -639 41 -1280 103 -295 28 -288 25 -272 138 6 39 12 74 14 76 3 2 13 -1 24
-7 28 -15 124 -15 99 0 -10 6 -25 8 -34 5 -23 -9 -93 12 -89 27 3 6 10 47 17
90 6 43 15 73 19 67 4 -6 11 -1 17 13 9 19 29 28 114 50 239 62 289 68 355 41z
m-1789 -131 c-3 -5 6 -9 19 -9 13 -1 21 2 18 7 -3 5 2 9 10 9 9 0 16 -7 16
-15 0 -13 -11 -15 -57 -13 -34 2 -58 8 -61 16 -2 8 7 12 28 12 17 0 29 -3 27
-7z m230 0 c-4 -3 -2 -12 5 -20 6 -8 7 -13 2 -12 -21 4 -34 -2 -34 -16 0 -8
-4 -15 -9 -15 -5 0 -17 -3 -27 -7 -12 -4 -15 -3 -10 5 9 14 9 14 -31 3 -18 -5
-35 -6 -38 -1 -3 4 -32 6 -64 3 -45 -4 -64 -2 -82 11 -23 16 -20 17 71 15 52
0 107 2 122 6 21 5 29 3 34 -9 3 -9 11 -16 16 -16 6 0 8 7 4 15 -3 9 0 15 9
15 8 0 15 7 15 15 0 8 5 15 12 15 6 0 8 -3 5 -7z m-324 -50 c-7 -2 -19 -2 -25
0 -7 3 -2 5 12 5 14 0 19 -2 13 -5z m337 -3 c0 -5 -7 -7 -15 -4 -8 4 -15 8
-15 10 0 2 7 4 15 4 8 0 15 -4 15 -10z m34 -19 c-10 -10 -23 -16 -28 -13 -5 3
2 11 15 18 33 18 36 17 13 -5z m-384 -14 c21 -4 20 -4 -7 -6 -25 -1 -33 3 -33
17 0 11 3 13 8 6 4 -7 18 -14 32 -17z m900 13 c-8 -5 -19 -10 -25 -10 -5 0 -3
5 5 10 8 5 20 10 25 10 6 0 3 -5 -5 -10z m-850 -10 c0 -5 -5 -10 -11 -10 -5 0
-7 5 -4 10 3 6 8 10 11 10 2 0 4 -4 4 -10z m236 -5 c-39 -16 -172 -19 -182 -4
-5 8 11 10 60 6 36 -3 66 -2 66 1 0 4 19 8 43 8 42 1 42 1 13 -11z m524 -1
c-56 -17 -75 -17 -35 1 17 8 41 14 55 14 18 0 12 -5 -20 -15z m-725 -4 c3 -5
-1 -10 -10 -10 -9 0 -13 5 -10 10 3 6 8 10 10 10 2 0 7 -4 10 -10z m245 0 c-8
-5 -19 -10 -25 -10 -5 0 -3 5 5 10 8 5 20 10 25 10 6 0 3 -5 -5 -10z m-353
-16 c-3 -3 -12 -4 -19 -1 -8 3 -5 6 6 6 11 1 17 -2 13 -5z m426 -1 c-7 -2 -19
-2 -25 0 -7 3 -2 5 12 5 14 0 19 -2 13 -5z m-320 -10 c-7 -2 -21 -2 -30 0 -10
3 -4 5 12 5 17 0 24 -2 18 -5z m232 -8 c-16 -8 -46 -14 -65 -13 -34 0 -34 1 7
7 24 4 46 10 49 14 4 4 14 7 23 6 9 0 3 -7 -14 -14z m-182 -12 c-13 -2 -35 -2
-50 0 -16 2 -5 4 22 4 28 0 40 -2 28 -4z m234 -9 c-3 -3 -12 -4 -19 -1 -8 3
-5 6 6 6 11 1 17 -2 13 -5z m-337 -15 c0 -4 -13 -7 -29 -6 -16 1 -27 5 -25 8
6 10 54 8 54 -2z m93 -6 c-7 -2 -19 -2 -25 0 -7 3 -2 5 12 5 14 0 19 -2 13 -5z
m-112 -31 c-7 -2 -18 1 -23 6 -8 8 -4 9 13 5 13 -4 18 -8 10 -11z m276 12 c-3
-3 -12 -4 -19 -1 -8 3 -5 6 6 6 11 1 17 -2 13 -5z m-47 -24 c0 -5 -4 -10 -10
-10 -5 0 -10 5 -10 10 0 6 5 10 10 10 6 0 10 -4 10 -10z m2690 6 c0 -2 -7 -7
-16 -10 -8 -3 -12 -2 -9 4 6 10 25 14 25 6z m-2919 -24 c-7 -2 -18 1 -23 6 -8
8 -4 9 13 5 13 -4 18 -8 10 -11z m153 -11 c-2 -3 -12 3 -22 13 -16 17 -16 18
5 5 12 -7 20 -15 17 -18z m-184 -47 c0 -2 -7 -4 -15 -4 -8 0 -15 4 -15 10 0 5
7 7 15 4 8 -4 15 -8 15 -10z m720 -5 c0 -6 9 -8 20 -4 13 4 20 2 20 -7 0 -10
3 -9 10 2 7 11 12 12 20 4 8 -8 8 -15 -3 -25 -7 -8 -12 -20 -9 -27 2 -7 -9
-15 -28 -18 -20 -5 -27 -10 -19 -15 7 -4 -5 -10 -32 -13 -50 -7 -195 24 -192
41 1 6 -12 18 -30 27 -27 13 -28 16 -10 16 12 0 25 -5 28 -10 4 -6 12 -7 18
-3 6 4 27 6 45 4 23 -2 32 1 28 8 -4 6 -3 11 3 11 5 0 11 -6 13 -12 3 -8 9 -4
17 10 9 18 20 22 56 22 25 0 45 -5 45 -11z m-580 -19 c8 -5 11 -10 5 -10 -5 0
-17 5 -25 10 -8 5 -10 10 -5 10 6 0 17 -5 25 -10z m107 -7 c-9 -2 -15 -9 -12
-14 4 -5 -3 -9 -14 -9 -12 0 -21 5 -21 11 0 5 5 7 10 4 6 -3 10 -1 10 4 0 6
10 10 23 10 17 -1 18 -2 4 -6z m67 -12 c4 -5 -3 -7 -14 -4 -23 6 -26 13 -6 13
8 0 17 -4 20 -9z m84 -8 c-6 -8 -14 -10 -17 -5 -3 5 -15 12 -26 15 -11 2 -3 4
17 4 31 0 36 -3 26 -14z m-108 -9 c0 -2 -9 -4 -20 -4 -11 0 -20 4 -20 9 0 5 9
7 20 4 11 -3 20 -7 20 -9z m180 5 c0 -4 -6 -9 -13 -12 -8 -3 -14 0 -14 7 0 7
6 13 14 13 7 0 13 -4 13 -8z m-233 -15 c-3 -3 -12 -4 -19 -1 -8 3 -5 6 6 6 11
1 17 -2 13 -5z m-363 -39 c4 -10 -1 -15 -16 -15 -17 0 -18 2 -8 15 7 8 14 15
15 15 2 0 5 -7 9 -15z m-21 -52 c8 -7 -11 -33 -24 -33 -5 0 -9 9 -9 20 0 19
20 27 33 13z m1150 -37 c21 4 21 4 2 -5 -17 -8 -15 -9 15 -13 l35 -5 -36 -1
c-36 -2 -51 11 -48 41 1 7 3 5 6 -4 3 -11 12 -15 26 -13z m-556 -98 c-3 -7 -5
-2 -5 12 0 14 2 19 5 13 2 -7 2 -19 0 -25z m690 16 c-3 -3 -12 -4 -19 -1 -8 3
-5 6 6 6 11 1 17 -2 13 -5z m-687 -44 c0 -5 -5 -10 -11 -10 -5 0 -7 5 -4 10 3
6 8 10 11 10 2 0 4 -4 4 -10z m228 -55 c-3 -3 -9 2 -12 12 -6 14 -5 15 5 6 7
-7 10 -15 7 -18z m2719 9 c-3 -3 -12 -4 -19 -1 -8 3 -5 6 6 6 11 1 17 -2 13
-5z m-290 -10 c-3 -3 -12 -4 -19 -1 -8 3 -5 6 6 6 11 1 17 -2 13 -5z m-584
-11 c-7 -2 -19 -2 -25 0 -7 3 -2 5 12 5 14 0 19 -2 13 -5z m632 -3 c-11 -5
-29 -9 -40 -9 -17 -1 -17 1 -5 9 8 5 26 9 40 9 23 0 23 -1 5 -9z m834 -185 l0
-20 -9 20 c-5 11 -9 29 -9 40 l0 20 9 -20 c5 -11 9 -29 9 -40z m-4129 -75 c0
-5 -4 -10 -10 -10 -5 0 -10 5 -10 10 0 6 5 10 10 10 6 0 10 -4 10 -10z"/>
<path d="M623 3963 c9 -2 25 -2 35 0 9 3 1 5 -18 5 -19 0 -27 -2 -17 -5z"/>
<path d="M1030 3658 c0 -4 7 -8 15 -8 8 0 15 4 15 8 0 5 -7 9 -15 9 -8 0 -15
-4 -15 -9z"/>
<path d="M674 5065 c-4 -9 -4 -19 0 -22 3 -4 6 2 6 13 0 16 2 17 10 4 6 -9 10
-10 10 -3 0 19 -20 26 -26 8z"/>
<path d="M520 5060 c-11 -7 -11 -10 -2 -10 8 0 10 -5 6 -12 -4 -7 -3 -9 1 -5
7 6 17 37 12 37 -1 0 -9 -5 -17 -10z"/>
<path d="M1036 4973 c-6 -14 -5 -15 5 -6 7 7 10 15 7 18 -3 3 -9 -2 -12 -12z"/>
<path d="M373 4895 c0 -8 4 -12 9 -9 5 3 6 10 3 15 -9 13 -12 11 -12 -6z"/>
<path d="M350 4870 c0 -5 5 -10 11 -10 5 0 7 5 4 10 -3 6 -8 10 -11 10 -2 0
-4 -4 -4 -10z"/>
<path d="M865 4794 c-22 -7 -49 -11 -60 -9 -11 3 -14 2 -7 -1 19 -9 14 -24 -9
-24 -13 0 -18 4 -14 13 4 6 0 4 -8 -6 -15 -18 -16 -18 -36 2 -20 20 -20 20
-26 0 -4 -10 -11 -17 -16 -13 -6 3 -8 13 -5 23 5 14 4 14 -7 -1 -8 -10 -17
-16 -20 -13 -4 3 -4 2 -1 -2 3 -5 11 -8 17 -8 5 0 12 -6 15 -12 2 -7 -4 -13
-15 -13 -15 0 -16 -2 -3 -10 10 -6 16 -6 18 0 2 6 10 10 18 10 8 0 14 5 14 11
0 5 -4 7 -10 4 -6 -3 -7 1 -4 10 6 14 8 14 18 -1 9 -12 22 -15 49 -11 29 4 42
0 62 -19 21 -19 25 -32 25 -78 0 -48 4 -58 31 -85 27 -27 69 -42 69 -25 0 10
-42 44 -53 44 -16 0 -36 33 -37 61 0 14 11 47 24 72 14 25 22 48 19 51 -4 3 1
6 10 6 10 0 17 6 17 13 0 24 -13 27 -27 7 -8 -11 -19 -20 -25 -20 -7 0 -3 6 8
14 28 21 14 26 -31 10z"/>
<path d="M591 4784 c0 -11 3 -14 6 -6 3 7 2 16 -1 19 -3 4 -6 -2 -5 -13z"/>
<path d="M4181 4782 c0 -12 2 -13 6 -3 4 10 7 10 13 2 5 -9 10 -8 18 1 9 11 6
14 -14 16 -17 1 -24 -3 -23 -16z"/>
<path d="M955 4780 c3 -5 12 -7 20 -3 21 7 19 13 -6 13 -11 0 -18 -4 -14 -10z"/>
<path d="M634 4683 c3 -21 22 -28 32 -12 5 9 2 10 -11 5 -15 -5 -16 -4 -5 9
10 12 10 15 -3 15 -9 0 -14 -7 -13 -17z"/>
<path d="M610 4644 c0 -8 5 -12 10 -9 6 4 8 11 5 16 -9 14 -15 11 -15 -7z"/>
<path d="M321 4569 c-14 -6 -21 -15 -18 -23 3 -8 2 -17 -4 -20 -5 -2 -4 -3 3
-2 7 2 12 10 11 18 -2 8 9 19 25 25 15 6 23 11 17 11 -5 1 -21 -4 -34 -9z"/>
<path d="M470 4566 c0 -2 8 -10 18 -17 15 -13 16 -12 3 4 -13 16 -21 21 -21
13z"/>
<path d="M721 4553 c7 -12 15 -20 18 -17 3 2 -3 12 -13 22 -17 16 -18 16 -5
-5z"/>
<path d="M411 4543 c-6 -10 -11 -12 -11 -5 0 6 -5 12 -11 12 -5 0 -7 -4 -4
-10 3 -5 2 -10 -4 -10 -5 0 -13 5 -16 10 -3 6 -12 10 -18 9 -9 0 -9 -2 0 -6
10 -3 10 -7 0 -18 -7 -7 -15 -11 -19 -8 -5 2 -8 -1 -8 -7 0 -6 -5 -8 -12 -4
-9 6 -9 3 0 -9 8 -9 11 -22 7 -29 -4 -7 1 -4 9 6 9 11 16 23 16 27 0 4 7 9 15
12 11 5 12 1 5 -21 -9 -24 -8 -25 3 -10 8 10 17 15 21 11 10 -11 37 -12 30 -2
-3 5 -11 6 -17 2 -7 -4 -6 0 2 10 7 9 16 17 19 17 3 0 2 -3 -1 -7 -4 -3 -2
-12 5 -20 6 -7 8 -16 5 -20 -4 -3 -2 -12 4 -19 7 -9 6 -21 -5 -41 -12 -23 -16
-25 -21 -11 -8 20 2 41 16 33 15 -10 10 11 -6 25 -8 6 -20 10 -27 7 -8 -4 -7
-6 5 -6 25 -1 21 -19 -5 -23 -16 -2 -22 -9 -20 -22 2 -10 -1 -15 -6 -12 -6 3
-12 -1 -16 -9 -8 -21 17 -14 32 10 13 19 13 19 9 -3 -3 -12 -1 -20 4 -16 5 3
9 -2 9 -11 0 -11 -5 -15 -15 -12 -8 4 -17 1 -21 -6 -4 -7 -3 -9 1 -4 5 4 16 0
26 -9 14 -13 16 -21 8 -36 -6 -11 -15 -16 -22 -11 -7 4 -7 0 2 -10 12 -15 10
-18 -10 -25 -23 -9 -23 -9 -2 -20 11 -6 23 -8 27 -4 4 3 4 -1 0 -11 -3 -10 -1
-17 5 -17 6 0 11 -5 11 -11 0 -8 -4 -9 -13 0 -8 6 -17 8 -20 5 -4 -4 -19 1
-34 10 -27 17 -27 17 -8 -1 12 -10 24 -26 28 -35 3 -10 12 -18 18 -18 8 0 8 4
-1 15 -15 18 1 20 18 3 16 -16 26 -3 31 44 1 3 9 9 19 11 16 4 16 5 0 6 -14 1
-17 8 -15 34 2 17 0 40 -5 49 -8 16 -6 16 27 3 19 -8 47 -15 62 -14 22 1 18 3
-16 11 -24 5 -53 18 -64 29 -20 18 -20 18 14 15 19 -2 58 -7 87 -11 36 -5 52
-4 52 3 0 7 7 9 17 5 15 -6 16 -5 3 9 -13 13 -16 14 -23 2 -10 -17 -21 -17
-87 -3 l-50 11 4 46 c3 26 8 57 11 70 5 13 3 22 -4 22 -6 0 -8 8 -4 18 5 14 3
15 -8 5 -7 -7 -18 -13 -23 -13 -6 0 -5 4 3 9 8 5 9 11 3 15 -6 4 -15 -2 -21
-11z"/>
<path d="M710 4506 c14 -7 29 -11 34 -8 12 6 -15 22 -39 22 -17 0 -17 -2 5
-14z"/>
<path d="M265 4488 c1 -12 7 -23 14 -24 6 -1 7 0 2 2 -6 3 -8 11 -5 19 3 7 1
15 -4 19 -5 3 -8 -5 -7 -16z"/>
<path d="M477 4493 c-10 -9 -9 -23 1 -23 5 0 9 7 9 15 0 17 -1 18 -10 8z"/>
<path d="M705 4480 c-4 -6 -1 -17 5 -25 10 -13 7 -16 -19 -21 -29 -6 -34 -19
-8 -19 7 0 11 -12 11 -25 -1 -14 3 -28 9 -32 5 -3 -2 -5 -16 -5 -26 2 -39 17
-15 17 6 0 8 3 5 6 -4 4 -13 1 -21 -5 -13 -11 -12 -15 3 -30 10 -10 25 -21 32
-25 8 -3 4 -4 -8 -2 -13 2 -23 0 -23 -5 0 -5 -5 -9 -11 -9 -5 0 -7 6 -3 13 5
9 4 9 -5 1 -8 -7 -25 -9 -47 -4 -19 4 -37 4 -40 -1 -3 -5 10 -9 28 -10 18 0
51 -7 73 -14 l40 -13 -45 4 c-37 3 -40 2 -20 -6 20 -8 17 -9 -20 -5 -25 2 -72
6 -105 9 l-60 5 55 -10 c30 -5 70 -12 88 -15 18 -3 31 -8 28 -12 -2 -4 17 -6
42 -5 l47 1 -40 -7 -40 -7 35 -6 c19 -3 7 -4 -27 -1 -35 2 -71 6 -80 9 -15 5
-15 4 -3 -4 8 -6 36 -14 62 -17 26 -4 46 -11 43 -15 -3 -5 1 -11 7 -14 12 -6
-40 -3 -177 9 -40 4 -44 3 -20 -4 17 -5 60 -12 98 -16 37 -4 65 -10 63 -14 -3
-4 0 -8 7 -9 7 -1 25 -4 41 -8 18 -4 31 -2 36 5 5 9 9 8 13 -4 4 -9 3 -13 -2
-10 -5 3 -12 1 -16 -5 -4 -6 -10 -8 -14 -6 -4 3 -50 10 -102 16 -52 6 -110 12
-129 15 -25 3 -29 2 -15 -4 30 -12 202 -35 267 -36 59 0 75 6 63 25 -6 9 -10
9 -16 -1 -4 -7 -11 -11 -14 -7 -4 3 4 16 17 28 13 12 19 24 13 26 -6 2 -10 47
-10 106 0 72 -4 105 -14 115 -11 12 -10 17 5 35 11 12 13 18 7 14 -12 -6 -15
0 -12 20 1 7 -22 24 -33 24 -4 0 -10 -5 -13 -10z m-8 -186 c-3 -3 -12 -4 -19
-1 -8 3 -5 6 6 6 11 1 17 -2 13 -5z m12 -118 c10 -12 8 -13 -8 -9 -12 3 -21 9
-21 14 0 14 16 11 29 -5z"/>
<path d="M573 4463 c9 -2 23 -2 30 0 6 3 -1 5 -18 5 -16 0 -22 -2 -12 -5z"/>
<path d="M317 4413 c3 -7 6 -13 8 -13 2 0 5 6 8 13 3 8 -1 14 -8 14 -7 0 -11
-6 -8 -14z"/>
<path d="M485 4420 c11 -5 27 -9 35 -9 9 0 8 4 -5 9 -11 5 -27 9 -35 9 -9 0
-8 -4 5 -9z"/>
<path d="M588 4413 c7 -3 16 -2 19 1 4 3 -2 6 -13 5 -11 0 -14 -3 -6 -6z"/>
<path d="M540 4406 c0 -2 9 -6 20 -9 11 -3 18 -1 14 4 -5 9 -34 13 -34 5z"/>
<path d="M362 4324 c10 -10 20 -16 22 -13 3 3 -5 11 -17 18 -21 13 -21 12 -5
-5z"/>
<path d="M333 4303 c-18 -7 -16 -20 3 -27 9 -4 13 -2 8 5 -4 6 0 15 7 20 15 9
2 11 -18 2z"/>
<path d="M1288 4283 c7 -3 16 -2 19 1 4 3 -2 6 -13 5 -11 0 -14 -3 -6 -6z"/>
<path d="M290 4266 c0 -2 8 -10 18 -17 15 -13 16 -12 3 4 -13 16 -21 21 -21
13z"/>
<path d="M1305 4260 c3 -5 11 -10 16 -10 6 0 7 5 4 10 -3 6 -11 10 -16 10 -6
0 -7 -4 -4 -10z"/>
<path d="M280 4243 c0 -6 8 -17 18 -24 16 -13 16 -13 2 6 -8 11 -16 22 -17 24
-2 2 -3 0 -3 -6z"/>
<path d="M498 4243 c6 -2 18 -2 25 0 6 3 1 5 -13 5 -14 0 -19 -2 -12 -5z"/>
<path d="M340 4236 c0 -3 9 -10 20 -16 11 -6 20 -8 20 -6 0 3 -9 10 -20 16
-11 6 -20 8 -20 6z"/>
<path d="M1325 4230 c3 -5 8 -10 11 -10 2 0 4 5 4 10 0 6 -5 10 -11 10 -5 0
-7 -4 -4 -10z"/>
<path d="M1590 4229 c0 -5 5 -7 10 -4 6 3 10 8 10 11 0 2 -4 4 -10 4 -5 0 -10
-5 -10 -11z"/>
<path d="M3630 4236 c0 -2 7 -6 15 -10 8 -3 15 -1 15 4 0 6 -7 10 -15 10 -8 0
-15 -2 -15 -4z"/>
<path d="M470 4226 c0 -2 14 -6 30 -8 17 -3 30 -1 30 4 0 4 -13 8 -30 8 -16 0
-30 -2 -30 -4z"/>
<path d="M3438 4223 c7 -3 16 -2 19 1 4 3 -2 6 -13 5 -11 0 -14 -3 -6 -6z"/>
<path d="M3690 4220 c0 -5 5 -10 11 -10 5 0 7 5 4 10 -3 6 -8 10 -11 10 -2 0
-4 -4 -4 -10z"/>
<path d="M265 4210 c3 -5 8 -10 11 -10 2 0 4 5 4 10 0 6 -5 10 -11 10 -5 0 -7
-4 -4 -10z"/>
<path d="M1185 4210 c3 -5 8 -10 11 -10 2 0 4 5 4 10 0 6 -5 10 -11 10 -5 0
-7 -4 -4 -10z"/>
<path d="M548 4193 c6 -2 18 -2 25 0 6 3 1 5 -13 5 -14 0 -19 -2 -12 -5z"/>
<path d="M1418 4193 c6 -2 18 -2 25 0 6 3 1 5 -13 5 -14 0 -19 -2 -12 -5z"/>
<path d="M3548 4193 c7 -3 16 -2 19 1 4 3 -2 6 -13 5 -11 0 -14 -3 -6 -6z"/>
<path d="M603 4183 c9 -2 23 -2 30 0 6 3 -1 5 -18 5 -16 0 -22 -2 -12 -5z"/>
<path d="M1353 4183 c9 -2 25 -2 35 0 9 3 1 5 -18 5 -19 0 -27 -2 -17 -5z"/>
<path d="M1308 4173 c7 -3 16 -2 19 1 4 3 -2 6 -13 5 -11 0 -14 -3 -6 -6z"/>
<path d="M1560 4164 c0 -8 5 -12 10 -9 6 4 8 11 5 16 -9 14 -15 11 -15 -7z"/>
<path d="M3428 4173 c7 -3 16 -2 19 1 4 3 -2 6 -13 5 -11 0 -14 -3 -6 -6z"/>
<path d="M3638 4173 c6 -2 18 -2 25 0 6 3 1 5 -13 5 -14 0 -19 -2 -12 -5z"/>
<path d="M300 4161 c0 -6 4 -13 10 -16 6 -3 7 1 4 9 -7 18 -14 21 -14 7z"/>
<path d="M265 4151 c-3 -5 -1 -12 5 -16 5 -3 10 1 10 9 0 18 -6 21 -15 7z"/>
<path d="M390 4149 c0 -5 -5 -7 -12 -3 -7 4 -8 3 -4 -4 10 -17 36 -15 36 3 0
8 -4 15 -10 15 -5 0 -10 -5 -10 -11z"/>
<path d="M1366 4144 c-26 -7 -51 -16 -54 -19 -7 -6 45 3 113 21 37 9 42 13 20
12 -16 0 -52 -6 -79 -14z"/>
<path d="M3710 4149 c0 -5 5 -7 10 -4 6 3 10 8 10 11 0 2 -4 4 -10 4 -5 0 -10
-5 -10 -11z"/>
<path d="M3595 4131 c39 -10 72 -17 74 -15 7 7 -45 22 -95 28 -44 5 -42 4 21
-13z"/>
<path d="M3777 4139 c7 -7 15 -10 18 -7 3 3 -2 9 -12 12 -14 6 -15 5 -6 -5z"/>
<path d="M3365 4130 c11 -5 27 -9 35 -9 9 0 8 4 -5 9 -11 5 -27 9 -35 9 -9 0
-8 -4 5 -9z"/>
<path d="M816 4112 c-3 -5 1 -9 9 -9 8 0 15 4 15 9 0 4 -4 8 -9 8 -6 0 -12 -4
-15 -8z"/>
<path d="M3438 4113 c7 -3 16 -2 19 1 4 3 -2 6 -13 5 -11 0 -14 -3 -6 -6z"/>
<path d="M3687 4105 c3 -8 9 -12 14 -9 12 7 11 11 -5 17 -10 4 -13 1 -9 -8z"/>
<path d="M1375 4093 l-30 -14 34 6 c18 3 42 5 52 5 11 0 19 3 19 8 0 12 -44
10 -75 -5z"/>
<path d="M888 4093 c7 -3 16 -2 19 1 4 3 -2 6 -13 5 -11 0 -14 -3 -6 -6z"/>
<path d="M3538 4093 c6 -2 18 -2 25 0 6 3 1 5 -13 5 -14 0 -19 -2 -12 -5z"/>
<path d="M3360 4080 c14 -4 34 -8 45 -8 16 0 15 2 -5 8 -14 4 -34 8 -45 8 -16
0 -15 -2 5 -8z"/>
<path d="M3609 4075 c35 -16 91 -28 91 -21 0 5 -96 36 -112 36 -7 -1 2 -7 21
-15z"/>
<path d="M1298 4073 c7 -3 16 -2 19 1 4 3 -2 6 -13 5 -11 0 -14 -3 -6 -6z"/>
<path d="M508 4063 c7 -3 16 -2 19 1 4 3 -2 6 -13 5 -11 0 -14 -3 -6 -6z"/>
<path d="M3443 4063 c9 -2 23 -2 30 0 6 3 -1 5 -18 5 -16 0 -22 -2 -12 -5z"/>
<path d="M306 4035 c-17 -25 -13 -51 5 -40 5 4 11 0 14 -7 3 -8 15 -14 25 -15
11 -1 18 2 15 8 -4 5 -2 9 3 9 17 0 21 28 6 34 -10 4 -14 0 -12 -12 2 -12 -3
-16 -17 -14 -11 2 -26 4 -32 4 -16 2 -16 4 3 33 9 14 14 25 11 25 -2 0 -12
-11 -21 -25z"/>
<path d="M1395 4048 c-116 -15 -142 -28 -45 -22 47 3 91 6 98 6 6 1 12 5 12
10 0 5 8 7 19 3 10 -3 29 -1 42 4 21 9 19 10 -16 9 -22 -1 -71 -5 -110 -10z"/>
<path d="M3498 4053 c6 -2 18 -2 25 0 6 3 1 5 -13 5 -14 0 -19 -2 -12 -5z"/>
<path d="M3720 4049 c0 -11 43 -22 66 -17 10 2 -1 8 -24 14 -23 6 -42 7 -42 3z"/>
<path d="M3570 4036 c53 -20 104 -30 96 -18 -3 5 -23 13 -43 17 -21 3 -49 8
-63 11 -16 3 -12 -1 10 -10z"/>
<path d="M3350 4030 c0 -6 7 -10 15 -10 8 0 15 2 15 4 0 2 -7 6 -15 10 -8 3
-15 1 -15 -4z"/>
<path d="M335 4020 c3 -5 8 -10 11 -10 2 0 4 5 4 10 0 6 -5 10 -11 10 -5 0 -7
-4 -4 -10z"/>
<path d="M3395 4020 c3 -5 8 -10 11 -10 2 0 4 5 4 10 0 6 -5 10 -11 10 -5 0
-7 -4 -4 -10z"/>
<path d="M1518 4015 c-2 -1 -37 -6 -78 -9 -41 -4 -100 -14 -130 -23 -30 -9
-59 -16 -63 -14 -5 1 -5 -4 -1 -10 5 -9 2 -10 -9 -6 -10 3 -17 2 -17 -3 0 -13
16 -13 40 0 20 11 142 33 243 45 32 4 56 9 53 13 -7 7 -33 12 -38 7z"/>
<path d="M3473 4003 c9 -2 23 -2 30 0 6 3 -1 5 -18 5 -16 0 -22 -2 -12 -5z"/>
<path d="M3529 3997 c5 -5 19 -7 32 -5 20 3 19 5 -9 9 -20 3 -29 2 -23 -4z"/>
<path d="M3694 4002 c4 -7 16 -12 27 -12 11 0 30 -5 42 -11 21 -10 21 -10 3 5
-11 9 -25 16 -32 16 -7 0 -20 3 -30 7 -12 4 -15 3 -10 -5z"/>
<path d="M3276 3990 c6 -6 28 -13 50 -16 43 -5 24 7 -31 20 -22 5 -27 4 -19
-4z"/>
<path d="M3605 3980 c27 -12 43 -12 25 0 -8 5 -22 9 -30 9 -10 0 -8 -3 5 -9z"/>
<path d="M3210 3976 c0 -23 122 -57 260 -72 25 -2 62 -7 83 -10 22 -4 37 -2
37 4 0 6 -8 11 -17 10 -10 0 -43 2 -73 6 -48 5 -76 10 -140 21 -49 9 -111 29
-116 36 -5 9 -34 13 -34 5z"/>
<path d="M3370 3970 c0 -6 15 -10 34 -10 18 0 49 -2 67 -5 25 -4 29 -3 14 3
-32 14 -115 23 -115 12z"/>
<path d="M3655 3969 c7 -10 65 -29 65 -21 0 4 -16 12 -35 18 -19 6 -32 7 -30
3z"/>
<path d="M3515 3950 c-3 -5 1 -10 9 -10 9 0 16 5 16 10 0 6 -4 10 -9 10 -6 0
-13 -4 -16 -10z"/>
<path d="M3555 3940 c4 -6 11 -8 16 -5 14 9 11 15 -7 15 -8 0 -12 -5 -9 -10z"/>
<path d="M3738 3943 c7 -3 16 -2 19 1 4 3 -2 6 -13 5 -11 0 -14 -3 -6 -6z"/>
<path d="M3620 3930 c-13 -8 -12 -10 3 -10 9 0 17 5 17 10 0 12 -1 12 -20 0z"/>
<path d="M3682 3914 c8 -9 26 -14 39 -12 20 2 18 5 -15 15 -36 11 -38 11 -24
-3z"/>
<path d="M320 3912 c0 -5 7 -15 15 -22 8 -7 15 -9 15 -6 0 4 -7 14 -15 22 -8
9 -15 11 -15 6z"/>
<path d="M1225 3900 c3 -5 13 -10 21 -10 8 0 12 5 9 10 -3 6 -13 10 -21 10 -8
0 -12 -4 -9 -10z"/>
<path d="M3663 3873 c9 -2 23 -2 30 0 6 3 -1 5 -18 5 -16 0 -22 -2 -12 -5z"/>
<path d="M3613 3844 c3 -3 22 -9 41 -14 39 -9 51 4 14 14 -29 7 -63 8 -55 0z"/>
<path d="M400 3768 c0 -3 14 -14 30 -26 29 -22 38 -20 22 4 -7 11 -52 29 -52
22z"/>
<path d="M417 3719 c7 -7 15 -10 18 -7 3 3 -2 9 -12 12 -14 6 -15 5 -6 -5z"/>
<path d="M548 3685 c18 -9 37 -13 41 -10 5 3 11 -2 14 -9 6 -16 47 -18 47 -3
0 5 -10 5 -21 2 -15 -5 -19 -4 -15 4 4 6 4 12 -1 12 -4 1 -17 3 -28 5 -11 1
-31 5 -45 8 -18 5 -16 2 8 -9z"/>
<path d="M670 3660 c0 -5 5 -10 10 -10 6 0 10 5 10 10 0 6 -4 10 -10 10 -5 0
-10 -4 -10 -10z"/>
<path d="M4475 3530 c-3 -6 1 -7 9 -4 18 7 21 14 7 14 -6 0 -13 -4 -16 -10z"/>
<path d="M4418 3513 c6 -2 18 -2 25 0 6 3 1 5 -13 5 -14 0 -19 -2 -12 -5z"/>
<path d="M1503 3473 c9 -2 25 -2 35 0 9 3 1 5 -18 5 -19 0 -27 -2 -17 -5z"/>
<path d="M3853 3323 c9 -2 25 -2 35 0 9 3 1 5 -18 5 -19 0 -27 -2 -17 -5z"/>
<path d="M3570 3281 c0 -5 5 -13 10 -16 6 -3 10 -2 10 4 0 5 -4 13 -10 16 -5
3 -10 2 -10 -4z"/>
<path d="M1171 2604 c0 -11 3 -14 6 -6 3 7 2 16 -1 19 -3 4 -6 -2 -5 -13z"/>
<path d="M1430 2586 c0 -8 4 -17 9 -20 5 -4 7 3 4 14 -6 23 -13 26 -13 6z"/>
<path d="M1231 2580 c-1 -15 21 -102 34 -132 5 -12 2 -16 -11 -14 -10 2 -20 9
-22 16 -3 8 0 10 8 5 9 -6 9 -3 1 14 -14 25 -22 28 -15 4 5 -15 3 -15 -10 1
-21 26 -20 11 1 -25 13 -21 23 -28 40 -25 12 3 25 0 28 -5 15 -24 -94 1 -129
30 -11 9 -16 11 -13 4 11 -19 -4 -45 -22 -38 -12 5 -13 3 -5 -5 8 -8 8 -28 -2
-73 -7 -34 -13 -78 -12 -97 0 -26 3 -18 12 28 6 35 15 60 19 56 4 -5 6 -2 3 6
-3 8 -2 29 3 45 7 22 9 2 8 -74 l-2 -103 -49 6 -48 5 22 -19 c13 -11 19 -20
14 -20 -5 0 -1 -7 9 -15 24 -17 31 -80 11 -96 -7 -6 -29 -9 -48 -7 -19 2 -33
1 -30 -3 9 -15 -31 -14 -43 1 -11 13 -12 13 -13 -1 0 -34 172 -73 395 -88
l120 -9 -115 1 c-117 0 -293 24 -368 50 -50 18 -53 14 -9 -13 17 -11 26 -20
18 -20 -11 0 -9 -4 5 -15 23 -17 3 -20 -28 -4 -11 6 -22 8 -25 5 -11 -11 30
-45 73 -62 47 -18 58 -34 23 -34 -18 0 -19 -2 -9 -15 15 -18 34 -20 24 -3 -5
8 -2 9 10 5 10 -4 19 -1 22 8 4 8 14 15 23 15 14 0 14 -2 1 -10 -8 -5 -11 -10
-6 -10 5 0 2 -8 -5 -17 -13 -16 -12 -17 3 -5 13 10 25 11 60 2 24 -7 48 -15
53 -20 6 -4 21 -11 35 -15 14 -4 48 -18 75 -31 28 -12 73 -29 100 -38 86 -26
291 -71 308 -68 4 1 7 -3 7 -8 0 -6 7 -10 15 -10 8 0 15 -8 15 -17 0 -13 3
-14 8 -6 13 20 122 5 122 -17 0 -11 33 -7 43 5 5 6 12 4 20 -5 6 -8 25 -16 40
-17 16 0 35 -9 42 -19 13 -18 14 -18 15 -1 0 23 27 22 40 -3 6 -11 17 -20 24
-20 7 0 27 -7 44 -16 18 -8 36 -13 41 -10 5 3 14 -1 21 -9 6 -7 18 -11 26 -8
8 3 23 -5 33 -18 17 -21 19 -37 12 -81 -2 -15 -31 -8 -31 7 0 8 -4 15 -10 15
-5 0 -10 -6 -10 -14 0 -19 -24 -37 -36 -27 -13 12 -104 20 -104 9 0 -5 -16 -6
-37 -2 -21 4 -49 8 -63 9 -14 1 -32 4 -40 7 -29 12 -105 30 -127 32 -13 0 -23
5 -23 9 0 5 -5 5 -10 2 -8 -5 -8 -11 -1 -19 6 -7 8 -15 5 -19 -3 -3 3 -3 13
-1 13 4 19 0 20 -13 1 -10 5 -30 9 -46 6 -27 6 -27 -21 -17 -20 7 -31 7 -41
-1 -11 -9 -15 -8 -20 5 -3 9 -12 16 -20 16 -7 0 -11 -6 -8 -13 4 -10 -3 -12
-27 -9 -21 3 -30 1 -25 -6 3 -6 2 -13 -4 -17 -6 -3 -14 3 -18 14 -4 11 -10 20
-14 21 -19 2 -51 19 -38 20 9 0 5 6 -10 14 -18 9 -29 10 -39 2 -11 -8 -15 -8
-18 2 -3 6 -13 12 -24 12 -10 0 -19 5 -19 10 0 7 -6 7 -19 0 -26 -14 -31 -13
-31 6 0 10 -6 14 -14 11 -7 -3 -18 -1 -23 4 -5 5 -21 5 -40 0 -17 -5 -36 -5
-44 0 -12 7 -11 9 1 10 10 0 8 3 -5 8 -11 5 -33 4 -49 0 -16 -5 -32 -6 -35 -4
-2 3 1 5 7 5 7 0 12 4 12 8 0 10 -31 9 -48 -2 -9 -5 -13 -3 -11 5 3 29 -2 41
-16 36 -8 -4 -17 -2 -20 2 -7 12 -55 20 -61 10 -3 -5 0 -9 6 -9 7 0 10 -6 7
-12 -2 -7 8 -19 22 -26 14 -7 18 -10 8 -7 -11 3 -16 1 -11 -6 3 -6 17 -8 30
-5 15 4 24 2 24 -5 0 -6 7 -9 15 -5 8 3 15 2 15 -3 0 -8 51 -23 95 -27 80 -8
114 -20 245 -82 80 -38 186 -53 202 -29 5 8 11 8 16 2 11 -15 64 -13 58 2 -8
19 5 16 20 -4 13 -17 13 -17 14 -1 0 18 23 20 47 5 6 -4 15 -2 19 4 4 6 9 7
13 2 3 -5 36 -7 76 -3 45 4 73 3 78 -4 5 -8 10 -7 15 2 5 7 22 11 43 8 19 -3
34 -5 34 -6 0 -2 7 -3 70 -19 22 -6 41 -15 43 -20 2 -6 13 -11 25 -11 11 0 18
-3 15 -6 -9 -8 25 -42 36 -36 7 4 5 -32 -6 -108 -2 -12 -23 -15 -120 -15 -95
0 -120 -3 -134 -16 -15 -15 -11 -18 52 -28 77 -14 134 -35 134 -50 0 -6 10
-11 23 -11 26 0 50 -13 47 -26 -4 -14 -37 -34 -83 -49 l-42 -14 49 2 c47 2 50
1 71 -37 25 -45 39 -50 43 -16 3 24 38 57 49 46 10 -10 23 -256 27 -526 2
-151 7 -292 11 -312 l7 -38 232 1 c127 0 222 4 212 8 -14 5 -16 10 -7 15 6 4
9 16 6 27 -4 11 -2 19 5 19 6 0 8 5 5 10 -3 6 -13 10 -21 10 -8 0 -13 -4 -10
-8 2 -4 0 -14 -5 -22 -7 -11 -8 -6 -4 15 2 16 9 31 15 33 14 5 13 33 -2 30 -7
-2 -12 10 -13 30 0 30 9 38 39 33 5 -1 4 4 -3 13 -14 17 2 32 22 20 8 -5 8 -2
-2 9 -13 16 -15 16 -32 -4 -15 -17 -19 -19 -19 -6 0 8 6 17 13 20 8 3 6 10 -8
22 -17 14 -17 16 -2 11 21 -7 24 19 2 28 -8 3 -15 15 -15 26 0 13 4 18 11 15
6 -4 8 -13 5 -21 -7 -18 5 -18 30 1 18 14 18 14 0 15 -16 0 -18 5 -13 35 3 19
2 36 -4 36 -5 1 -13 2 -18 3 -15 2 -26 16 -13 16 20 0 13 16 -10 27 -15 6 -18
12 -10 17 7 4 12 2 12 -3 0 -6 4 -11 8 -11 5 0 9 15 9 33 0 17 -2 26 -4 20 -9
-25 -22 -12 -18 17 2 17 -1 30 -6 30 -6 0 -7 5 -4 10 5 8 11 7 21 -1 8 -6 14
-8 15 -3 0 5 2 20 3 34 2 14 0 34 -5 45 -6 16 -8 17 -8 3 -1 -25 -19 -31 -37
-14 -14 15 -13 16 6 16 16 0 20 4 16 16 -4 11 -2 15 8 11 8 -3 16 2 19 14 4
16 1 18 -21 13 -18 -4 -23 -3 -14 4 11 7 11 12 -1 24 -14 14 -21 43 -18 77 1
10 4 11 15 2 12 -10 17 -8 25 8 12 21 0 37 -19 26 -5 -3 -10 -2 -10 4 0 5 5
13 10 16 16 10 12 25 -5 19 -9 -4 -18 1 -21 11 -4 9 -13 14 -21 10 -11 -3 -13
-1 -10 10 4 8 2 17 -3 20 -16 10 -12 38 4 32 17 -7 39 16 28 28 -4 4 0 6 8 3
8 -3 14 -13 14 -22 -1 -9 2 -16 7 -16 5 0 9 4 9 9 0 5 8 11 18 15 9 3 22 9 29
12 7 3 10 -3 7 -18 -2 -13 -1 -16 2 -8 4 8 11 20 16 27 7 9 -1 17 -29 30 -21
10 -43 22 -49 28 -14 12 -6 45 10 45 9 0 11 14 6 51 -6 42 -4 49 5 35 11 -14
14 -14 24 -2 8 10 9 16 1 21 -13 8 -13 25 0 25 6 0 10 -6 10 -12 1 -14 70 -51
70 -37 0 5 -4 9 -10 9 -5 0 -10 7 -10 15 0 8 -7 15 -15 15 -8 0 -15 5 -15 10
0 6 11 10 25 10 14 0 25 5 25 10 0 6 -7 10 -16 10 -10 0 -14 6 -10 15 3 9 0
15 -9 15 -8 0 -15 5 -15 10 0 19 31 10 40 -12 5 -13 9 -17 9 -10 1 6 6 12 12
12 6 0 8 -9 4 -22 -5 -17 -4 -19 3 -9 8 11 11 10 15 -5 4 -15 5 -13 6 6 1 31
-19 58 -38 52 -10 -3 -12 1 -8 17 3 11 1 21 -4 21 -5 0 -9 13 -9 29 0 34 22
45 67 36 27 -6 27 -6 8 10 l-20 17 20 -6 c26 -7 49 8 42 28 -10 26 7 18 20 -9
6 -15 7 -25 1 -25 -5 0 -6 -4 -3 -10 12 -19 31 13 27 47 -3 25 -9 33 -26 34
-19 1 -19 2 -2 6 10 3 33 13 51 23 35 20 50 16 58 -15 4 -16 5 -15 6 6 1 23 6
26 38 27 38 2 63 16 48 29 -4 5 -10 2 -12 -4 -5 -13 -33 -19 -33 -7 0 14 27
30 49 29 15 -1 26 5 31 19 5 12 9 17 10 11 0 -5 5 -3 10 5 6 10 10 11 10 3 0
-7 9 -13 19 -13 11 0 22 -4 26 -10 3 -5 12 -7 21 -3 11 4 12 9 4 18 -7 8 -7
15 -1 19 5 3 11 1 13 -5 3 -8 10 -6 21 5 9 10 21 15 26 12 5 -3 14 1 21 9 6 7
18 11 26 8 9 -3 14 1 14 13 0 9 3 15 6 11 3 -3 15 3 27 14 11 10 28 19 36 20
76 5 100 8 128 17 17 5 34 7 38 4 3 -4 11 0 16 8 8 12 12 12 16 2 3 -9 9 -10
18 -2 15 13 24 -9 56 -137 15 -60 28 -93 36 -93 18 0 21 -9 37 -119 10 -65 19
-97 30 -103 9 -5 17 -17 17 -26 1 -9 5 -3 9 13 7 28 8 27 10 -15 1 -25 4 -37
7 -27 2 9 8 17 13 17 4 0 4 17 -1 38 -4 20 -6 87 -3 148 3 77 0 134 -10 185
-9 44 -15 127 -15 206 l1 132 31 21 32 21 -46 -6 c-25 -4 -69 -7 -97 -8 -29
-1 -52 -5 -52 -10 0 -4 -10 -2 -22 4 -16 9 -23 9 -26 0 -5 -15 -79 -14 -85 2
-4 9 -6 9 -6 -1 -1 -7 -6 -10 -11 -7 -6 4 -18 1 -27 -7 -15 -11 -16 -11 -10 6
6 16 5 17 -8 6 -16 -13 -75 -20 -75 -9 0 3 -10 5 -22 3 -77 -11 -117 -11 -111
0 5 8 3 8 -8 1 -19 -14 -73 -20 -65 -7 3 5 -3 12 -14 15 -11 3 -18 2 -15 -3 6
-9 -19 -20 -43 -19 -11 0 -12 2 -4 6 6 2 12 9 12 14 0 6 -7 6 -17 0 -23 -11
-74 -11 -67 0 3 5 0 9 -5 9 -6 0 -11 -5 -11 -10 0 -11 -45 -9 -56 3 -4 4 -13
2 -21 -4 -9 -9 -13 -8 -13 0 0 6 -3 10 -7 9 -5 -1 -19 4 -33 12 -22 12 -24 12
-13 -2 11 -13 9 -14 -21 -4 -19 6 -33 13 -31 17 3 3 -7 4 -20 1 -14 -2 -33 -1
-42 3 -10 5 -22 7 -27 6 -16 -4 -106 21 -106 28 0 4 -6 8 -12 9 -22 2 -43 7
-55 15 -6 4 -18 4 -27 1 -9 -4 -16 -1 -16 6 0 7 -7 10 -15 6 -8 -3 -15 -2 -15
2 0 4 -14 8 -32 9 -17 1 -35 8 -40 15 -5 9 -8 9 -8 2 0 -8 -23 -6 -72 7 -39
11 -84 19 -100 19 -15 0 -28 3 -28 8 0 4 -17 7 -37 8 -21 0 -49 3 -63 6 -14 3
-38 9 -55 13 -16 4 -36 14 -42 23 -8 10 -13 11 -13 4 0 -20 -16 -14 -29 11 -6
12 -9 14 -7 5 4 -13 -2 -16 -25 -16 -16 1 -32 5 -35 9 -2 5 -11 6 -18 3 -8 -3
-17 -1 -21 5 -4 8 -12 8 -26 1 -15 -9 -19 -7 -19 7 0 10 -5 25 -10 33 -8 11
-9 8 -4 -12 5 -25 4 -27 -23 -24 -22 2 -31 11 -41 37 l-12 34 3 -36 c2 -27 -1
-35 -10 -32 -7 3 -13 11 -13 18 0 8 -5 17 -12 21 -8 5 -9 2 -5 -9 3 -10 3 -17
-2 -17 -7 0 -24 29 -34 60 -4 12 -6 12 -6 -2 -1 -9 4 -29 9 -45 l10 -28 -19
23 c-22 25 -36 29 -27 7 3 -8 1 -15 -3 -15 -5 0 -16 19 -25 43 l-16 42 4 -35
c3 -32 1 -35 -24 -35 -16 0 -26 3 -24 7 2 4 0 9 -6 13 -5 3 -10 17 -10 30 0
13 -5 27 -10 30 -10 6 -7 -20 5 -62 2 -7 -2 -10 -11 -6 -7 3 -14 13 -14 23 0
11 -4 21 -9 24 -4 3 -6 -7 -3 -22 5 -26 4 -26 -15 -9 -21 19 -38 23 -28 7 13
-20 -11 -8 -38 19 -19 19 -31 44 -34 70 -3 23 -9 41 -13 41 -11 0 8 -91 25
-117 13 -19 13 -22 1 -17 -15 6 -40 52 -49 89 -4 18 -5 17 -6 -3 0 -13 6 -37
15 -54 9 -16 11 -28 6 -24 -17 10 -49 90 -56 139 -4 27 -10 47 -12 44 -3 -3
-1 -29 5 -59 23 -112 23 -114 12 -98 -6 8 -11 11 -11 6 0 -5 -6 -3 -14 3 -12
10 -45 104 -61 175 -3 15 -8 26 -11 24 -2 -3 7 -49 21 -104 14 -54 25 -100 25
-102 0 -1 -6 3 -13 10 -8 7 -12 20 -10 29 3 9 -1 20 -8 25 -9 5 -11 2 -6 -9 3
-10 4 -17 2 -17 -8 0 -38 64 -51 110 l-14 45 6 -45 c4 -25 13 -57 20 -72 8
-16 12 -28 9 -28 -10 0 -31 24 -38 43 -4 10 -11 15 -17 12 -6 -4 -2 -18 12
-38 12 -17 16 -27 9 -23 -8 5 -16 4 -21 -3 -5 -9 -11 -9 -22 3 -9 8 -19 12
-22 8 -4 -3 -4 2 0 13 7 17 6 18 -8 7 -17 -13 -25 -1 -63 96 -10 24 -19 41
-22 39 -3 -4 20 -76 42 -129 5 -13 2 -15 -14 -11 -32 8 -48 34 -70 108 -11 39
-20 63 -20 55z m-50 -345 c5 4 9 -5 9 -19 0 -16 -6 -26 -15 -26 -11 0 -15 10
-14 38 1 20 3 29 6 19 2 -9 9 -15 14 -12z m56 -17 c0 -20 -5 -28 -19 -28 -19
0 -21 4 -12 36 8 31 31 25 31 -8z m49 -23 c10 -9 11 -15 4 -15 -6 0 -18 7 -26
15 -10 9 -11 15 -4 15 6 0 18 -7 26 -15z m50 -5 c0 -11 -4 -20 -8 -20 -10 0
-11 24 -1 33 9 9 9 10 9 -13z m47 -20 c-3 -3 -8 1 -10 8 -3 6 -9 10 -14 6 -10
-6 -12 9 -2 19 3 4 12 -1 19 -11 7 -9 10 -19 7 -22z m144 -206 c-3 -3 -12 -4
-19 -1 -8 3 -5 6 6 6 11 1 17 -2 13 -5z m2493 -394 c0 -5 -4 -10 -10 -10 -5 0
-10 5 -10 10 0 6 5 10 10 10 6 0 10 -4 10 -10z m-973 -30 c3 -10 2 -11 -4 -4
-4 6 -15 14 -23 17 -11 5 -9 6 4 4 11 -1 21 -9 23 -17z m113 0 c0 -5 -4 -10
-10 -10 -5 0 -10 5 -10 10 0 6 5 10 10 10 6 0 10 -4 10 -10z m40 0 c0 -5 -2
-10 -4 -10 -3 0 -8 5 -11 10 -3 6 -1 10 4 10 6 0 11 -4 11 -10z m-171 -33 c0
-9 -2 -9 -6 1 -7 18 -23 15 -24 -5 0 -15 -2 -15 -8 2 -5 11 -7 23 -4 28 6 11
43 -12 42 -26z m18 -9 c-3 -8 -6 -5 -6 6 -1 11 2 17 5 13 3 -3 4 -12 1 -19z
m-687 -59 c0 -16 -4 -29 -9 -29 -5 0 -9 16 -9 35 0 19 4 32 9 29 5 -3 9 -18 9
-35z m678 -3 c-10 -7 -18 -18 -18 -25 0 -6 -5 -11 -11 -11 -6 0 -8 7 -5 16 3
9 6 18 6 20 0 2 7 4 15 4 8 0 15 5 15 10 0 6 -4 10 -10 10 -5 0 -10 5 -10 12
0 8 7 5 18 -5 16 -17 16 -19 0 -31z m42 28 c0 -8 -5 -12 -10 -9 -6 4 -8 11 -5
16 9 14 15 11 15 -7z m-1865 -4 c3 -5 1 -10 -4 -10 -6 0 -11 5 -11 10 0 6 2
10 4 10 3 0 8 -4 11 -10z m709 -109 c-7 -9 -34 10 -34 24 0 13 3 12 18 -2 10
-10 17 -20 16 -22z m1096 24 c0 -9 -9 -15 -23 -15 -13 0 -28 -5 -33 -10 -7 -7
-11 -7 -11 3 0 7 12 14 26 15 14 1 28 7 29 12 5 15 12 12 12 -5z m20 -29 c0
-11 -19 -15 -25 -6 -3 5 1 10 9 10 9 0 16 -2 16 -4z m-442 -66 c-7 -11 -15
-15 -17 -9 -2 6 3 15 10 20 20 12 21 11 7 -11z m-51 -16 c-3 -3 -12 -4 -19 -1
-8 3 -5 6 6 6 11 1 17 -2 13 -5z m423 -4 c0 -5 -8 -10 -17 -10 -15 0 -16 2 -3
10 19 12 20 12 20 0z m-62 -178 c2 -7 -2 -10 -12 -6 -9 3 -16 11 -16 16 0 13
23 5 28 -10z m-3 -502 c3 -5 1 -10 -4 -10 -6 0 -11 5 -11 10 0 6 2 10 4 10 3
0 8 -4 11 -10z m62 -187 c0 -16 -2 -22 -4 -15 -3 6 -11 12 -19 12 -8 0 -14 5
-14 11 0 6 7 9 15 5 8 -3 15 -1 15 4 0 6 2 10 4 10 2 0 3 -12 3 -27z"/>
<path d="M1132 2560 c0 -14 2 -19 5 -12 2 6 2 18 0 25 -3 6 -5 1 -5 -13z"/>
<path d="M1181 2554 c0 -11 3 -14 6 -6 3 7 2 16 -1 19 -3 4 -6 -2 -5 -13z"/>
<path d="M1211 2554 c0 -11 3 -14 6 -6 3 7 2 16 -1 19 -3 4 -6 -2 -5 -13z"/>
<path d="M1361 2559 c-2 -25 39 -137 55 -150 19 -15 18 -4 -2 26 -9 13 -24 50
-34 82 -10 32 -19 51 -19 42z"/>
<path d="M1481 2530 c0 -26 26 -114 31 -104 3 5 -3 34 -13 64 -10 30 -18 48
-18 40z"/>
<path d="M1090 2524 c0 -6 7 -19 16 -30 14 -18 14 -18 3 6 -14 31 -19 36 -19
24z"/>
<path d="M1191 2514 c0 -11 3 -14 6 -6 3 7 2 16 -1 19 -3 4 -6 -2 -5 -13z"/>
<path d="M1541 2514 c0 -11 3 -14 6 -6 3 7 2 16 -1 19 -3 4 -6 -2 -5 -13z"/>
<path d="M790 2499 c0 -5 4 -8 9 -5 5 4 11 2 13 -3 1 -5 17 -13 33 -16 27 -6
26 -5 -10 14 -46 24 -45 24 -45 10z"/>
<path d="M1280 2493 c0 -19 22 -63 32 -63 5 0 6 5 3 10 -3 6 -13 22 -21 38 -7
15 -14 22 -14 15z"/>
<path d="M1421 2484 c0 -11 3 -14 6 -6 3 7 2 16 -1 19 -3 4 -6 -2 -5 -13z"/>
<path d="M1165 2466 c10 -14 19 -26 22 -26 7 0 -17 39 -28 46 -6 3 -3 -5 6
-20z"/>
<path d="M1356 2461 c-3 -5 1 -11 9 -14 9 -4 12 -1 8 9 -6 16 -10 17 -17 5z"/>
<path d="M1564 2411 c11 -39 26 -64 26 -44 0 13 -29 83 -34 83 -2 0 1 -18 8
-39z"/>
<path d="M1701 2414 c0 -11 3 -14 6 -6 3 7 2 16 -1 19 -3 4 -6 -2 -5 -13z"/>
<path d="M1710 2360 c0 -5 5 -10 11 -10 5 0 7 5 4 10 -3 6 -8 10 -11 10 -2 0
-4 -4 -4 -10z"/>
<path d="M1740 2350 c0 -5 5 -10 11 -10 5 0 7 5 4 10 -3 6 -8 10 -11 10 -2 0
-4 -4 -4 -10z"/>
<path d="M1860 2320 c0 -11 4 -20 9 -20 5 0 7 9 4 20 -3 11 -7 20 -9 20 -2 0
-4 -9 -4 -20z"/>
<path d="M4282 2223 c-1 -28 -5 -60 -8 -70 -5 -17 -5 -17 6 0 6 9 9 41 7 70
l-3 52 -2 -52z"/>
<path d="M996 2188 c-8 -41 -1 -47 12 -9 6 17 7 33 3 36 -5 2 -11 -9 -15 -27z"/>
<path d="M1091 2104 c0 -11 3 -14 6 -6 3 7 2 16 -1 19 -3 4 -6 -2 -5 -13z"/>
<path d="M1078 2063 c7 -3 16 -2 19 1 4 3 -2 6 -13 5 -11 0 -14 -3 -6 -6z"/>
<path d="M967 1979 c7 -7 15 -10 18 -7 3 3 -2 9 -12 12 -14 6 -15 5 -6 -5z"/>
<path d="M931 1934 c0 -11 3 -14 6 -6 3 7 2 16 -1 19 -3 4 -6 -2 -5 -13z"/>
<path d="M921 1894 c0 -11 3 -14 6 -6 3 7 2 16 -1 19 -3 4 -6 -2 -5 -13z"/>
<path d="M911 1854 c0 -11 3 -14 6 -6 3 7 2 16 -1 19 -3 4 -6 -2 -5 -13z"/>
<path d="M882 1748 c-29 -119 -65 -308 -60 -314 3 -2 15 48 27 113 12 65 31
153 42 196 11 44 19 81 16 83 -2 2 -13 -33 -25 -78z"/>
<path d="M1035 1819 c-9 -14 -2 -20 14 -10 8 6 9 11 3 15 -6 3 -14 1 -17 -5z"/>
<path d="M1070 1800 c0 -5 5 -10 10 -10 6 0 10 5 10 10 0 6 -4 10 -10 10 -5 0
-10 -4 -10 -10z"/>
<path d="M1010 1769 c0 -10 -6 -19 -14 -19 -18 0 -46 -27 -46 -43 0 -7 7 -4
14 6 16 21 30 22 22 2 -7 -19 3 -47 15 -39 7 4 96 -6 174 -20 45 -8 165 -53
165 -61 0 -17 265 -95 320 -95 33 0 23 19 -15 26 -19 3 -38 10 -41 15 -3 5
-10 7 -15 3 -5 -3 -25 6 -44 21 -20 14 -39 24 -44 20 -5 -3 -11 -2 -13 2 -1 5
-24 18 -50 30 -27 13 -48 28 -48 34 0 6 -6 9 -14 6 -8 -3 -17 0 -19 7 -3 8
-22 17 -43 21 -23 4 -33 10 -25 14 7 5 0 8 -17 8 -16 0 -38 9 -51 22 -16 16
-30 21 -47 17 -17 -5 -22 -3 -18 8 6 17 -48 29 -58 13 -5 -8 -12 -7 -25 4 -27
23 -63 22 -63 -2z"/>
<path d="M3223 1523 c-15 -5 -17 -23 -4 -23 5 0 11 7 15 15 3 8 4 15 3 14 -1
0 -8 -3 -14 -6z"/>
<path d="M1085 1490 c3 -5 8 -10 11 -10 2 0 4 5 4 10 0 6 -5 10 -11 10 -5 0
-7 -4 -4 -10z"/>
<path d="M3256 1478 c8 -28 12 -33 20 -25 9 8 -6 47 -17 47 -6 0 -7 -10 -3
-22z"/>
<path d="M3212 1479 c2 -7 10 -15 17 -17 8 -3 12 1 9 9 -2 7 -10 15 -17 17 -8
3 -12 -1 -9 -9z"/>
<path d="M1015 1460 c-3 -5 -2 -10 4 -10 5 0 13 5 16 10 3 6 2 10 -4 10 -5 0
-13 -4 -16 -10z"/>
<path d="M3226 1425 c4 -8 11 -15 16 -15 6 0 5 6 -2 15 -7 8 -14 15 -16 15 -2
0 -1 -7 2 -15z"/>
<path d="M3144 1407 c0 -13 6 -24 13 -24 9 0 9 6 1 21 -15 30 -16 30 -14 3z"/>
<path d="M812 1395 c0 -16 2 -22 5 -12 2 9 2 23 0 30 -3 6 -5 -1 -5 -18z"/>
<path d="M1010 1410 c0 -5 5 -10 10 -10 6 0 10 5 10 10 0 6 -4 10 -10 10 -5 0
-10 -4 -10 -10z"/>
<path d="M3068 1403 c7 -3 16 -2 19 1 4 3 -2 6 -13 5 -11 0 -14 -3 -6 -6z"/>
<path d="M3114 1383 c2 -15 5 -31 5 -35 1 -5 6 -8 12 -8 6 0 7 5 2 13 -4 6 -6
19 -5 29 2 9 -2 19 -8 23 -7 4 -9 -3 -6 -22z"/>
<path d="M1024 1382 c-13 -9 -13 -52 1 -52 5 0 10 14 11 30 1 17 1 30 0 30 -1
0 -6 -4 -12 -8z"/>
<path d="M3067 1383 c-3 -5 1 -17 9 -28 14 -18 14 -18 14 2 0 23 -15 39 -23
26z"/>
<path d="M1056 1360 c3 -3 25 -5 47 -5 31 0 42 -4 42 -15 0 -19 24 -39 48 -40
9 0 17 -3 17 -7 0 -5 11 -9 25 -9 31 -2 28 16 -5 33 -19 9 -26 9 -32 0 -5 -9
-8 -8 -8 3 0 24 -52 49 -98 47 -23 0 -39 -4 -36 -7z"/>
<path d="M1846 1355 c4 -8 8 -15 10 -15 2 0 4 7 4 15 0 8 -4 15 -10 15 -5 0
-7 -7 -4 -15z"/>
<path d="M3156 1357 c3 -10 9 -15 12 -12 3 3 0 11 -7 18 -10 9 -11 8 -5 -6z"/>
<path d="M797 1310 c-4 -30 -6 -82 -6 -115 2 -52 3 -47 10 35 10 107 7 165 -4
80z"/>
<path d="M3123 1319 c-15 -15 -17 -39 -4 -39 5 0 11 -8 13 -17 3 -16 4 -15 9
2 3 11 3 30 0 43 -5 18 -8 21 -18 11z"/>
<path d="M1264 1285 c-1 -14 2 -22 7 -19 11 6 12 44 2 44 -5 0 -9 -11 -9 -25z"/>
<path d="M1290 1300 c0 -5 5 -10 11 -10 5 0 7 5 4 10 -3 6 -8 10 -11 10 -2 0
-4 -4 -4 -10z"/>
<path d="M1330 1270 c0 -5 7 -7 15 -4 8 4 15 8 15 10 0 2 -7 4 -15 4 -8 0 -15
-4 -15 -10z"/>
<path d="M1365 1250 c3 -5 8 -10 11 -10 2 0 4 5 4 10 0 6 -5 10 -11 10 -5 0
-7 -4 -4 -10z"/>
<path d="M1435 1240 c3 -5 8 -10 11 -10 2 0 4 5 4 10 0 6 -5 10 -11 10 -5 0
-7 -4 -4 -10z"/>
<path d="M940 1230 c0 -5 5 -10 10 -10 6 0 10 5 10 10 0 6 -4 10 -10 10 -5 0
-10 -4 -10 -10z"/>
<path d="M1011 1204 c0 -11 3 -14 6 -6 3 7 2 16 -1 19 -3 4 -6 -2 -5 -13z"/>
<path d="M946 1178 c-8 -41 -8 -48 4 -48 6 0 10 11 10 24 0 13 4 26 9 28 5 2
3 8 -4 15 -10 9 -14 5 -19 -19z"/>
<path d="M1668 1193 c7 -3 16 -2 19 1 4 3 -2 6 -13 5 -11 0 -14 -3 -6 -6z"/>
<path d="M1758 1178 c5 -5 16 -8 23 -6 8 3 3 7 -10 11 -17 4 -21 3 -13 -5z"/>
<path d="M1800 1166 c0 -2 11 -6 25 -8 13 -3 22 -1 19 3 -5 9 -44 13 -44 5z"/>
<path d="M1971 1154 c0 -11 3 -14 6 -6 3 7 2 16 -1 19 -3 4 -6 -2 -5 -13z"/>
<path d="M887 1135 c-3 -16 0 -24 7 -22 14 4 21 47 8 47 -5 0 -12 -11 -15 -25z"/>
<path d="M973 1140 c1 -11 5 -20 9 -20 4 0 8 9 8 20 0 11 -4 20 -9 20 -6 0 -9
-9 -8 -20z"/>
<path d="M1888 1153 c7 -3 16 -2 19 1 4 3 -2 6 -13 5 -11 0 -14 -3 -6 -6z"/>
<path d="M2960 1144 c0 -10 4 -25 9 -32 7 -11 9 -11 13 0 3 8 0 22 -8 33 -14
18 -14 18 -14 -1z"/>
<path d="M1020 1130 c0 -5 10 -10 23 -10 18 0 19 2 7 10 -19 13 -30 13 -30 0z"/>
<path d="M1070 1110 c0 -5 5 -10 11 -10 5 0 7 5 4 10 -3 6 -8 10 -11 10 -2 0
-4 -4 -4 -10z"/>
<path d="M940 1100 c0 -5 5 -10 10 -10 6 0 10 5 10 10 0 6 -4 10 -10 10 -5 0
-10 -4 -10 -10z"/>
<path d="M1040 1100 c0 -5 5 -10 11 -10 5 0 7 5 4 10 -3 6 -8 10 -11 10 -2 0
-4 -4 -4 -10z"/>
<path d="M886 1082 c-3 -6 -2 -13 4 -17 6 -4 7 -11 4 -17 -13 -21 -11 -97 3
-102 7 -3 10 -12 7 -20 -7 -19 12 -29 33 -17 17 9 17 10 0 16 -14 6 -15 10 -6
21 6 8 18 14 25 14 8 0 14 5 14 11 0 5 -4 8 -9 4 -14 -8 -25 15 -14 26 6 6 15
4 23 -6 10 -12 10 -21 1 -41 -13 -29 -15 -74 -3 -74 4 0 8 -18 9 -40 1 -27 -2
-38 -9 -34 -8 5 -9 -1 -4 -17 16 -57 18 -89 6 -104 -7 -9 -11 -17 -9 -19 2 -1
15 -10 29 -19 l24 -17 -22 0 c-13 0 -21 -4 -17 -9 3 -5 1 -12 -5 -16 -6 -4 -5
-13 3 -25 13 -22 29 -27 25 -9 -2 6 3 14 11 17 11 4 13 -4 7 -36 -6 -40 8 -70
17 -35 2 10 4 7 3 -7 0 -14 -5 -28 -11 -32 -6 -5 -5 -8 3 -8 9 0 11 -7 7 -20
-4 -12 -2 -20 6 -20 9 0 8 -4 -1 -15 -8 -10 -9 -15 -2 -15 7 0 9 -8 5 -17 -3
-10 -2 -15 2 -10 11 9 45 -22 45 -41 0 -12 -3 -12 -15 -2 -10 9 -15 9 -15 1 0
-6 3 -11 8 -11 4 0 13 -4 21 -9 12 -8 12 -12 2 -25 -11 -13 -10 -25 5 -68 11
-29 22 -54 26 -56 5 -2 3 -12 -2 -22 -7 -13 -6 -19 5 -24 8 -3 15 -13 15 -22
0 -10 -5 -14 -16 -10 -9 3 -12 2 -9 -5 4 -6 13 -8 20 -5 19 7 27 -5 11 -18
-10 -8 -12 -18 -6 -33 8 -20 16 -22 112 -22 l104 -1 -4 40 c-4 41 12 56 21 20
5 -20 37 -29 37 -10 0 6 -7 10 -15 10 -10 0 -15 10 -15 30 0 22 -4 28 -15 24
-8 -4 -15 -1 -15 4 0 6 -7 18 -16 27 -9 9 -14 19 -10 22 3 4 12 1 18 -5 16
-16 33 -15 20 1 -5 6 -16 32 -23 57 -7 25 -17 51 -22 58 -6 8 -6 12 1 12 6 0
16 9 22 20 10 18 8 20 -17 19 -25 0 -26 -1 -8 -9 19 -8 19 -9 -2 -9 -17 -1
-23 -7 -23 -23 0 -36 -10 -13 -12 26 -1 23 4 42 13 48 11 8 11 9 -3 4 -10 -3
-20 -1 -24 5 -3 6 3 13 15 16 12 3 21 10 21 15 0 6 -7 7 -16 4 -9 -3 -12 -2
-9 5 4 6 -1 17 -11 25 -18 13 -18 14 1 7 18 -6 18 -5 6 10 -12 15 -11 17 2 17
9 0 17 -9 19 -20 2 -14 7 -17 17 -11 21 13 -4 35 -54 48 l-40 11 36 1 c20 1
42 8 49 16 11 14 10 14 -13 6 -17 -7 -28 -7 -32 -1 -4 6 0 10 8 10 8 0 22 9
32 20 17 18 17 20 1 20 -9 0 -19 -7 -22 -15 -4 -8 -10 -15 -15 -15 -4 0 -5 7
-2 17 5 11 3 14 -6 8 -10 -6 -12 3 -10 38 3 38 1 47 -15 51 -12 3 -16 10 -13
20 4 9 -1 20 -11 26 -13 8 -9 9 18 4 30 -6 33 -5 22 8 -6 8 -9 18 -5 22 4 4
17 -10 29 -29 13 -22 25 -32 28 -26 4 6 2 11 -3 11 -6 0 -11 6 -11 14 0 8 -5
16 -10 18 -6 2 -11 14 -12 28 -1 44 -9 80 -19 80 -14 0 -11 -28 4 -33 8 -4 9
-8 1 -14 -6 -4 -16 -21 -22 -38 -10 -30 -10 -30 -12 15 -3 63 -8 101 -14 108
-4 3 -6 -2 -6 -11 0 -9 -7 -17 -16 -17 -11 0 -14 6 -9 20 4 11 2 20 -4 20 -6
0 -11 11 -11 25 0 22 -9 30 -32 26 -5 0 -8 4 -8 9 0 6 7 10 15 10 8 0 15 5 15
10 0 6 -5 10 -11 10 -7 0 -9 11 -6 28 3 15 2 34 -4 42 -5 8 -9 11 -9 6 0 -5
-7 -2 -17 5 -13 11 -17 11 -20 2 -7 -19 -21 -16 -28 7 -9 29 -28 25 -22 -6 3
-18 1 -24 -9 -20 -7 3 -15 -3 -17 -12 -3 -9 -5 -2 -6 16 -1 22 -6 32 -17 32
-12 0 -15 -6 -10 -26 5 -18 3 -24 -5 -18 -7 4 -19 -3 -30 -17 l-18 -24 1 43
c0 44 -14 73 -26 54z m234 -62 c0 -5 -5 -10 -11 -10 -5 0 -7 5 -4 10 3 6 8 10
11 10 2 0 4 -4 4 -10z m-76 -51 c8 -53 1 -63 -9 -12 -4 21 -12 41 -18 45 -8 5
-7 8 4 8 12 0 18 -12 23 -41z m-37 -1 c-3 -8 -6 -5 -6 6 -1 11 2 17 5 13 3 -3
4 -12 1 -19z m-67 2 c0 -5 -7 -10 -16 -10 -8 0 -12 5 -9 10 3 6 10 10 16 10 5
0 9 -4 9 -10z m158 -7 c-2 -9 -8 -18 -15 -20 -7 -3 -9 3 -6 16 6 25 26 28 21
4z m2 -93 c0 -5 -2 -10 -4 -10 -3 0 -8 5 -11 10 -3 6 -1 10 4 10 6 0 11 -4 11
-10z m40 -10 c0 -5 -4 -10 -10 -10 -5 0 -10 5 -10 10 0 6 5 10 10 10 6 0 10
-4 10 -10z m-34 -26 c-4 -9 -1 -24 6 -33 12 -14 11 -14 -4 -2 -20 15 -24 51
-7 51 6 0 8 -7 5 -16z m91 -38 c0 -11 -5 -13 -19 -5 -10 5 -18 12 -18 14 0 3
8 5 18 5 10 0 19 -7 19 -14z m-39 -21 c-3 -3 -9 2 -12 12 -6 14 -5 15 5 6 7
-7 10 -15 7 -18z m0 -40 c-3 -3 -9 2 -12 12 -6 14 -5 15 5 6 7 -7 10 -15 7
-18z m-58 5 c0 -5 -5 -10 -11 -10 -5 0 -7 5 -4 10 3 6 8 10 11 10 2 0 4 -4 4
-10z m91 -13 c-10 -9 -11 -8 -5 6 3 10 9 15 12 12 3 -3 0 -11 -7 -18z m39
-108 c0 -6 -4 -7 -10 -4 -5 3 -10 11 -10 16 0 6 5 7 10 4 6 -3 10 -11 10 -16z
m-215 -9 c3 -5 1 -10 -4 -10 -6 0 -11 5 -11 10 0 6 2 10 4 10 3 0 8 -4 11 -10z
m219 -174 c-3 -8 2 -16 13 -19 14 -4 14 -5 -4 -6 -17 -1 -23 5 -23 19 0 11 4
20 10 20 5 0 7 -6 4 -14z m-94 -16 c0 -5 -2 -10 -4 -10 -3 0 -8 5 -11 10 -3 6
-1 10 4 10 6 0 11 -4 11 -10z m109 -70 c1 -13 0 -13 -9 0 -5 8 -9 24 -9 35 l0
20 9 -20 c5 -11 9 -27 9 -35z m-89 20 c0 -5 -5 -10 -11 -10 -5 0 -7 5 -4 10 3
6 8 10 11 10 2 0 4 -4 4 -10z m-34 -118 c-12 -11 -18 7 -10 30 l8 23 4 -23 c2
-13 1 -26 -2 -30z m189 -22 c-4 -11 -2 -20 4 -20 6 0 11 -4 11 -10 0 -15 -30
-12 -31 3 0 6 -2 20 -4 30 -2 10 3 17 12 17 10 0 12 -6 8 -20z m-12 -151 c-5
-5 -7 7 -4 29 5 34 6 35 9 8 2 -16 0 -32 -5 -37z m34 9 c-3 -7 -5 -2 -5 12 0
14 2 19 5 13 2 -7 2 -19 0 -25z m-127 -12 c0 -3 -4 -8 -10 -11 -5 -3 -10 -1
-10 4 0 6 5 11 10 11 6 0 10 -2 10 -4z"/>
<path d="M832 1055 c-7 -8 -9 -15 -4 -15 5 0 15 7 22 15 16 19 -1 19 -18 0z"/>
<path d="M1150 1052 c0 -12 19 -26 26 -19 2 2 -2 10 -11 17 -9 8 -15 8 -15 2z"/>
<path d="M855 1030 c3 -5 8 -10 11 -10 2 0 4 5 4 10 0 6 -5 10 -11 10 -5 0 -7
-4 -4 -10z"/>
<path d="M1178 1003 c7 -3 16 -2 19 1 4 3 -2 6 -13 5 -11 0 -14 -3 -6 -6z"/>
<path d="M823 934 c-3 -8 -2 -46 2 -82 5 -37 9 -94 9 -127 1 -33 4 -67 8 -75
8 -17 15 -87 23 -235 8 -134 10 -140 38 -143 21 -1 23 2 19 24 -2 13 -13 29
-23 35 -11 5 -19 17 -19 27 1 16 1 16 11 -1 6 -9 14 -15 19 -12 9 6 -7 73 -22
92 -13 16 0 36 18 29 8 -3 14 -1 14 4 0 6 -7 10 -15 10 -12 0 -14 8 -9 40 5
33 4 40 -10 40 -9 0 -16 5 -16 10 0 6 5 10 10 10 6 0 10 14 10 31 0 16 -4 28
-9 25 -4 -3 -7 17 -5 44 2 28 1 50 -4 50 -4 0 -7 17 -5 38 2 24 0 31 -5 19
-10 -23 -34 109 -25 141 6 25 -4 30 -14 6z m24 -236 c-3 -8 -6 -5 -6 6 -1 11
2 17 5 13 3 -3 4 -12 1 -19z m20 -100 c-3 -8 -6 -5 -6 6 -1 11 2 17 5 13 3 -3
4 -12 1 -19z"/>
<path d="M852 900 c0 -14 2 -19 5 -12 2 6 2 18 0 25 -3 6 -5 1 -5 -13z"/>
<path d="M1170 900 c0 -24 15 -27 24 -4 9 22 8 24 -9 24 -8 0 -15 -9 -15 -20z"/>
<path d="M1220 900 c0 -5 5 -10 10 -10 6 0 10 5 10 10 0 6 -4 10 -10 10 -5 0
-10 -4 -10 -10z"/>
<path d="M1230 864 c0 -8 5 -12 10 -9 6 3 10 10 10 16 0 5 -4 9 -10 9 -5 0
-10 -7 -10 -16z"/>
<path d="M850 859 c0 -5 5 -7 10 -4 6 3 10 8 10 11 0 2 -4 4 -10 4 -5 0 -10
-5 -10 -11z"/>
<path d="M926 859 c-11 -35 -13 -59 -6 -59 4 0 10 15 13 33 5 33 1 50 -7 26z"/>
<path d="M870 821 c0 -6 4 -13 10 -16 6 -3 7 1 4 9 -7 18 -14 21 -14 7z"/>
<path d="M925 780 c-3 -5 -1 -10 4 -10 6 0 11 5 11 10 0 6 -2 10 -4 10 -3 0
-8 -4 -11 -10z"/>
<path d="M2442 760 c0 -14 2 -19 5 -12 2 6 2 18 0 25 -3 6 -5 1 -5 -13z"/>
<path d="M951 744 c0 -11 3 -14 6 -6 3 7 2 16 -1 19 -3 4 -6 -2 -5 -13z"/>
<path d="M2987 701 c-4 -17 -3 -21 5 -13 5 5 8 16 6 23 -3 8 -7 3 -11 -10z"/>
<path d="M1220 670 c0 -5 9 -10 20 -10 11 0 20 5 20 10 0 6 -9 10 -20 10 -11
0 -20 -4 -20 -10z"/>
<path d="M1256 624 c-3 -9 -2 -23 4 -32 8 -14 9 -12 10 10 0 14 6 29 13 31 7
4 6 6 -4 6 -9 1 -20 -6 -23 -15z"/>
<path d="M1310 629 c0 -5 5 -7 10 -4 6 3 10 8 10 11 0 2 -4 4 -10 4 -5 0 -10
-5 -10 -11z"/>
<path d="M1372 490 c0 -14 2 -19 5 -12 2 6 2 18 0 25 -3 6 -5 1 -5 -13z"/>
<path d="M831 484 c0 -11 3 -14 6 -6 3 7 2 16 -1 19 -3 4 -6 -2 -5 -13z"/>
<path d="M975 420 c3 -5 8 -10 11 -10 2 0 4 5 4 10 0 6 -5 10 -11 10 -5 0 -7
-4 -4 -10z"/>
<path d="M841 404 c0 -11 3 -14 6 -6 3 7 2 16 -1 19 -3 4 -6 -2 -5 -13z"/>
<path d="M966 384 c-9 -24 -7 -28 9 -14 17 14 20 30 6 30 -5 0 -12 -7 -15 -16z"/>
<path d="M2995 380 c3 -5 8 -10 11 -10 2 0 4 5 4 10 0 6 -5 10 -11 10 -5 0 -7
-4 -4 -10z"/>
<path d="M3021 364 c0 -11 3 -14 6 -6 3 7 2 16 -1 19 -3 4 -6 -2 -5 -13z"/>
<path d="M980 330 c0 -5 5 -10 11 -10 5 0 7 5 4 10 -3 6 -8 10 -11 10 -2 0 -4
-4 -4 -10z"/>
<path d="M3020 330 c0 -5 5 -10 11 -10 5 0 7 5 4 10 -3 6 -8 10 -11 10 -2 0
-4 -4 -4 -10z"/>
<path d="M2990 286 c0 -9 5 -16 10 -16 6 0 10 4 10 9 0 6 -4 13 -10 16 -5 3
-10 -1 -10 -9z"/>
<path d="M1340 280 c0 -5 5 -10 10 -10 6 0 10 5 10 10 0 6 -4 10 -10 10 -5 0
-10 -4 -10 -10z"/>
<path d="M882 240 c0 -14 2 -19 5 -12 2 6 2 18 0 25 -3 6 -5 1 -5 -13z"/>
<path d="M910 226 c0 -19 4 -37 9 -40 14 -9 18 49 4 63 -11 9 -13 5 -13 -23z"/>
<path d="M951 234 c0 -11 3 -14 6 -6 3 7 2 16 -1 19 -3 4 -6 -2 -5 -13z"/>
<path d="M892 185 c0 -35 15 -99 17 -72 2 29 26 14 29 -19 5 -57 13 -94 20
-94 12 0 12 39 0 46 -7 4 -6 9 2 14 9 6 9 13 1 28 -6 11 -11 42 -11 68 0 44
-1 46 -14 28 -11 -14 -11 -21 -3 -26 9 -6 9 -8 1 -8 -15 0 -30 19 -37 45 -3
13 -5 10 -5 -10z"/>
<path d="M2966 164 c-9 -24 -7 -29 5 -17 6 6 19 9 28 5 14 -5 14 -4 -1 11 -21
21 -24 21 -32 1z"/>
<path d="M1406 85 c-3 -8 -1 -15 4 -15 6 0 10 7 10 15 0 8 -2 15 -4 15 -2 0
-6 -7 -10 -15z"/>
<path d="M910 78 c0 -30 13 -78 20 -78 4 0 4 19 -2 42 -10 45 -18 61 -18 36z"/>
<path d="M1380 11 c0 -5 9 -7 20 -4 11 3 20 7 20 9 0 2 -9 4 -20 4 -11 0 -20
-4 -20 -9z"/>
</g>
</svg>
