<?xml version="1.0" standalone="no"?>
<!DOCTYPE svg PUBLIC "-//W3C//DTD SVG 20010904//EN"
 "http://www.w3.org/TR/2001/REC-SVG-20010904/DTD/svg10.dtd">
<svg version="1.0" xmlns="http://www.w3.org/2000/svg"
 width="736.000000pt" height="1119.000000pt" viewBox="0 0 736.000000 1119.000000"
 preserveAspectRatio="xMidYMid meet">

<g transform="translate(0.000000,1119.000000) scale(0.100000,-0.100000)"
fill="#000000" stroke="none">
<path d="M4366 10291 c-3 -5 1 -12 10 -15 27 -11 37 -7 24 9 -14 17 -26 19
-34 6z"/>
<path d="M4210 10280 l-25 -8 27 -1 c15 -1 30 4 33 9 7 11 0 11 -35 0z"/>
<path d="M4430 10270 c0 -5 5 -10 10 -10 6 0 10 5 10 10 0 6 -4 10 -10 10 -5
0 -10 -4 -10 -10z"/>
<path d="M4708 10263 c6 -2 18 -2 25 0 6 3 1 5 -13 5 -14 0 -19 -2 -12 -5z"/>
<path d="M4175 10247 c-42 -5 -75 -14 -82 -23 -13 -17 -91 -39 -173 -49 -69
-9 -99 -25 -193 -102 -96 -79 -288 -306 -227 -268 25 15 -5 -67 -36 -100 -21
-22 -84 -145 -84 -164 0 -6 -4 -11 -8 -11 -4 0 -18 -32 -31 -70 -17 -55 -22
-93 -22 -172 0 -56 5 -106 11 -112 7 -7 10 -2 11 15 1 13 5 -9 10 -49 5 -40
15 -96 24 -124 8 -29 16 -79 17 -112 1 -55 2 -52 9 29 4 50 7 134 8 187 2 210
59 349 200 488 47 47 104 94 126 104 22 11 45 26 51 34 19 26 73 4 133 -54 30
-30 67 -57 81 -61 14 -3 30 -9 35 -13 6 -4 36 -17 68 -30 31 -12 57 -27 57
-33 0 -6 2 -8 5 -5 3 3 22 -10 43 -29 46 -43 180 -132 252 -168 30 -15 57 -31
60 -36 3 -4 56 -28 117 -53 137 -55 160 -67 249 -128 109 -75 123 -93 130
-168 3 -36 10 -78 16 -95 5 -16 12 -41 14 -55 3 -14 12 -29 21 -34 8 -4 22
-16 31 -26 12 -15 25 -18 66 -13 28 3 48 2 44 -2 -4 -4 0 -21 8 -36 22 -43 20
-89 -6 -132 -27 -46 -21 -57 16 -28 26 20 28 21 48 4 12 -10 15 -11 9 -3 -15
16 -17 34 -5 26 5 -3 23 8 41 25 30 27 32 34 26 67 -6 35 -34 77 -62 95 -7 4
-13 12 -13 17 0 17 47 11 71 -9 21 -17 23 -26 23 -110 0 -74 3 -91 14 -86 20
8 7 -28 -45 -117 -69 -119 -127 -155 -208 -128 -20 6 -43 9 -51 6 -16 -6 -78
-132 -89 -181 -4 -20 -3 -25 3 -17 12 18 7 -88 -8 -153 -18 -79 -30 -180 -39
-325 -9 -149 -17 -177 -57 -209 -15 -11 -24 -21 -20 -21 21 0 137 62 170 90
30 27 39 31 47 19 13 -21 49 -118 49 -133 0 -7 17 -39 39 -70 34 -50 38 -63
36 -111 -1 -48 0 -53 16 -45 12 7 26 5 46 -5 15 -8 41 -15 57 -15 22 0 40 -11
70 -44 47 -49 127 -103 327 -216 147 -84 205 -108 281 -117 45 -5 47 -5 42 18
-5 23 -5 23 10 5 23 -29 19 -4 -7 46 -12 24 -28 61 -34 83 -7 22 -24 78 -39
125 -14 47 -26 102 -25 122 1 26 -4 40 -16 47 -16 9 -16 12 -3 21 14 9 7 14
-13 11 -5 -1 -6 3 -3 8 4 5 2 12 -4 16 -5 3 -9 32 -8 63 1 56 -16 170 -28 181
-4 3 -3 -9 1 -26 3 -18 4 -33 1 -33 -17 0 -46 38 -45 60 1 25 1 25 15 -5 14
-30 14 -29 8 18 -4 37 -3 47 8 45 15 -3 12 41 -4 57 -7 7 -8 2 -3 -15 7 -21 6
-23 -7 -12 -9 7 -18 29 -21 50 -4 20 -11 56 -15 80 -5 23 -6 42 -3 42 4 0 13
-27 20 -60 8 -33 18 -60 23 -60 5 0 7 8 4 18 -3 9 -12 58 -21 107 -9 50 -21
106 -26 125 l-9 35 5 -37 c2 -27 0 -38 -9 -38 -9 0 -15 20 -19 58 -4 31 -9 68
-12 82 -3 14 3 6 13 -18 10 -23 21 -40 25 -36 3 4 2 14 -2 23 -5 9 -12 41 -16
71 -4 30 -12 64 -18 75 -6 11 -12 38 -13 60 -2 22 -10 72 -19 110 -8 39 -24
122 -35 185 -108 630 -195 907 -393 1258 -20 34 -33 62 -29 62 4 0 16 -17 27
-37 20 -38 61 -103 72 -113 3 -3 -14 33 -37 80 -52 104 -116 205 -166 260 -38
42 -194 160 -212 160 -5 0 -15 6 -21 14 -7 8 -23 17 -37 20 -14 4 -35 15 -46
25 -11 11 -29 22 -41 25 -20 5 -20 4 -5 -8 10 -7 16 -15 13 -18 -3 -2 27 -20
65 -38 39 -19 70 -37 70 -42 0 -4 -40 13 -90 38 -61 31 -96 44 -107 39 -17 -8
-17 -8 0 -12 9 -3 17 -9 17 -13 0 -5 16 -18 36 -28 22 -11 32 -22 26 -26 -6
-4 -30 3 -52 14 -29 15 -45 18 -58 11 -17 -9 -54 6 -94 38 -10 7 -24 11 -32 8
-9 -4 -18 -2 -22 4 -3 6 -11 8 -17 6 -7 -2 -28 1 -47 8 -75 26 -234 36 -345
22z m510 -105 c-3 -3 -11 0 -18 7 -9 10 -8 11 6 5 10 -3 15 -9 12 -12z m349
-57 c11 -8 17 -18 13 -21 -3 -3 -21 8 -39 26 -31 30 -15 27 26 -5z m120 -111
c3 -8 2 -12 -4 -9 -6 3 -10 10 -10 16 0 14 7 11 14 -7z m81 -94 c3 -5 1 -10
-4 -10 -6 0 -11 5 -11 10 0 6 2 10 4 10 3 0 8 -4 11 -10z m-1412 -20 c-8 -31
-23 -34 -23 -6 0 16 6 26 14 26 9 0 12 -7 9 -20z m582 -390 c3 -5 1 -10 -4
-10 -6 0 -11 5 -11 10 0 6 2 10 4 10 3 0 8 -4 11 -10z m68 -33 c20 -10 37 -21
37 -26 0 -11 -76 25 -86 40 -4 6 -3 10 2 7 5 -2 26 -12 47 -21z m941 -529 c3
-13 6 -34 6 -48 0 -24 -1 -24 -21 8 -28 43 -55 42 -74 -5 -8 -20 -18 -33 -22
-30 -7 8 13 52 36 80 21 25 67 22 75 -5z m394 -1063 c13 -29 5 -33 -14 -7 -15
20 -18 32 -6 32 5 0 14 -11 20 -25z m-1 -217 c-3 -8 -6 -5 -6 6 -1 11 2 17 5
13 3 -3 4 -12 1 -19z m76 -228 c3 10 6 8 6 -7 1 -13 -3 -23 -9 -23 -15 0 -30
36 -29 67 1 25 2 24 13 -12 8 -26 15 -34 19 -25z m34 -352 c-3 -8 -6 -5 -6 6
-1 11 2 17 5 13 3 -3 4 -12 1 -19z m93 -195 c0 -7 -4 -13 -10 -13 -5 0 -10 12
-10 28 0 21 2 24 10 12 5 -8 10 -21 10 -27z"/>
<path d="M4620 10246 c0 -12 112 -38 122 -28 7 7 -5 13 -38 17 -27 4 -57 9
-66 12 -10 2 -18 2 -18 -1z"/>
<path d="M4476 9149 c4 -8 -3 -9 -26 -4 -20 4 -30 4 -26 -3 3 -6 -10 -8 -37
-5 -35 4 -44 1 -55 -17 -17 -28 -13 -32 24 -22 26 8 189 7 238 0 10 -2 21 2
23 8 4 13 -39 34 -72 34 -13 0 -27 5 -30 10 -3 6 -15 10 -26 10 -12 0 -17 -4
-13 -11z"/>
<path d="M3548 9063 c7 -3 16 -2 19 1 4 3 -2 6 -13 5 -11 0 -14 -3 -6 -6z"/>
<path d="M4504 8951 c32 -18 60 -30 62 -29 6 7 -62 47 -91 53 -21 5 -11 -3 29
-24z"/>
<path d="M4325 8946 c-37 -16 -108 -92 -100 -106 11 -18 24 -10 40 24 12 26
49 56 68 56 1 0 1 -17 -1 -38 -5 -56 11 -66 89 -51 35 7 92 14 127 16 50 4 63
8 60 20 -2 9 -10 19 -18 23 -8 4 -30 15 -48 24 -18 10 -45 24 -60 32 -34 17
-117 18 -157 0z m55 -56 c0 -5 -4 -10 -10 -10 -5 0 -10 5 -10 10 0 6 5 10 10
10 6 0 10 -4 10 -10z"/>
<path d="M3540 8935 c-31 -18 -16 -18 30 0 23 9 28 14 15 14 -11 0 -31 -6 -45
-14z"/>
<path d="M3568 8916 c-26 -7 -50 -11 -53 -8 -3 3 -5 -2 -5 -11 0 -9 -7 -17
-15 -17 -17 0 -9 -29 14 -47 28 -22 50 -15 65 22 10 24 22 35 35 35 18 0 21
-6 21 -45 l0 -45 79 0 c44 0 82 4 85 9 7 11 -48 87 -71 99 -33 17 -107 20
-155 8z m132 -46 c0 -5 -4 -10 -10 -10 -5 0 -10 5 -10 10 0 6 5 10 10 10 6 0
10 -4 10 -10z"/>
<path d="M3570 8810 c0 -5 5 -10 11 -10 5 0 7 5 4 10 -3 6 -8 10 -11 10 -2 0
-4 -4 -4 -10z"/>
<path d="M5270 8523 c0 -7 5 -15 10 -18 6 -3 10 -15 10 -25 0 -10 5 -22 10
-25 15 -9 1 46 -16 65 -9 9 -14 10 -14 3z"/>
<path d="M4211 8343 c-7 -8 -11 -16 -8 -19 2 -2 10 2 17 11 17 20 9 27 -9 8z"/>
<path d="M3459 8170 c-2 -19 -4 -51 -6 -70 -2 -19 -4 -61 -5 -92 -1 -32 -5
-58 -9 -58 -4 0 -6 -15 -5 -32 2 -18 -1 -43 -5 -55 -5 -14 -5 -23 2 -23 6 0 6
-6 -1 -19 -15 -28 -12 -47 8 -67 16 -17 16 -18 0 -11 -14 5 -18 1 -18 -14 0
-11 4 -18 9 -15 5 4 7 -20 4 -56 -3 -44 -2 -59 6 -48 5 8 7 18 5 22 -3 4 0 8
5 8 16 0 13 -39 -3 -56 -16 -16 -10 -53 10 -61 8 -3 12 -9 9 -13 -2 -4 -7 -43
-10 -86 -4 -44 -13 -98 -22 -121 -18 -50 -3 -47 -228 -44 -289 5 -320 2 -337
-23 -5 -7 -8 -4 -8 7 0 9 -8 17 -17 17 -14 1 -11 6 12 26 32 27 30 28 -35 8
-12 -4 -20 -2 -20 5 0 6 -13 11 -29 11 -36 0 -93 -62 -153 -163 -46 -80 -108
-212 -108 -232 0 -9 20 -15 68 -20 179 -16 547 -57 633 -70 53 -8 113 -15 132
-15 33 0 38 4 57 47 11 26 23 58 27 71 6 25 6 25 -54 18 -33 -4 -67 -4 -76 0
-28 10 -20 40 14 54 17 7 60 33 96 56 36 24 78 46 94 49 21 5 46 29 89 85 33
43 65 82 70 85 6 4 24 32 40 63 39 73 126 211 151 238 22 24 26 16 -76 140
-125 151 -223 296 -276 409 -36 77 -38 79 -40 45z"/>
<path d="M4378 8157 c-34 -9 -38 -14 -38 -44 0 -33 -6 -37 -42 -34 -13 2 -18
-5 -18 -24 l0 -26 58 32 c31 18 66 37 77 43 10 6 25 17 33 24 7 6 18 12 23 12
5 0 9 7 9 15 0 18 -44 18 -102 2z"/>
<path d="M3765 8099 c11 -7 31 -23 45 -36 l25 -23 3 26 c4 33 2 35 -50 40 -37
5 -40 4 -23 -7z"/>
<path d="M4215 8029 c-10 -15 3 -25 16 -12 7 7 7 13 1 17 -6 3 -14 1 -17 -5z"/>
<path d="M3900 7548 c-1 -2 -3 -53 -6 -114 -5 -106 -4 -114 20 -163 15 -28 30
-51 35 -51 5 0 -2 33 -15 74 -23 72 -23 75 -7 155 14 71 15 84 2 92 -13 8 -29
12 -29 7z"/>
<path d="M5916 7317 c3 -10 9 -15 12 -12 3 3 0 11 -7 18 -10 9 -11 8 -5 -6z"/>
<path d="M3774 7110 c-44 -33 -91 -71 -107 -85 -24 -22 -45 -30 -70 -26 -13 2
-69 -30 -63 -36 3 -4 -19 -32 -49 -64 -64 -67 -72 -99 -24 -99 28 0 31 3 27
25 -3 14 -1 25 3 25 5 0 9 -11 9 -25 0 -32 22 -41 72 -28 30 8 36 8 28 -2 -8
-9 1 -14 36 -19 26 -3 64 -6 85 -6 34 0 40 4 53 33 7 19 28 49 45 69 17 20 31
39 31 43 0 3 7 14 16 23 15 15 16 14 9 -8 -4 -14 -23 -49 -41 -78 -48 -75 -46
-88 19 -96 91 -10 97 -9 98 22 l1 27 13 -30 c11 -27 20 -31 76 -42 49 -8 66
-8 71 0 6 9 8 9 8 1 0 -7 18 -14 40 -16 l40 -4 0 39 c0 33 2 38 15 27 8 -6 19
-9 25 -5 12 7 67 -24 94 -54 12 -13 37 -22 75 -26 31 -3 69 -9 84 -12 27 -5
28 -4 15 16 -12 19 -10 24 17 46 17 13 36 24 43 25 6 0 12 3 12 8 0 7 30 25
63 38 9 3 17 10 17 15 0 5 5 9 11 9 6 0 22 9 36 20 l26 20 -162 0 c-88 0 -161
-2 -161 -5 0 -2 12 -11 27 -18 l26 -14 -26 -18 c-27 -17 -27 -17 -76 24 -27
23 -51 41 -53 41 -10 0 -135 86 -182 124 -26 22 -59 41 -74 42 -114 12 -162
31 -162 64 0 28 -11 50 -25 50 -7 0 -48 -27 -91 -60z m-124 -145 c0 -2 -15
-12 -32 -20 l-33 -16 25 20 c24 20 40 26 40 16z m549 -144 c-1 -24 -2 -24 -8
5 -4 17 -11 37 -15 45 -4 8 0 5 8 -5 9 -11 16 -31 15 -45z"/>
<path d="M4975 6940 c-3 -5 -1 -10 4 -10 6 0 11 5 11 10 0 6 -2 10 -4 10 -3 0
-8 -4 -11 -10z"/>
<path d="M4940 6910 c0 -5 5 -10 10 -10 6 0 10 5 10 10 0 6 -4 10 -10 10 -5 0
-10 -4 -10 -10z"/>
<path d="M4250 6730 c0 -5 -8 -10 -17 -11 -10 -1 0 -5 21 -10 50 -12 63 -8 42
14 -19 19 -46 23 -46 7z"/>
<path d="M4666 6201 c-2 -9 -9 -63 -16 -121 -6 -58 -15 -143 -20 -190 -6 -47
-17 -152 -25 -235 -13 -141 -118 -1074 -131 -1177 -7 -48 -7 -48 23 -48 30 0
30 1 36 68 30 319 41 414 57 527 11 72 24 193 30 270 16 223 19 253 36 383 16
118 18 122 35 106 10 -9 27 -14 37 -12 15 4 18 -1 18 -28 0 -37 7 -49 24 -39
15 9 2 95 -19 119 -12 14 -13 20 -3 23 8 3 5 14 -12 34 -21 24 -24 34 -16 55
14 36 13 39 -10 19 -16 -14 -20 -15 -20 -4 0 8 5 20 10 25 6 6 13 21 15 34 3
13 16 34 30 46 30 25 31 31 8 37 -10 3 -2 5 17 6 27 1 31 4 20 11 -12 8 -9 10
11 10 15 0 32 7 39 15 10 12 10 15 -3 15 -11 0 -14 6 -10 18 5 13 -1 11 -22
-8 -16 -14 -25 -18 -21 -10 4 8 -1 4 -12 -9 -14 -18 -21 -20 -24 -10 -4 9 -10
4 -19 -16 -14 -30 -14 -29 -17 31 -2 51 -6 63 -22 67 -12 3 -21 -1 -24 -12z
m54 -321 c22 -31 14 -38 -21 -20 -19 11 -27 50 -10 50 5 0 19 -13 31 -30z
m-36 -55 c-4 -8 -8 -15 -10 -15 -2 0 -4 7 -4 15 0 8 4 15 10 15 5 0 7 -7 4
-15z"/>
<path d="M5020 6149 c0 -5 5 -7 10 -4 6 3 10 8 10 11 0 2 -4 4 -10 4 -5 0 -10
-5 -10 -11z"/>
<path d="M4887 6141 c-41 -9 -110 -80 -122 -127 -11 -41 -4 -99 14 -117 8 -8
16 -6 29 6 16 17 16 18 -3 12 -19 -6 -19 -6 -2 5 16 10 21 8 33 -9 9 -12 20
-21 25 -21 6 0 1 14 -11 30 -26 36 -22 83 11 125 12 14 19 28 16 31 -2 3 -14
-7 -25 -21 -18 -23 -21 -24 -19 -6 0 11 5 17 10 14 5 -3 6 4 2 17 -6 19 -4 21
14 15 16 -5 20 -3 15 9 -4 10 5 20 28 30 35 15 31 18 -15 7z m-77 -101 c0 -5
-5 -10 -11 -10 -5 0 -7 5 -4 10 3 6 8 10 11 10 2 0 4 -4 4 -10z m0 -90 c-19
-13 -30 -13 -30 0 0 6 10 10 23 10 18 0 19 -2 7 -10z"/>
<path d="M5106 6124 c-9 -24 0 -29 18 -11 8 8 12 17 9 21 -11 10 -21 7 -27
-10z"/>
<path d="M4959 6120 c-35 -10 -72 -31 -65 -37 3 -3 11 -1 19 5 7 6 35 15 62
19 34 6 43 11 30 14 -11 3 -32 3 -46 -1z"/>
<path d="M5005 6080 c-4 -6 -10 -8 -15 -5 -4 2 -22 0 -40 -6 -23 -9 -28 -14
-18 -20 7 -5 13 -13 13 -19 0 -6 7 -15 15 -20 12 -9 9 -16 -21 -44 -20 -18
-42 -35 -50 -38 -8 -3 -11 -9 -7 -13 4 -4 29 8 54 29 l47 36 34 -20 c44 -26
57 -25 70 3 29 59 16 107 -28 107 -10 0 -21 5 -24 10 -8 13 -22 13 -30 0z m65
-90 c0 -5 -4 -10 -9 -10 -6 0 -13 5 -16 10 -3 6 1 10 9 10 9 0 16 -4 16 -10z"/>
<path d="M5157 6035 c-16 -12 -16 -13 5 -18 27 -7 32 -3 21 16 -7 13 -11 13
-26 2z"/>
<path d="M5121 5973 c-10 -26 -10 -27 4 -9 8 11 15 23 15 28 0 15 -7 8 -19
-19z"/>
<path d="M5059 5899 l-24 -20 28 17 c15 9 27 18 27 20 0 8 -8 4 -31 -17z"/>
<path d="M4800 5874 c0 -14 68 -59 77 -50 3 2 -9 12 -26 21 -17 8 -31 20 -31
25 0 6 -4 10 -10 10 -5 0 -10 -3 -10 -6z"/>
<path d="M5012 5868 c-11 -11 -17 -48 -7 -48 2 0 16 5 30 12 27 12 34 28 11
28 -8 0 -16 5 -18 10 -2 7 -8 6 -16 -2z"/>
<path d="M4785 5810 c10 -11 20 -20 22 -20 2 0 -2 9 -9 20 -7 11 -17 20 -22
20 -5 0 -1 -9 9 -20z"/>
<path d="M4837 5749 c4 -16 8 -17 14 -7 13 19 11 28 -5 28 -9 0 -12 -7 -9 -21z"/>
<path d="M4880 5731 c0 -6 5 -13 10 -16 6 -3 10 1 10 9 0 9 -4 16 -10 16 -5 0
-10 -4 -10 -9z"/>
<path d="M2637 5147 c-3 -8 -1 -20 4 -28 6 -10 9 -7 9 14 0 29 -5 35 -13 14z"/>
<path d="M1691 4853 c-1 -12 4 -25 9 -28 12 -7 12 2 0 30 -8 19 -9 19 -9 -2z"/>
<path d="M1996 4644 c93 -54 133 -73 144 -66 9 6 40 2 85 -9 38 -10 84 -19
100 -18 l30 0 -31 13 c-18 8 -58 19 -90 26 -76 15 -158 43 -265 91 -48 22 -90
39 -95 39 -4 0 50 -34 122 -76z"/>
<path d="M1642 3616 c-28 -79 -76 -233 -107 -342 -30 -110 -64 -228 -75 -264
-11 -36 -20 -73 -20 -81 0 -9 -11 -26 -25 -39 -13 -12 -38 -59 -55 -104 -17
-45 -40 -90 -51 -102 -11 -11 -22 -32 -25 -45 -10 -41 -20 -139 -14 -139 12 0
9 -53 -4 -84 -24 -56 -74 -273 -102 -443 -9 -56 -11 -253 -4 -393 4 -74 3
-139 -2 -144 -5 -6 -8 -3 -8 7 0 9 -4 17 -10 17 -15 0 -12 -16 6 -34 8 -9 12
-21 8 -27 -5 -8 -3 -9 6 -4 10 6 12 4 7 -8 -3 -9 -1 -17 4 -19 5 -2 11 -13 12
-26 0 -12 5 -22 9 -22 4 0 8 -9 8 -20 0 -10 14 -42 30 -70 17 -28 45 -101 63
-163 27 -94 42 -125 90 -194 60 -86 131 -155 197 -192 l38 -21 16 47 c8 27 45
167 81 313 37 146 77 301 90 345 40 137 59 239 45 243 -19 7 -80 63 -92 85
-17 33 -11 91 20 195 38 125 76 298 96 437 54 379 79 701 55 709 -8 3 -33 10
-57 16 -23 6 -57 24 -75 40 -32 28 -32 29 -31 117 1 83 39 448 50 485 4 14 -8
24 -50 43 -30 14 -59 25 -64 25 -6 0 -33 -65 -60 -144z m-302 -940 c0 -2 -7
-9 -15 -16 -12 -10 -15 -10 -15 4 0 9 7 16 15 16 8 0 15 -2 15 -4z m-27 -108
c-9 -32 -19 -55 -23 -53 -11 7 6 96 21 105 7 5 14 8 16 7 1 -1 -6 -28 -14 -59z"/>
<path d="M4529 3330 c-13 -10 -19 -19 -12 -20 11 0 43 26 43 36 0 8 -8 4 -31
-16z"/>
<path d="M4311 3014 c0 -11 3 -14 6 -6 3 7 2 16 -1 19 -3 4 -6 -2 -5 -13z"/>
<path d="M4291 2736 c-6 -8 -25 -19 -42 -26 -38 -16 -32 -24 7 -10 16 6 35 19
42 30 14 23 10 27 -7 6z"/>
<path d="M1883 1577 c4 -10 7 -24 7 -30 0 -7 4 -6 10 3 8 13 10 13 10 -2 0
-10 11 -19 29 -23 15 -3 37 -14 47 -24 11 -10 25 -16 31 -14 14 5 14 7 -60
-222 -67 -204 -123 -404 -173 -610 -15 -60 -30 -117 -34 -125 -5 -8 -11 -31
-14 -50 -3 -19 -23 -107 -46 -195 -22 -88 -42 -168 -44 -178 -4 -16 26 -17
522 -16 290 1 511 5 491 8 -30 5 -35 10 -33 31 1 14 3 30 4 35 2 6 0 18 -5 29
-5 12 -3 21 6 27 10 6 10 9 2 9 -7 0 -10 7 -7 15 4 8 1 22 -5 29 -7 8 -8 17
-3 20 5 3 5 30 1 63 -5 39 -4 60 3 64 6 4 8 15 4 25 -4 10 -6 54 -6 98 3 162
0 251 -10 254 -14 5 -13 29 1 34 8 3 8 14 0 43 -7 28 -7 41 0 46 8 5 7 8 -1
11 -9 3 -13 47 -14 163 -1 88 0 179 2 203 l4 43 40 -5 c21 -3 44 -9 50 -12 6
-4 26 -8 45 -10 18 -2 39 -6 45 -10 6 -4 34 -9 62 -11 28 -2 55 -8 61 -14 5
-5 22 -9 37 -9 31 0 35 -12 18 -69 -16 -56 -60 -339 -86 -551 -3 -25 -9 -76
-15 -115 -11 -82 -47 -369 -51 -405 -3 -22 -9 -26 -58 -31 -30 -3 202 -6 515
-7 314 -1 565 2 559 6 -7 4 -13 74 -17 187 -4 99 -12 302 -19 450 -7 149 -13
323 -13 388 l0 119 85 3 c47 2 127 6 178 9 104 7 101 9 78 -69 -8 -26 -15 -51
-14 -54 0 -3 -1 -8 -2 -11 -2 -3 -4 -18 -5 -35 -1 -16 -6 -38 -10 -49 -5 -12
-3 -21 6 -27 16 -10 4 -25 -24 -31 -25 -4 -19 -24 7 -20 20 3 20 2 -3 -14 -16
-12 -20 -19 -11 -24 9 -5 12 -38 11 -106 -1 -54 -4 -100 -6 -103 -3 -2 0 -10
5 -16 7 -9 6 -16 -5 -25 -8 -7 -15 -19 -15 -27 0 -9 -6 -13 -13 -10 -8 3 -20
1 -28 -4 -10 -6 -6 -9 15 -9 27 0 28 -2 22 -32 -4 -18 -11 -35 -16 -36 -6 -2
-7 -8 -4 -14 3 -5 -3 -12 -15 -15 -12 -3 -21 -8 -22 -12 -1 -3 -3 -23 -4 -44
-4 -34 -2 -37 16 -32 11 4 19 2 19 -4 0 -6 -5 -11 -10 -11 -6 0 -5 -8 2 -20
10 -16 10 -24 0 -40 -17 -27 -15 -33 8 -27 11 3 20 2 20 -2 0 -12 -23 -38 -45
-50 -19 -12 -19 -12 2 -6 12 3 24 1 28 -5 3 -5 2 -10 -4 -10 -5 0 -13 -21 -16
-48 -10 -69 -14 -80 -33 -85 -14 -4 -13 -5 3 -6 11 -1 26 -5 34 -10 8 -5 -18
-9 -69 -10 -46 -1 -86 -3 -88 -6 -3 -3 336 -4 754 -3 417 1 729 3 693 5 -64 4
-66 5 -66 31 -1 14 -6 28 -12 30 -6 2 -8 8 -5 14 4 6 2 13 -3 17 -10 7 -32 85
-40 144 -3 20 -9 37 -13 37 -5 0 -9 8 -8 17 0 19 -43 186 -67 257 -7 22 -19
70 -26 106 -8 36 -16 67 -20 70 -11 9 -31 108 -24 120 3 5 -1 17 -9 25 -8 9
-24 44 -35 78 -11 34 -33 100 -50 147 -30 83 -41 168 -21 155 5 -3 7 0 4 8 -3
10 4 17 23 22 15 3 43 13 61 22 26 12 35 13 47 3 13 -10 19 -10 34 4 15 14 24
15 40 7 17 -10 20 -9 14 5 -5 15 -3 15 21 -1 32 -22 41 -16 24 16 -9 16 -20
23 -33 21 -16 -3 -17 -1 -5 7 12 9 10 11 -10 11 -14 0 -41 -5 -60 -10 -19 -6
-120 -26 -225 -45 -104 -19 -212 -39 -239 -44 -46 -10 -102 -17 -206 -26 -25
-3 -67 -6 -95 -9 -27 -2 -58 -7 -67 -11 -9 -4 -22 -4 -28 0 -5 3 -15 3 -21 -1
-11 -7 -42 -10 -154 -18 -33 -2 -105 -7 -160 -11 -111 -9 -334 -8 -555 0 -191
8 -257 14 -425 40 -49 8 -117 17 -150 20 -184 19 -386 69 -590 145 -27 10 -93
31 -145 45 -52 15 -101 32 -109 38 -12 10 -13 9 -8 -6z m229 -121 c20 -10 41
-15 47 -11 6 3 13 0 16 -7 3 -7 19 -13 36 -14 49 -2 56 -17 32 -67 -11 -23
-30 -101 -42 -172 -12 -72 -31 -179 -42 -240 -11 -60 -24 -144 -28 -185 -5
-41 -14 -87 -19 -101 -6 -15 -8 -29 -6 -32 6 -5 -9 -126 -27 -227 -5 -30 -11
-68 -13 -85 -1 -16 -6 -50 -10 -75 -9 -57 -14 -100 -15 -123 -1 -16 -8 -18
-53 -15 -33 2 -53 8 -56 17 -3 10 0 12 13 7 32 -12 33 14 4 47 -30 32 -28 42
6 50 14 3 11 5 -10 6 -20 1 -26 4 -17 9 8 5 13 32 14 68 0 32 6 65 11 72 6 8
12 73 13 150 1 76 3 137 4 137 2 0 8 77 15 188 4 71 3 97 -6 97 -9 0 -9 4 1
14 7 9 13 60 15 128 2 62 10 158 19 213 8 55 18 122 21 148 6 44 8 47 23 35 9
-7 33 -22 54 -32z m313 -91 c135 -32 147 -37 140 -65 -4 -14 -9 -33 -11 -42
-2 -10 -7 -28 -10 -40 -4 -13 -8 -41 -11 -63 -2 -22 -11 -92 -18 -156 -18
-140 -35 -380 -50 -689 -3 -63 -8 -136 -11 -161 l-6 -47 -64 1 c-61 0 -64 2
-64 25 0 15 5 22 13 19 6 -2 11 -9 10 -14 -1 -5 14 -10 33 -10 26 -1 34 3 33
15 0 11 -2 12 -6 5 -5 -14 -23 -18 -23 -5 0 5 9 18 21 30 l20 23 -28 -6 c-15
-4 -34 -8 -40 -11 -7 -2 -13 5 -13 16 0 12 8 20 23 22 19 3 22 8 20 46 -1 24
2 40 8 37 5 -4 9 -1 9 4 0 6 -9 11 -20 11 -23 0 -41 -31 -22 -38 7 -2 12 -12
12 -21 0 -13 -8 -18 -30 -18 -22 0 -30 5 -30 19 0 10 7 18 15 18 16 0 20 12 8
23 -11 11 -15 79 -4 73 5 -4 13 -1 17 5 3 6 1 15 -6 19 -8 5 -10 17 -6 34 3
14 4 26 2 26 -2 0 -13 3 -23 7 -15 5 -16 4 -7 -8 6 -8 10 -25 9 -39 -2 -14 -4
-33 -4 -42 -1 -10 -6 -18 -12 -18 -7 0 -9 9 -5 24 3 12 3 26 -1 30 -14 14 -9
48 9 61 14 9 16 14 6 17 -10 4 -10 10 1 34 l14 29 8 -29 c4 -16 6 -33 3 -38
-3 -4 0 -8 5 -8 6 0 11 -7 11 -15 0 -8 9 -15 20 -15 13 0 18 5 13 15 -3 9 2
22 13 30 18 13 17 14 -13 15 -26 0 -33 4 -33 20 0 12 9 30 20 42 19 21 19 21
0 46 -11 13 -20 30 -20 37 0 17 24 25 41 14 12 -8 12 -10 -1 -19 -9 -6 -10
-10 -3 -10 35 0 21 36 -21 54 -7 3 -5 9 6 16 15 9 15 14 2 45 -19 46 -18 91 2
99 9 4 14 12 10 21 -20 50 -20 48 4 35 20 -10 22 -10 17 3 -3 8 -1 19 5 25 6
6 6 12 -1 16 -6 4 -11 2 -11 -3 0 -14 -37 -14 -45 -1 -3 6 2 11 12 11 17 1 17
2 -1 6 -15 4 -17 11 -12 45 4 21 3 45 -1 51 -12 20 -9 42 7 49 12 5 11 7 -3 7
-10 1 -16 5 -13 10 3 5 0 53 -8 107 -14 100 -8 154 17 154 7 -1 39 -7 72 -15z
m2414 -17 c11 -10 13 -10 7 0 -4 6 -3 12 2 12 10 0 33 -101 31 -135 0 -11 3
-44 7 -72 7 -52 6 -53 -20 -53 -14 0 -26 -5 -26 -11 0 -6 9 -9 20 -6 16 4 20
0 20 -19 0 -19 -5 -24 -25 -24 -14 0 -24 -3 -24 -7 5 -30 -2 -35 -20 -18 -22
19 -21 22 -22 -42 0 -13 -4 -23 -8 -23 -4 0 -16 -7 -27 -15 -18 -15 -18 -15
11 -14 47 3 65 0 65 -11 0 -5 -10 -10 -22 -10 -13 -1 -38 -2 -55 -2 -33 -1
-49 -28 -17 -28 8 0 13 -4 10 -9 -3 -5 -25 -6 -50 -4 -24 3 -52 0 -62 -6 -17
-9 -17 -10 -1 -11 9 0 17 -7 17 -15 0 -8 5 -15 10 -15 6 0 10 7 10 15 0 10 9
15 28 14 16 -1 20 -3 10 -6 -20 -5 -24 -23 -5 -23 6 0 21 7 31 15 25 19 36 19
36 0 0 -14 11 -19 37 -16 20 3 23 -15 5 -35 -19 -21 -27 -64 -12 -64 5 0 13 8
19 18 8 14 12 15 23 4 11 -11 9 -17 -11 -33 -13 -10 -29 -19 -35 -19 -18 0
-17 -38 2 -45 14 -5 14 -7 2 -16 -13 -8 -13 -11 3 -20 9 -6 15 -14 12 -19 -3
-5 0 -12 6 -16 8 -5 10 4 7 30 -2 23 0 36 8 36 8 0 11 -20 10 -61 -2 -52 1
-63 16 -67 21 -5 24 -32 3 -32 -9 0 -12 -6 -9 -15 4 -8 -1 -17 -9 -21 -13 -5
-14 -9 -4 -25 6 -10 17 -19 23 -19 12 0 24 -44 24 -86 0 -13 -5 -23 -12 -21
-15 3 -27 -45 -15 -61 6 -7 6 -17 1 -25 -9 -12 -10 -47 -3 -77 3 -13 -16 -15
-125 -17 l-129 -3 6 40 c3 22 1 43 -4 46 -5 3 -8 40 -8 82 1 42 -1 87 -5 100
-5 13 -3 22 3 22 6 0 11 9 11 21 0 11 -4 18 -9 15 -4 -3 -11 133 -15 302 -4
169 -11 363 -16 430 -9 134 -7 150 18 151 9 1 42 4 72 7 30 4 79 7 108 8 36 1
52 5 52 14 0 7 -5 10 -12 6 -7 -4 -8 -3 -4 4 9 15 19 15 35 0z m-312 -44 c20
-5 21 -12 20 -87 0 -55 -3 -72 -8 -52 -4 20 -7 3 -8 -53 -1 -53 -5 -81 -11
-77 -14 9 -13 -68 2 -83 8 -8 8 -15 -1 -25 -7 -9 -10 -39 -9 -72 3 -49 0 -58
-14 -61 -12 -1 -18 5 -19 19 -1 16 -3 14 -8 -8 -8 -35 -3 -54 10 -34 7 11 9
10 9 -3 0 -10 -7 -18 -15 -18 -15 0 -16 -24 -2 -47 5 -8 0 -17 -13 -25 -26
-16 -26 -38 0 -38 22 0 21 -2 -20 -47 -9 -10 -14 -35 -14 -69 1 -41 -3 -54
-15 -57 -9 -3 -1 -5 18 -6 43 -1 37 -9 -13 -15 -46 -6 -60 -16 -23 -16 15 0
27 -6 28 -12 2 -32 10 -94 14 -105 2 -7 -1 -16 -8 -20 -16 -11 -40 -54 -33
-61 3 -3 24 -5 46 -4 22 1 40 -2 40 -6 0 -14 -23 -32 -41 -32 -9 0 -19 -9 -22
-19 -3 -15 -11 -18 -28 -15 -19 4 -17 2 6 -9 29 -13 29 -13 6 -20 -13 -3 -20
-10 -16 -16 3 -6 -1 -11 -9 -11 -10 0 -13 6 -10 15 8 21 -13 19 -25 -2 -6 -11
-11 -13 -11 -5 0 9 -5 10 -19 2 -11 -5 -42 -10 -69 -10 l-50 0 -6 103 c-13
232 -37 927 -34 991 3 69 3 69 33 72 117 12 143 14 169 14 15 0 35 5 42 11 8
6 25 9 38 7 14 -3 31 -1 38 3 15 10 26 11 55 3z m-1423 -52 c3 -5 18 -7 34 -4
17 2 39 -1 49 -7 14 -7 23 -7 31 1 8 8 13 7 17 -4 5 -11 21 -16 63 -16 78 -1
82 -9 82 -154 0 -106 -2 -118 -17 -118 -17 -1 -17 -1 0 -14 26 -20 21 -25 -23
-19 -26 4 -40 2 -40 -6 0 -6 16 -11 36 -11 29 0 35 -3 30 -16 -3 -9 -6 -19 -6
-23 0 -4 -12 -7 -27 -6 -18 0 -28 -5 -28 -15 0 -10 10 -15 30 -15 21 0 31 -5
33 -18 3 -16 1 -17 -18 -7 -31 17 -52 6 -44 -24 3 -13 1 -27 -6 -31 -6 -4 -8
-15 -5 -26 4 -10 2 -19 -3 -19 -6 0 -12 5 -14 12 -3 7 -12 9 -22 5 -11 -4 -16
-13 -12 -22 6 -17 -7 -27 -26 -20 -21 8 -42 63 -30 78 8 9 3 16 -18 25 -19 9
-33 25 -41 50 -6 20 -17 40 -23 44 -7 5 -4 8 7 8 24 0 22 37 -3 50 -16 8 -18
15 -10 34 7 19 5 26 -7 30 -10 4 -13 14 -9 30 3 12 3 26 -1 30 -4 3 -8 14 -9
24 -5 32 -19 75 -35 106 -7 13 -7 16 0 11 7 -3 11 2 11 14 0 32 11 51 30 51
11 0 21 -4 24 -8z m646 -43 c6 -20 8 -43 6 -50 -11 -34 -15 -273 -5 -292 8
-15 8 -22 -2 -28 -16 -10 -21 -169 -6 -169 5 0 4 -6 -2 -14 -9 -11 -9 -15 1
-19 10 -4 11 -7 1 -18 -7 -7 -13 -32 -13 -55 0 -23 -5 -44 -11 -46 -9 -3 -8
-10 2 -25 11 -18 11 -28 0 -61 -8 -22 -11 -50 -8 -62 3 -13 0 -23 -8 -26 -8
-3 -14 -13 -14 -22 0 -9 0 -41 -1 -70 -1 -29 4 -59 10 -67 10 -12 9 -16 -4
-21 -21 -8 -20 -34 2 -35 14 -1 13 -2 -3 -7 l-20 -5 20 -7 c11 -4 -35 -8 -102
-9 l-121 -1 11 25 c7 14 18 23 25 20 8 -3 12 9 11 43 0 26 -3 41 -6 35 -7 -18
-23 -16 -23 2 0 8 7 15 15 15 8 0 15 7 15 15 0 25 1 29 12 43 8 9 6 12 -6 12
-20 0 -21 36 -1 44 8 3 15 10 15 17 0 6 -6 9 -14 6 -8 -3 -17 -1 -20 6 -2 7
-5 -4 -5 -23 -1 -24 -4 -31 -10 -21 -5 7 -5 29 0 49 5 23 4 41 -3 50 -13 15 2
35 19 24 6 -4 16 -23 21 -42 l10 -35 1 40 c0 39 -20 81 -32 68 -7 -6 -11 37
-8 64 1 7 -2 13 -6 13 -5 0 -10 -12 -11 -27 -3 -36 -22 -56 -22 -22 0 41 12
69 29 69 14 1 13 2 -2 11 -18 10 -18 11 0 25 17 13 17 14 -4 20 -22 6 -29 27
-25 77 1 10 -5 29 -14 42 -9 14 -12 25 -8 25 8 0 10 75 3 90 -1 3 -3 10 -4 15
-2 6 -4 12 -5 15 -8 21 -6 40 3 40 9 0 9 2 1 8 -6 4 -14 37 -18 75 -3 37 -9
96 -12 132 -4 36 -3 65 2 65 154 7 260 12 261 14 2 1 19 2 38 2 32 -1 36 -4
45 -37z m797 -116 c-3 -10 -5 -4 -5 12 0 17 2 24 5 18 2 -7 2 -21 0 -30z m-8
-106 c12 -15 12 -17 -3 -11 -9 3 -16 13 -16 22 0 8 1 13 3 11 1 -2 9 -12 16
-22z m351 -9 c0 -5 -4 -8 -10 -8 -5 0 -10 10 -10 23 0 18 2 19 10 7 5 -8 10
-18 10 -22z m-80 -113 c0 -7 8 -18 18 -24 11 -6 14 -13 7 -20 -7 -6 -17 -4
-31 7 -23 20 -28 52 -7 52 7 0 13 -7 13 -15z m43 -80 c-3 -9 -8 -14 -10 -11
-3 3 -2 9 2 15 9 16 15 13 8 -4z m-1484 -14 c8 -14 7 -22 -4 -31 -12 -10 -15
-10 -15 3 0 8 -3 22 -6 31 -9 23 13 20 25 -3z m-179 -112 c0 -16 -4 -29 -10
-29 -5 0 -10 16 -10 36 0 21 4 33 10 29 6 -3 10 -19 10 -36z m125 11 c-3 -5
-10 -10 -16 -10 -5 0 -9 5 -9 10 0 6 7 10 16 10 8 0 12 -4 9 -10z m-60 -40 c3
-5 -3 -10 -14 -10 -11 0 -23 5 -26 10 -3 6 3 10 14 10 11 0 23 -4 26 -10z m39
4 c19 -7 22 -48 4 -41 -7 2 -13 10 -13 18 0 8 -4 17 -10 21 -12 9 -2 10 19 2z
m61 -5 c11 -16 1 -19 -13 -3 -7 8 -8 14 -3 14 5 0 13 -5 16 -11z m-1041 -14
c-4 -8 -8 -15 -10 -15 -2 0 -4 7 -4 15 0 8 4 15 10 15 5 0 7 -7 4 -15z m36
-24 c0 -17 -12 -41 -21 -41 -5 0 -9 11 -9 25 0 16 6 25 15 25 8 0 15 -4 15 -9z
m860 -1 c0 -5 -4 -10 -9 -10 -6 0 -13 5 -16 10 -3 6 1 10 9 10 9 0 16 -4 16
-10z m70 0 c0 -12 -28 -25 -36 -17 -9 9 6 27 22 27 8 0 14 -5 14 -10z m1199
-42 c0 -28 -2 -30 -9 -13 -8 18 -9 18 -10 -5 -5 -62 -12 -69 -19 -20 -7 47 2
70 25 70 9 0 14 -11 13 -32z m-1169 -17 c0 -9 4 -21 10 -27 11 -11 -8 -84 -22
-84 -13 0 -9 48 5 53 6 3 2 6 -10 6 -12 1 -25 6 -28 11 -3 6 -14 10 -23 10 -9
0 -24 5 -32 10 -22 15 7 32 32 19 22 -12 41 -2 34 16 -2 7 -2 16 1 19 10 9 33
-15 33 -33z m1200 29 c0 -5 -4 -10 -10 -10 -5 0 -10 5 -10 10 0 6 5 10 10 10
6 0 10 -4 10 -10z m390 -24 c0 -3 -4 -8 -10 -11 -5 -3 -10 -1 -10 4 0 6 5 11
10 11 6 0 10 -2 10 -4z m-860 -35 c0 -18 -12 -41 -22 -41 -5 0 -6 5 -3 10 3 6
1 10 -4 10 -6 0 -11 7 -11 15 0 8 9 15 20 15 11 0 20 -4 20 -9z m447 -23 c-3
-8 -6 -5 -6 6 -1 11 2 17 5 13 3 -3 4 -12 1 -19z m-1207 -28 c0 -11 -6 -20
-14 -20 -7 0 -16 9 -19 20 -4 15 0 20 14 20 12 0 19 -7 19 -20z m1184 -67 c-2
-63 -3 -68 -11 -60 -13 14 -13 107 0 107 9 0 12 -15 11 -47z m-2514 33 c0 -3
-4 -8 -10 -11 -5 -3 -10 -1 -10 4 0 6 5 11 10 11 6 0 10 -2 10 -4z m2545 -5
c3 -5 1 -12 -5 -16 -5 -3 -10 1 -10 9 0 18 6 21 15 7z m-1194 -25 c-21 -9 -30
-36 -11 -36 6 0 10 -5 10 -11 0 -21 -24 -2 -37 28 l-12 31 36 -1 c31 -1 33 -2
14 -11z m-999 -78 c-5 -7 -12 -22 -15 -33 -3 -13 -5 -9 -6 13 -1 23 3 32 15
32 12 0 14 -3 6 -12z m978 -28 c0 -5 -4 -10 -9 -10 -6 0 -13 5 -16 10 -3 6 1
10 9 10 9 0 16 -4 16 -10z m234 1 c6 -10 -22 -37 -29 -29 -8 7 5 38 15 38 5 0
11 -4 14 -9z m946 -16 c0 -8 -4 -15 -10 -15 -5 0 -10 7 -10 15 0 8 5 15 10 15
6 0 10 -7 10 -15z m450 -55 c0 -5 -4 -10 -10 -10 -5 0 -10 5 -10 10 0 6 5 10
10 10 6 0 10 -4 10 -10z m-1400 -36 c0 -8 -4 -14 -10 -14 -5 0 -10 9 -10 21 0
11 5 17 10 14 6 -3 10 -13 10 -21z m1410 -5 c0 -5 -7 -9 -15 -9 -15 0 -20 12
-9 23 8 8 24 -1 24 -14z m-440 -11 c0 -6 -6 -5 -15 2 -8 7 -15 14 -15 16 0 2
7 1 15 -2 8 -4 15 -11 15 -16z m-2180 -18 c0 -5 -2 -10 -4 -10 -3 0 -8 5 -11
10 -3 6 -1 10 4 10 6 0 11 -4 11 -10z m1050 -30 c0 -5 -4 -10 -10 -10 -5 0
-10 5 -10 10 0 6 5 10 10 10 6 0 10 -4 10 -10z"/>
<path d="M2382 1020 c0 -16 4 -30 9 -30 5 0 9 9 9 20 0 11 0 23 1 27 0 4 -4 9
-9 11 -5 1 -9 -11 -10 -28z"/>
<path d="M2430 880 c0 -5 5 -10 11 -10 5 0 7 5 4 10 -3 6 -8 10 -11 10 -2 0
-4 -4 -4 -10z"/>
<path d="M2418 833 c7 -3 16 -2 19 1 4 3 -2 6 -13 5 -11 0 -14 -3 -6 -6z"/>
<path d="M2390 805 c0 -8 8 -11 20 -8 11 3 20 7 20 8 0 1 -9 5 -20 8 -12 3
-20 0 -20 -8z"/>
<path d="M2370 530 c0 -5 7 -10 15 -10 8 0 15 5 15 10 0 6 -7 10 -15 10 -8 0
-15 -4 -15 -10z"/>
<path d="M2391 334 c0 -11 3 -14 6 -6 3 7 2 16 -1 19 -3 4 -6 -2 -5 -13z"/>
<path d="M2422 252 c2 -42 11 -61 22 -44 3 5 -2 26 -9 48 l-15 39 2 -43z"/>
<path d="M2402 250 c0 -14 2 -19 5 -12 2 6 2 18 0 25 -3 6 -5 1 -5 -13z"/>
<path d="M4775 1240 c-4 -6 -3 -16 3 -22 6 -6 12 -6 17 2 4 6 3 16 -3 22 -6 6
-12 6 -17 -2z"/>
<path d="M4815 1241 c-3 -5 -1 -12 5 -16 5 -3 10 1 10 9 0 18 -6 21 -15 7z"/>
<path d="M4705 1150 c4 -6 11 -8 16 -5 14 9 11 15 -7 15 -8 0 -12 -5 -9 -10z"/>
<path d="M4700 1030 c-8 -5 -10 -10 -5 -10 6 0 17 5 25 10 8 5 11 10 5 10 -5
0 -17 -5 -25 -10z"/>
<path d="M4677 1003 c-12 -3 -16 -11 -12 -22 3 -10 -1 -24 -10 -31 -13 -11
-14 -10 -9 4 5 12 2 15 -10 10 -9 -4 -16 -17 -16 -33 0 -20 2 -23 10 -11 6 10
10 11 10 3 0 -20 28 -15 52 9 15 15 18 23 9 26 -8 3 -6 9 8 19 12 8 21 20 21
26 0 7 -4 6 -10 -3 -6 -10 -10 -11 -10 -2 0 12 -3 13 -33 5z"/>
<path d="M4648 873 c7 -3 16 -2 19 1 4 3 -2 6 -13 5 -11 0 -14 -3 -6 -6z"/>
<path d="M4700 790 c0 -5 5 -10 11 -10 5 0 7 5 4 10 -3 6 -8 10 -11 10 -2 0
-4 -4 -4 -10z"/>
<path d="M4738 783 c6 -2 18 -2 25 0 6 3 1 5 -13 5 -14 0 -19 -2 -12 -5z"/>
<path d="M4745 760 c-3 -5 -1 -10 4 -10 6 0 11 5 11 10 0 6 -2 10 -4 10 -3 0
-8 -4 -11 -10z"/>
<path d="M4650 725 c0 -8 5 -15 10 -15 6 0 10 7 10 15 0 8 -4 15 -10 15 -5 0
-10 -7 -10 -15z"/>
<path d="M4720 730 c0 -5 7 -10 16 -10 8 0 12 5 9 10 -3 6 -10 10 -16 10 -5 0
-9 -4 -9 -10z"/>
<path d="M4602 655 c0 -16 2 -22 5 -12 2 9 2 23 0 30 -3 6 -5 -1 -5 -18z"/>
<path d="M4738 673 c7 -3 16 -2 19 1 4 3 -2 6 -13 5 -11 0 -14 -3 -6 -6z"/>
<path d="M4679 651 c-23 -5 -25 -8 -13 -19 10 -9 14 -9 14 -1 0 8 11 10 33 6
19 -3 40 -1 48 4 11 7 9 9 -8 9 -12 0 -27 2 -35 4 -7 2 -25 1 -39 -3z"/>
<path d="M4750 591 c0 -20 13 -35 23 -25 7 8 -4 44 -14 44 -5 0 -9 -9 -9 -19z"/>
<path d="M4720 570 c0 -11 4 -20 9 -20 5 0 7 9 4 20 -3 11 -7 20 -9 20 -2 0
-4 -9 -4 -20z"/>
<path d="M4798 543 c7 -3 16 -2 19 1 4 3 -2 6 -13 5 -11 0 -14 -3 -6 -6z"/>
<path d="M4690 495 c0 -14 5 -25 10 -25 6 0 10 5 10 11 0 7 10 9 25 5 27 -7
65 8 65 24 0 13 -33 13 -47 -1 -8 -8 -17 -8 -31 0 -29 15 -32 14 -32 -14z"/>
<path d="M4767 431 c-3 -12 -1 -23 3 -26 4 -3 6 -14 3 -25 -3 -11 -1 -20 5
-20 17 0 24 62 9 78 -12 11 -15 10 -20 -7z"/>
<path d="M4660 421 c-25 -7 -25 -7 -3 -13 13 -3 26 -14 29 -23 7 -16 2 -22
-36 -45 -8 -4 -11 -12 -7 -16 5 -5 12 -2 17 5 4 8 15 11 25 8 9 -4 13 -11 10
-17 -3 -5 -2 -10 3 -10 14 0 24 62 12 74 -5 5 -10 18 -10 28 0 19 -2 20 -40 9z"/>
<path d="M4730 370 c0 -11 5 -20 10 -20 6 0 10 9 10 20 0 11 -4 20 -10 20 -5
0 -10 -9 -10 -20z"/>
<path d="M4610 355 c0 -11 5 -27 10 -35 8 -12 10 -12 10 5 0 11 -5 27 -10 35
-8 12 -10 12 -10 -5z"/>
<path d="M4805 330 c-3 -5 1 -10 9 -10 9 0 16 5 16 10 0 6 -4 10 -9 10 -6 0
-13 -4 -16 -10z"/>
<path d="M4850 330 c0 -5 7 -10 16 -10 8 0 12 5 9 10 -3 6 -10 10 -16 10 -5 0
-9 -4 -9 -10z"/>
<path d="M4735 320 c-3 -5 -1 -10 4 -10 6 0 11 5 11 10 0 6 -2 10 -4 10 -3 0
-8 -4 -11 -10z"/>
<path d="M4770 310 c0 -5 5 -10 10 -10 6 0 10 5 10 10 0 6 -4 10 -10 10 -5 0
-10 -4 -10 -10z"/>
<path d="M4800 290 c0 -5 5 -10 11 -10 5 0 7 5 4 10 -3 6 -8 10 -11 10 -2 0
-4 -4 -4 -10z"/>
<path d="M4772 269 c2 -7 10 -15 17 -17 8 -3 12 1 9 9 -2 7 -10 15 -17 17 -8
3 -12 -1 -9 -9z"/>
<path d="M4735 241 c-3 -5 -1 -12 5 -16 5 -3 10 1 10 9 0 18 -6 21 -15 7z"/>
<path d="M4810 188 c0 -7 5 -20 10 -28 8 -13 10 -12 10 3 0 9 0 20 1 24 0 4
-4 9 -10 11 -6 2 -11 -2 -11 -10z"/>
<path d="M4740 173 c0 -5 11 -9 25 -9 14 -1 25 2 25 7 0 5 -11 9 -25 9 -14 0
-25 -3 -25 -7z"/>
<path d="M4620 134 c0 -8 5 -12 10 -9 6 4 8 11 5 16 -9 14 -15 11 -15 -7z"/>
<path d="M4472 874 c9 -3 19 -13 22 -22 3 -12 4 -12 3 3 -1 12 -10 21 -22 22
-15 1 -15 0 -3 -3z"/>
<path d="M4191 674 c0 -11 3 -14 6 -6 3 7 2 16 -1 19 -3 4 -6 -2 -5 -13z"/>
<path d="M4290 550 c0 -5 7 -7 15 -4 8 4 15 8 15 10 0 2 -7 4 -15 4 -8 0 -15
-4 -15 -10z"/>
<path d="M4241 496 c12 -10 59 -15 59 -6 0 5 -14 10 -32 10 -17 0 -29 -2 -27
-4z"/>
<path d="M4300 430 c0 -5 5 -10 11 -10 5 0 7 5 4 10 -3 6 -8 10 -11 10 -2 0
-4 -4 -4 -10z"/>
<path d="M4307 389 c7 -7 15 -10 18 -7 3 3 -2 9 -12 12 -14 6 -15 5 -6 -5z"/>
<path d="M4302 321 c-11 -7 -11 -9 2 -14 10 -4 16 -1 16 8 0 17 -1 17 -18 6z"/>
<path d="M4391 321 c-8 -5 -10 -14 -6 -21 6 -9 10 -8 17 4 12 21 7 28 -11 17z"/>
<path d="M4221 294 c0 -11 3 -14 6 -6 3 7 2 16 -1 19 -3 4 -6 -2 -5 -13z"/>
<path d="M4280 286 c0 -9 5 -16 10 -16 6 0 10 4 10 9 0 6 -4 13 -10 16 -5 3
-10 -1 -10 -9z"/>
<path d="M4310 239 c0 -11 5 -17 10 -14 6 3 10 13 10 21 0 8 -4 14 -10 14 -5
0 -10 -9 -10 -21z"/>
<path d="M4240 220 c0 -6 7 -10 15 -10 8 0 15 2 15 4 0 2 -7 6 -15 10 -8 3
-15 1 -15 -4z"/>
<path d="M4340 220 c0 -5 5 -10 10 -10 6 0 10 5 10 10 0 6 -4 10 -10 10 -5 0
-10 -4 -10 -10z"/>
<path d="M4305 180 c3 -5 8 -10 11 -10 2 0 4 5 4 10 0 6 -5 10 -11 10 -5 0 -7
-4 -4 -10z"/>
<path d="M4378 183 c7 -3 16 -2 19 1 4 3 -2 6 -13 5 -11 0 -14 -3 -6 -6z"/>
<path d="M4290 150 c0 -5 9 -10 20 -10 11 0 20 5 20 10 0 6 -9 10 -20 10 -11
0 -20 -4 -20 -10z"/>
<path d="M3240 1010 c0 -5 5 -10 11 -10 5 0 7 5 4 10 -3 6 -8 10 -11 10 -2 0
-4 -4 -4 -10z"/>
<path d="M3248 873 c7 -3 16 -2 19 1 4 3 -2 6 -13 5 -11 0 -14 -3 -6 -6z"/>
<path d="M3160 820 c0 -5 5 -10 10 -10 6 0 10 5 10 10 0 6 -4 10 -10 10 -5 0
-10 -4 -10 -10z"/>
<path d="M3255 750 c-3 -5 1 -10 9 -10 9 0 16 5 16 10 0 6 -4 10 -9 10 -6 0
-13 -4 -16 -10z"/>
<path d="M3200 730 c0 -5 9 -10 21 -10 11 0 17 5 14 10 -3 6 -13 10 -21 10 -8
0 -14 -4 -14 -10z"/>
<path d="M3598 663 c6 -2 18 -2 25 0 6 3 1 5 -13 5 -14 0 -19 -2 -12 -5z"/>
<path d="M3522 548 c0 -34 3 -39 12 -27 6 9 18 18 26 22 12 4 11 6 -2 6 -11 1
-18 9 -18 21 0 11 -4 20 -9 20 -6 0 -9 -19 -9 -42z"/>
<path d="M3540 500 c0 -5 11 -10 25 -10 14 0 25 5 25 10 0 6 -11 10 -25 10
-14 0 -25 -4 -25 -10z"/>
<path d="M3596 494 c-9 -23 -8 -24 12 -23 11 0 12 2 4 6 -10 4 -10 8 -1 19 7
8 7 14 1 14 -5 0 -13 -7 -16 -16z"/>
<path d="M3560 445 c0 -9 6 -12 15 -9 11 4 15 -1 16 -17 0 -25 1 -24 20 26 2
5 -8 11 -23 12 -18 1 -28 -3 -28 -12z"/>
<path d="M3550 377 c0 -10 8 -17 18 -17 9 0 13 4 7 8 -5 4 -13 11 -17 16 -5 5
-8 2 -8 -7z"/>
<path d="M3595 379 c-4 -6 -5 -12 -2 -15 2 -3 7 2 10 11 7 17 1 20 -8 4z"/>
<path d="M3590 345 c0 -5 5 -17 10 -25 5 -8 10 -10 10 -5 0 6 -5 17 -10 25 -5
8 -10 11 -10 5z"/>
<path d="M3570 270 c0 -5 5 -10 10 -10 6 0 10 5 10 10 0 6 -4 10 -10 10 -5 0
-10 -4 -10 -10z"/>
<path d="M3565 230 c3 -5 10 -10 16 -10 5 0 9 5 9 10 0 6 -7 10 -16 10 -8 0
-12 -4 -9 -10z"/>
<path d="M1110 1491 c0 -5 5 -13 10 -16 6 -3 10 -2 10 4 0 5 -4 13 -10 16 -5
3 -10 2 -10 -4z"/>
<path d="M4976 1325 c-3 -9 0 -15 9 -15 8 0 15 7 15 15 0 8 -4 15 -9 15 -5 0
-11 -7 -15 -15z"/>
<path d="M5216 1332 c-4 -7 6 -69 26 -147 35 -141 61 -266 80 -375 12 -69 24
-127 26 -130 2 -2 7 2 12 10 5 8 5 19 1 25 -4 5 -13 48 -20 95 -14 104 -47
259 -67 320 -17 54 -18 63 -2 54 8 -5 9 0 5 17 -4 13 -7 30 -7 37 0 7 -4 10
-10 7 -5 -3 -10 3 -10 15 0 12 5 18 10 15 6 -3 10 -1 10 5 0 15 -48 62 -54 52z"/>
<path d="M4931 1274 c0 -11 3 -14 6 -6 3 7 2 16 -1 19 -3 4 -6 -2 -5 -13z"/>
<path d="M5004 1264 c2 -10 8 -20 14 -22 17 -5 15 13 -2 27 -12 10 -14 9 -12
-5z"/>
<path d="M5090 1276 c0 -2 7 -7 16 -10 8 -3 12 -2 9 4 -6 10 -25 14 -25 6z"/>
<path d="M5130 910 c0 -11 5 -20 10 -20 6 0 10 9 10 20 0 11 -4 20 -10 20 -5
0 -10 -9 -10 -20z"/>
<path d="M5191 854 c0 -11 3 -14 6 -6 3 7 2 16 -1 19 -3 4 -6 -2 -5 -13z"/>
<path d="M4040 825 c0 -8 5 -15 10 -15 6 0 10 7 10 15 0 8 -4 15 -10 15 -5 0
-10 -7 -10 -15z"/>
<path d="M4040 764 c0 -14 4 -23 9 -20 5 3 7 15 4 26 -7 28 -13 25 -13 -6z"/>
<path d="M3990 663 c0 -14 2 -15 9 -4 5 7 14 10 20 7 6 -4 11 -2 11 3 0 6 -9
11 -20 11 -12 0 -20 -7 -20 -17z"/>
<path d="M5350 652 c0 -5 6 -53 14 -108 8 -54 17 -139 20 -189 2 -49 10 -125
16 -168 6 -42 8 -82 5 -87 -4 -6 27 -9 87 -8 51 1 72 3 45 5 -46 4 -47 5 -42
33 3 16 0 32 -5 35 -6 4 -8 11 -4 16 3 5 0 16 -6 24 -10 12 -9 15 4 15 9 0 16
4 16 9 0 4 -11 6 -25 3 -27 -5 -32 7 -13 26 9 9 8 12 -4 12 -10 0 -18 -13 -23
-37 -6 -32 -9 -35 -15 -18 -4 11 -4 25 0 30 14 19 18 65 5 65 -13 0 -23 64
-30 194 -2 36 -6 70 -10 75 -3 6 -6 26 -7 46 -1 22 -6 35 -15 35 -7 0 -13 -4
-13 -8z"/>
<path d="M3985 570 c-4 -6 -3 -16 3 -22 6 -6 12 -6 17 2 4 6 3 16 -3 22 -6 6
-12 6 -17 -2z"/>
<path d="M5440 430 c0 -5 5 -10 10 -10 6 0 10 5 10 10 0 6 -4 10 -10 10 -5 0
-10 -4 -10 -10z"/>
<path d="M2805 361 c-3 -5 -1 -12 5 -16 5 -3 10 1 10 9 0 18 -6 21 -15 7z"/>
<path d="M5255 350 c3 -5 10 -10 16 -10 5 0 9 5 9 10 0 6 -7 10 -16 10 -8 0
-12 -4 -9 -10z"/>
<path d="M5266 321 c-4 -6 -3 -11 3 -11 5 0 9 -18 8 -40 -2 -37 6 -50 33 -50
10 0 2 32 -20 78 -10 21 -20 30 -24 23z"/>
<path d="M3950 280 c0 -5 5 -10 10 -10 6 0 10 5 10 10 0 6 -4 10 -10 10 -5 0
-10 -4 -10 -10z"/>
<path d="M5287 183 c3 -7 11 -13 18 -13 7 0 16 -6 18 -12 3 -7 6 -2 6 12 1 20
-4 25 -23 25 -15 0 -22 -5 -19 -12z"/>
<path d="M5618 93 c12 -2 32 -2 45 0 12 2 2 4 -23 4 -25 0 -35 -2 -22 -4z"/>
</g>
</svg>
